<?xml version="1.0" encoding="iso-8859-1"?>
<!-- Generator: Adobe Illustrator 18.0.0, SVG Export Plug-In . SVG Version: 6.00 Build 0)  -->
<!DOCTYPE svg PUBLIC "-//W3C//DTD SVG 1.1//EN" "http://www.w3.org/Graphics/SVG/1.1/DTD/svg11.dtd">
<svg version="1.1" id="Capa_1" xmlns="http://www.w3.org/2000/svg" xmlns:xlink="http://www.w3.org/1999/xlink" x="0px" y="0px"
	 viewBox="0 0 297.005 297.005" style="enable-background:new 0 0 297.005 297.005;" xml:space="preserve">
<g>
	<path style="fill:#8FA6B4;" d="M178.447,64.26l-9.801,5.283c-2.272,1.224-5.003,0.956-7.025-0.69l-8.743-7.118
		c-0.837-0.682-1.792-1.11-2.778-1.312v134.251c0.945,0.212,1.858,0.626,2.662,1.281l0.02,0.017c0.865,0.704,1.862,1.14,2.895,1.331
		l25.971-133.797C180.564,63.469,179.464,63.712,178.447,64.26z"/>
	<path style="fill:#5D7486;" d="M144.838,61.721l-8.878,7.179c-2.012,1.627-4.72,1.895-6.98,0.691l-9.984-5.319
		c-1.061-0.565-2.211-0.789-3.337-0.722l25.971,133.8c1.071-0.175,2.108-0.614,3.004-1.339l0.088-0.071
		c0.752-0.608,1.599-1,2.476-1.222V60.529C146.362,60.757,145.556,61.14,144.838,61.721z"/>
	<path style="fill:#5D7486;" d="M78.682,76.633l-5.777,10.153c-1.307,2.297-3.73,3.603-6.247,3.368l-13.396-1.252
		c-1.767-0.165-3.523,0.43-4.874,1.652L40.266,97.9L99.11,210.71l2.565-2.321c1.351-1.222,3.107-1.817,4.874-1.652l2.39,0.223
		c2.517,0.235,4.941-1.071,6.247-3.368l0.063-0.111c1.543-2.712,4.603-3.993,7.473-3.128l0.119,0.036
		c2.43,0.732,5.04-0.069,6.729-2.063l0.079-0.094L79.242,75.811C79.041,76.07,78.849,76.339,78.682,76.633z"/>
	<path style="fill:#5D7486;" d="M211.047,73.34l-10.559,3.254c-2.444,0.753-5.078-0.048-6.776-2.06l-7.337-8.696
		c-0.555-0.658-1.213-1.169-1.922-1.554l-25.786,132.842c0.388-0.121,0.771-0.266,1.14-0.464c1.742-0.939,3.724-0.977,5.451-0.244
		l50.497-122.64C214.321,73.045,212.657,72.844,211.047,73.34z"/>
	<path style="fill:#8FA6B4;" d="M111.104,65.856l-7.472,8.823c-1.689,1.994-4.299,2.794-6.729,2.063l-10.748-3.236
		c-1.558-0.469-3.165-0.288-4.562,0.394l50.46,122.551c1.734-0.76,3.733-0.741,5.492,0.196l0.107,0.057
		c0.317,0.169,0.643,0.301,0.974,0.412L112.864,64.386C112.216,64.76,111.618,65.249,111.104,65.856z"/>
	<path style="fill:#8FA6B4;" d="M248.657,90.024c-1.352-1.175-3.085-1.734-4.824-1.558l-13.291,1.351
		c-2.534,0.258-4.983-1.051-6.299-3.365l-5.682-9.994c-0.144-0.253-0.313-0.48-0.482-0.707l-50.408,122.424
		c0.02,0.023,0.044,0.04,0.063,0.063l0.003,0.003c1.698,2.013,4.332,2.814,6.777,2.06l0.003-0.001
		c2.881-0.888,5.963,0.392,7.514,3.119l0.001,0.001c1.316,2.315,3.765,3.623,6.299,3.365l2.35-0.239
		c1.739-0.177,3.472,0.383,4.824,1.558l2.682,2.33L257.03,97.301L248.657,90.024z"/>
	<path style="fill:#314B5A;" d="M125.278,208.518L78.81,235.346c-4.405,2.543-10.037,1.034-12.58-3.371L1.235,119.403
		c-2.543-4.405-1.034-10.037,3.371-12.58l46.469-26.829c4.405-2.543,10.037-1.034,12.58,3.371l64.994,112.573
		C131.192,200.342,129.683,205.975,125.278,208.518z"/>
	<path style="opacity:0.3;fill:#314B5A;" d="M128.649,195.937L63.655,83.364c-2.543-4.405-8.176-5.914-12.58-3.371L4.606,106.822
		c-4.405,2.543-5.914,8.176-3.371,12.58l0.326,0.565l45.18-26.085c4.405-2.543,10.037-1.034,12.58,3.371l64.668,112.008l1.289-0.744
		C129.683,205.975,131.192,200.342,128.649,195.937z"/>
	<path style="fill:#ECF0F1;" d="M101.033,200.54l-26.336,15.205c-4.405,2.543-10.037,1.034-12.58-3.371l-47.483-82.244
		c-2.543-4.405-1.034-10.037,3.371-12.58l26.336-15.205c4.405-2.543,10.037-1.034,12.58,3.371l47.483,82.244
		C106.947,192.365,105.438,197.997,101.033,200.54z"/>
	<path style="fill:#314B5A;" d="M171.727,208.518l46.469,26.829c4.405,2.543,10.037,1.034,12.58-3.371l64.994-112.573
		c2.543-4.405,1.034-10.037-3.371-12.58L245.93,79.994c-4.405-2.543-10.037-1.034-12.58,3.371l-64.994,112.573
		C165.813,200.342,167.322,205.975,171.727,208.518z"/>
	<path style="opacity:0.3;fill:#314B5A;" d="M175.386,209.827L240.38,97.254c2.543-4.405,8.176-5.914,12.58-3.371l43.127,24.899
		c2.071-4.301,0.513-9.534-3.689-11.96L245.93,79.994c-4.405-2.543-10.037-1.034-12.58,3.371l-64.994,112.573
		c-2.543,4.405-1.034,10.037,3.371,12.58l3.342,1.93C175.169,210.239,175.269,210.03,175.386,209.827z"/>
	<circle style="fill:#F9B65F;" cx="276.371" cy="122.762" r="5.307"/>
	<circle style="fill:#F9B65F;" cx="265.724" cy="141.202" r="5.307"/>
	<circle style="fill:#F9B65F;" cx="255.078" cy="159.642" r="5.307"/>
	<circle style="fill:#F9B65F;" cx="244.432" cy="178.082" r="5.307"/>
	<circle style="fill:#F9B65F;" cx="233.785" cy="196.522" r="5.307"/>
	<circle style="fill:#F9B65F;" cx="223.139" cy="214.962" r="5.307"/>
	<circle style="fill:#F9B65F;" cx="255.879" cy="110.932" r="5.307"/>
	<circle style="fill:#F9B65F;" cx="245.233" cy="129.372" r="5.307"/>
	<circle style="fill:#F9B65F;" cx="234.587" cy="147.812" r="5.307"/>
	<circle style="fill:#F9B65F;" cx="223.941" cy="166.251" r="5.307"/>
	<circle style="fill:#F9B65F;" cx="213.294" cy="184.691" r="5.307"/>
	<circle style="fill:#F9B65F;" cx="202.648" cy="203.131" r="5.307"/>
	
		<rect x="40.288" y="102.421" transform="matrix(0.5 0.866 -0.866 0.5 126.5375 21.3415)" style="fill:#2B2B2B;" width="8.997" height="35.666"/>
	
		<rect x="49.64" y="118.968" transform="matrix(0.5 0.866 -0.866 0.5 145.5429 21.5166)" style="fill:#2B2B2B;" width="8.997" height="35.666"/>
	
		<rect x="58.991" y="135.514" transform="matrix(0.5 0.866 -0.866 0.5 164.5484 21.6917)" style="fill:#2B2B2B;" width="8.997" height="35.666"/>
	
		<rect x="71.526" y="157.28" transform="matrix(0.5 0.866 -0.866 0.5 189.6656 21.7188)" style="fill:#2B2B2B;" width="8.997" height="35.666"/>
	
		<rect x="81.683" y="174.36" transform="matrix(0.5 0.866 -0.866 0.5 209.5366 21.4628)" style="fill:#2B2B2B;" width="8.997" height="35.666"/>
</g>
<g>
</g>
<g>
</g>
<g>
</g>
<g>
</g>
<g>
</g>
<g>
</g>
<g>
</g>
<g>
</g>
<g>
</g>
<g>
</g>
<g>
</g>
<g>
</g>
<g>
</g>
<g>
</g>
<g>
</g>
</svg>
