<?xml version="1.0" encoding="iso-8859-1"?>
<!-- Generator: Adobe Illustrator 18.0.0, SVG Export Plug-In . SVG Version: 6.00 Build 0)  -->
<!DOCTYPE svg PUBLIC "-//W3C//DTD SVG 1.1//EN" "http://www.w3.org/Graphics/SVG/1.1/DTD/svg11.dtd">
<svg version="1.1" id="Capa_1" xmlns="http://www.w3.org/2000/svg" xmlns:xlink="http://www.w3.org/1999/xlink" x="0px" y="0px"
	 viewBox="0 0 297.009 297.009" style="enable-background:new 0 0 297.009 297.009;" xml:space="preserve">
<g>
	<path style="fill:#5D7486;" d="M150.742,147.043l-4.44-2.299c-1.946-1.008-2.707-3.402-1.7-5.349l56.746-109.604
		c1.008-1.946,3.402-2.707,5.349-1.7l4.44,2.299c1.946,1.008,2.707,3.402,1.7,5.349l-56.746,109.604
		C155.083,147.29,152.688,148.051,150.742,147.043z"/>
	<path style="fill:#5D7486;" d="M180.422,163.421l-0.019-0.019c-1.547-1.526-1.565-4.018-0.038-5.566l50.806-51.521
		c1.527-1.548,4.019-1.565,5.567-0.038l0.019,0.019c1.547,1.526,1.565,4.018,0.038,5.566l-50.806,51.521
		C184.462,164.93,181.97,164.947,180.422,163.421z"/>
	<path style="fill:#5D7486;" d="M203.002,186.128l-0.015-0.022c-1.205-1.809-0.716-4.252,1.093-5.458l60.21-40.129
		c1.809-1.206,4.253-0.716,5.459,1.093l0.015,0.022c1.205,1.809,0.716,4.252-1.093,5.458l-60.21,40.129
		C206.651,188.427,204.207,187.938,203.002,186.128z"/>
	<path style="fill:#5D7486;" d="M111.764,97.022h-0.02c-1.643,0-2.975-1.332-2.975-2.975V10.83c0-1.643,1.332-2.975,2.975-2.975
		h0.02c1.643,0,2.975,1.332,2.975,2.975v83.217C114.74,95.69,113.408,97.022,111.764,97.022z"/>
	<path style="fill:#345065;" d="M117.654,68.66h-11.799c-1.917,0-3.471-1.554-3.471-3.471v-0.023c0-1.917,1.554-3.471,3.471-3.471
		h11.799c1.917,0,3.471,1.554,3.471,3.471v0.023C121.125,67.106,119.571,68.66,117.654,68.66z"/>
	<path style="fill:#345065;" d="M210.178,141.547l-8.565-8.115c-1.392-1.319-1.451-3.516-0.132-4.908l0.016-0.017
		c1.319-1.392,3.516-1.451,4.907-0.132l8.565,8.115c1.392,1.319,1.451,3.516,0.132,4.908l-0.016,0.017
		C213.766,142.806,211.569,142.865,210.178,141.547z"/>
	<path style="fill:#345065;" d="M237.515,114.209l-8.565-8.115c-1.392-1.319-1.451-3.516-0.132-4.908l0.016-0.017
		c1.319-1.392,3.516-1.451,4.907-0.132l8.565,8.115c1.392,1.319,1.451,3.516,0.132,4.908l-0.016,0.017
		C241.104,115.468,238.907,115.528,237.515,114.209z"/>
	<path style="fill:#345065;" d="M200.177,151.547l-8.565-8.115c-1.392-1.319-1.451-3.516-0.132-4.908l0.016-0.017
		c1.319-1.392,3.516-1.451,4.907-0.132l8.565,8.115c1.392,1.319,1.451,3.516,0.132,4.908l-0.016,0.017
		C203.766,152.806,201.569,152.865,200.177,151.547z"/>
	<path style="fill:#345065;" d="M237.173,170.982l-6.905-9.565c-1.122-1.555-0.772-3.725,0.783-4.847l0.019-0.014
		c1.554-1.122,3.724-0.771,4.846,0.783l6.905,9.565c1.122,1.555,0.772,3.725-0.783,4.847l-0.019,0.014
		C240.465,172.887,238.295,172.536,237.173,170.982z"/>
	<path style="fill:#345065;" d="M269.119,149.209l-6.905-9.565c-1.122-1.555-0.772-3.725,0.783-4.847l0.019-0.014
		c1.554-1.122,3.724-0.771,4.846,0.783l6.905,9.565c1.122,1.555,0.772,3.725-0.783,4.847l-0.019,0.014
		C272.411,151.113,270.241,150.763,269.119,149.209z"/>
	<path style="fill:#345065;" d="M225.487,178.947l-6.905-9.565c-1.122-1.555-0.772-3.725,0.783-4.847l0.019-0.014
		c1.554-1.122,3.724-0.771,4.846,0.783l6.905,9.565c1.122,1.555,0.772,3.725-0.783,4.847l-0.019,0.014
		C228.778,180.852,226.609,180.501,225.487,178.947z"/>
	<path style="fill:#345065;" d="M182.135,101.189l-16.391-8.966c-1.695-0.927-2.318-3.053-1.392-4.749l1.225-2.243
		c0.927-1.697,3.055-2.321,4.751-1.393l16.391,8.966c1.695,0.927,2.318,3.053,1.392,4.749l-1.225,2.243
		C185.959,101.493,183.832,102.117,182.135,101.189z"/>
	<path style="fill:#345065;" d="M190.359,87.132l-16.391-8.966c-1.695-0.927-2.318-3.053-1.392-4.749l1.225-2.243
		c0.927-1.697,3.055-2.321,4.751-1.393l16.391,8.966c1.695,0.927,2.318,3.053,1.392,4.749l-1.225,2.243
		C194.183,87.436,192.055,88.06,190.359,87.132z"/>
	<path style="fill:#345065;" d="M214.989,37.996l-16.391-8.966c-1.695-0.927-2.318-3.053-1.392-4.749l1.225-2.243
		c0.927-1.697,3.055-2.321,4.751-1.393l16.391,8.966c1.695,0.927,2.318,3.053,1.392,4.749l-1.225,2.243
		C218.813,38.3,216.685,38.924,214.989,37.996z"/>
	
		<rect x="35.145" y="110.742" transform="matrix(0.7622 0.6473 -0.6473 0.7622 104.8525 9.5882)" style="fill:#5D7486;" width="8.459" height="73.567"/>
	<path style="fill:#345065;" d="M2.186,180.524l10.904,9.26c2.61,2.216,6.521,1.897,8.737-0.713l0.027-0.032
		c2.216-2.61,1.897-6.521-0.713-8.737l-10.904-9.26c-2.61-2.216-6.521-1.897-8.737,0.713l-0.027,0.032
		C-0.742,174.396-0.423,178.308,2.186,180.524z"/>
	<path style="fill:#C63C22;" d="M69.663,122.343c0,0,19.324-13.242,40.244,12.831c30.183,37.619-1.75,141.727,106.733,153.538
		c78.931,8.593,111.545-111.107,43.16-109.212c-57.825,1.603-69.405-18.664-107.899-70.572s-82.237-2.625-82.237-2.625"/>
	<path style="opacity:0.38;fill:#C63C22;" d="M280.39,183.784c9.919,30.477-17.239,81.108-67.108,76.22
		c-81.611-8-68.875-102.102-95.405-136.205c-14.897-19.149-39.433-15.997-48.215-14.11v12.654c0,0,19.324-13.242,40.244,12.831
		c30.183,37.619-1.75,141.728,106.733,153.538C285.952,296.258,319.536,204.887,280.39,183.784z"/>
	<path style="fill:#314B5A;" d="M64.246,128.745h0.044c3.612,0,6.54-2.928,6.54-6.539v-14.042c0-3.612-2.928-6.54-6.54-6.54h-0.044
		c-3.612,0-6.54,2.928-6.54,6.54v14.042C57.707,125.818,60.634,128.745,64.246,128.745z"/>
</g>
<g>
</g>
<g>
</g>
<g>
</g>
<g>
</g>
<g>
</g>
<g>
</g>
<g>
</g>
<g>
</g>
<g>
</g>
<g>
</g>
<g>
</g>
<g>
</g>
<g>
</g>
<g>
</g>
<g>
</g>
</svg>
