<?xml version="1.0" encoding="iso-8859-1"?>
<!-- Generator: Adobe Illustrator 18.0.0, SVG Export Plug-In . SVG Version: 6.00 Build 0)  -->
<!DOCTYPE svg PUBLIC "-//W3C//DTD SVG 1.1//EN" "http://www.w3.org/Graphics/SVG/1.1/DTD/svg11.dtd">
<svg version="1.1" id="Capa_1" xmlns="http://www.w3.org/2000/svg" xmlns:xlink="http://www.w3.org/1999/xlink" x="0px" y="0px"
	 viewBox="0 0 297.001 297.001" style="enable-background:new 0 0 297.001 297.001;" xml:space="preserve">
<g>
	<path style="fill:#F9B65F;" d="M148.5,185.5c-21-19-44-26-72-25c-7.089,0-12.691-3.571-17.941-8.276l-52.471,14.06
		c-6.102,1.635-8.146,9.263-3.679,13.73l114.578,114.578c4.467,4.467,12.095,2.423,13.73-3.679l27.531-102.746
		C154.602,188.48,151.183,187.8,148.5,185.5z"/>
	<path style="opacity:0.3;fill:#F9B65F;" d="M148.5,185.5c-0.04-0.036-0.08-0.07-0.12-0.106l-21.664,80.852
		c-1.635,6.102-9.263,8.146-13.73,3.679L8.657,165.595l-2.569,0.688c-6.102,1.635-8.146,9.263-3.679,13.73l114.578,114.578
		c4.467,4.467,12.095,2.423,13.73-3.679l27.531-102.746C154.602,188.48,151.183,187.8,148.5,185.5z"/>
	<path style="fill:#D8903A;" d="M148.5,185.5c2.683,2.3,6.101,2.979,9.747,2.667l14.408-53.77
		c1.635-6.102-3.949-11.686-10.051-10.051L58.559,152.224c5.251,4.705,10.852,8.276,17.941,8.276
		C104.5,159.5,127.5,166.5,148.5,185.5z"/>
	<path style="fill:#5E4534;" d="M141.224,165.098l-9.322-9.322c-1.883-1.883-1.883-4.935,0-6.817L238.961,41.901
		c1.883-1.883,4.935-1.883,6.817,0l9.322,9.322c1.883,1.883,1.883,4.935,0,6.817L148.041,165.098
		C146.159,166.981,143.106,166.981,141.224,165.098z"/>
	<path style="opacity:0.3;fill:#5E4534;" d="M255.1,51.222l-3.555-3.554c-0.003,0.003-0.005,0.007-0.008,0.01L144.479,154.736
		c-1.883,1.883-4.935,1.883-6.817,0l-5.767-5.767c-1.874,1.883-1.872,4.928,0.008,6.808l9.322,9.322
		c1.883,1.883,4.935,1.883,6.817,0L255.1,58.04C256.983,56.157,256.983,53.105,255.1,51.222z"/>
	<circle style="fill:#5E4534;" cx="115.114" cy="181.886" r="8.814"/>
	<path style="fill:#5E4534;" d="M82.844,204.242l9.914,9.914c1.719,1.719,4.506,1.719,6.225,0h0c1.719-1.719,1.719-4.506,0-6.225
		l-9.914-9.914c-1.719-1.719-4.506-1.719-6.225,0h0C81.125,199.736,81.125,202.523,82.844,204.242z"/>
	<path style="fill:#794C2B;" d="M276.328,1.75c-2.958-2.958-7.95-2.034-9.665,1.781c-3.109,6.917-8.683,16.257-17.301,20.361
		c-7.812,3.72-27.09,15.793-12.45,30.433l5.764,5.764c14.64,14.64,26.713-4.638,30.433-12.45
		c4.104-8.618,13.444-14.193,20.361-17.301c3.815-1.715,4.739-6.707,1.781-9.665L276.328,1.75z"/>
	<path style="opacity:0.3;fill:#794C2B;" d="M295.251,20.673l-3.787-3.787c-0.472,0.446-1.022,0.831-1.661,1.118
		c-6.917,3.109-16.257,8.683-20.361,17.302c-3.72,7.812-15.793,27.09-30.433,12.45l-5.764-5.764c-0.468-0.468-0.9-0.934-1.3-1.396
		c-1.045,4.136,0.022,8.785,4.967,13.73l5.764,5.764c14.64,14.64,26.713-4.638,30.433-12.45
		c4.104-8.618,13.444-14.193,20.361-17.301C297.285,28.623,298.209,23.631,295.251,20.673z"/>
</g>
<g>
</g>
<g>
</g>
<g>
</g>
<g>
</g>
<g>
</g>
<g>
</g>
<g>
</g>
<g>
</g>
<g>
</g>
<g>
</g>
<g>
</g>
<g>
</g>
<g>
</g>
<g>
</g>
<g>
</g>
</svg>
