<?xml version="1.0" encoding="iso-8859-1"?>
<!-- Generator: Adobe Illustrator 18.0.0, SVG Export Plug-In . SVG Version: 6.00 Build 0)  -->
<!DOCTYPE svg PUBLIC "-//W3C//DTD SVG 1.1//EN" "http://www.w3.org/Graphics/SVG/1.1/DTD/svg11.dtd">
<svg version="1.1" id="Capa_1" xmlns="http://www.w3.org/2000/svg" xmlns:xlink="http://www.w3.org/1999/xlink" x="0px" y="0px"
	 viewBox="0 0 297 297" style="enable-background:new 0 0 297 297;" xml:space="preserve">
<g>
	<circle style="fill:#A38671;" cx="78.084" cy="218.916" r="78.084"/>
	<circle style="fill:#F9B65F;" cx="78.084" cy="218.916" r="67.498"/>
	<path style="opacity:0.3;fill:#F9B65F;" d="M141.332,195.35c3.051,20.44-3.284,42.011-19.019,57.746
		c-26.36,26.36-69.097,26.36-95.456,0c-7.082-7.082-12.243-15.352-15.519-24.163c2.06,13.801,8.395,27.086,19.019,37.711
		c26.359,26.36,69.097,26.36,95.456,0C145.09,247.366,150.251,219.335,141.332,195.35z"/>
	<path style="fill:#935733;" d="M127.307,182.104l-12.411-12.411c-1.581-1.581-1.581-4.146,0-5.727L260.864,17.998
		c1.582-1.581,4.146-1.581,5.727,0l12.411,12.411c1.581,1.581,1.581,4.146,0,5.727L133.034,182.104
		C131.453,183.686,128.888,183.686,127.307,182.104z"/>
	<path style="opacity:0.3;fill:#935733;" d="M279.002,30.409l-2.131-2.131L131.034,174.115c-1.582,1.582-4.146,1.582-5.727,0
		l-10.28-10.28l-0.131,0.131c-1.582,1.582-1.582,4.146,0,5.727l12.411,12.411c1.582,1.582,4.146,1.582,5.727,0L279.002,36.136
		C280.583,34.555,280.583,31.991,279.002,30.409z"/>
	<path style="fill:#662621;" d="M255.713,57.801l-16.514-16.514c-2.684-2.684-2.556-7.073,0.279-9.596l33.735-30.021
		c2.611-2.324,6.582-2.208,9.054,0.263l12.8,12.8c2.472,2.472,2.587,6.442,0.263,9.054L265.31,57.522
		C262.787,60.357,258.397,60.485,255.713,57.801z"/>
	<path style="opacity:0.3;fill:#662621;" d="M295.067,14.733l-3.144-3.144c-0.277,0.702-0.673,1.369-1.203,1.964L260.7,47.288
		c-2.523,2.835-6.913,2.963-9.596,0.279l-13.37-13.37c-0.931,2.362-0.461,5.164,1.465,7.089l16.514,16.514
		c2.684,2.684,7.073,2.556,9.596-0.279l30.021-33.734C297.654,21.176,297.539,17.205,295.067,14.733z"/>
	<path style="fill:#935733;" d="M24.269,284.608l-11.877-11.877c-1.581-1.581-1.581-4.146,0-5.727l13.117-13.117
		c1.581-1.581,4.146-1.581,5.727,0l11.877,11.877c1.581,1.581,1.581,4.146,0,5.727l-13.117,13.117
		C28.415,286.19,25.851,286.19,24.269,284.608z"/>
	<path style="opacity:0.3;fill:#935733;" d="M32.291,276.861c-1.581,1.582-4.146,1.582-5.727,0l-11.877-11.877
		c-0.047-0.047-0.079-0.102-0.123-0.151l-2.171,2.171c-1.582,1.582-1.582,4.146,0,5.727l11.877,11.877
		c1.582,1.581,4.146,1.581,5.727,0l13.117-13.117c1.534-1.535,1.567-3.987,0.123-5.576L32.291,276.861z"/>
	<path style="fill:#5E4534;" d="M39.55,228.937l28.513,28.513c1.407,1.407,3.689,1.407,5.096,0l2.639-2.639
		c1.407-1.407,1.407-3.689,0-5.096l-28.513-28.513c-1.407-1.407-3.689-1.407-5.096,0l-2.639,2.639
		C38.143,225.249,38.143,227.53,39.55,228.937z"/>
</g>
<g>
</g>
<g>
</g>
<g>
</g>
<g>
</g>
<g>
</g>
<g>
</g>
<g>
</g>
<g>
</g>
<g>
</g>
<g>
</g>
<g>
</g>
<g>
</g>
<g>
</g>
<g>
</g>
<g>
</g>
</svg>
