<?xml version="1.0" encoding="iso-8859-1"?>
<!-- Generator: Adobe Illustrator 18.0.0, SVG Export Plug-In . SVG Version: 6.00 Build 0)  -->
<!DOCTYPE svg PUBLIC "-//W3C//DTD SVG 1.1//EN" "http://www.w3.org/Graphics/SVG/1.1/DTD/svg11.dtd">
<svg version="1.1" id="Capa_1" xmlns="http://www.w3.org/2000/svg" xmlns:xlink="http://www.w3.org/1999/xlink" x="0px" y="0px"
	 viewBox="0 0 297 297" style="enable-background:new 0 0 297 297;" xml:space="preserve">
<g>
	<circle style="fill:#3DBCE5;" cx="98.181" cy="270.863" r="26.137"/>
	<path style="opacity:0.3;fill:#3DBCE5;" d="M101.789,289.667c-14.435,0-26.137-11.702-26.137-26.136
		c0-2.68,0.405-5.264,1.154-7.698c-2.996,4.252-4.761,9.434-4.761,15.031c0,14.435,11.702,26.137,26.137,26.137
		c11.755,0,21.696-7.761,24.983-18.438C118.434,285.276,110.626,289.667,101.789,289.667z"/>
	<circle style="fill:#5D7486;" cx="149.25" cy="14.841" r="14.841"/>
	<path style="fill:#8FA6B4;" d="M257.186,239.447c-4.608-7.238-7.994-16.182-10.481-25.519H50.296
		c-2.487,9.338-5.873,18.281-10.481,25.519c-4.195,6.588,0.589,15.208,8.4,15.208h200.572
		C256.596,254.655,261.381,246.035,257.186,239.447z"/>
	<path style="opacity:0.31;fill:#5D7486;" d="M257.186,239.447c-4.608-7.238-7.994-16.182-10.481-25.519h-34.48
		c2.204,6.701,4.944,13.002,8.358,18.364c4.195,6.588-0.589,15.208-8.4,15.208h-173.5c1.178,3.972,4.789,7.155,9.532,7.155h200.572
		C256.596,254.655,261.381,246.035,257.186,239.447z"/>
	<path style="fill:#3C5768;" d="M239.865,154.654v-47.018c0-50.404-40.214-92.243-90.615-92.796
		c-50.777-0.557-92.115,40.437-92.115,91.086v48.728c0,0,0.587,31.393-6.84,59.273h196.409
		C239.278,186.047,239.865,154.654,239.865,154.654z"/>
	<path style="opacity:0.31;fill:#3C5768;" d="M118.524,21.323c50.401,0.553,90.615,42.392,90.615,92.796v47.018
		c0,0-2.679,26.747,3.085,52.791h34.48c-7.427-27.88-6.839-59.273-6.839-59.273v-47.018c0-50.404-40.214-92.243-90.615-92.796
		c-12.372-0.136-24.181,2.201-34.972,6.538C115.686,21.33,117.101,21.308,118.524,21.323z"/>
</g>
<g>
</g>
<g>
</g>
<g>
</g>
<g>
</g>
<g>
</g>
<g>
</g>
<g>
</g>
<g>
</g>
<g>
</g>
<g>
</g>
<g>
</g>
<g>
</g>
<g>
</g>
<g>
</g>
<g>
</g>
</svg>
