<?xml version="1.0" encoding="iso-8859-1"?>
<!-- Generator: Adobe Illustrator 18.0.0, SVG Export Plug-In . SVG Version: 6.00 Build 0)  -->
<!DOCTYPE svg PUBLIC "-//W3C//DTD SVG 1.1//EN" "http://www.w3.org/Graphics/SVG/1.1/DTD/svg11.dtd">
<svg version="1.1" id="Capa_1" xmlns="http://www.w3.org/2000/svg" xmlns:xlink="http://www.w3.org/1999/xlink" x="0px" y="0px"
	 viewBox="0 0 297 297" style="enable-background:new 0 0 297 297;" xml:space="preserve">
<g>
	<rect x="36.327" y="11.407" style="fill:#345065;" width="224.346" height="104.741"/>
	<g>
		<path style="fill:#759AAC;" d="M38.83,46.956c-2.634-2.623-2.634-6.896,0-9.53l0,0c2.634-2.634,6.897-2.634,9.531,0l0,0
			c2.634,2.634,2.634,6.907,0,9.53l0,0c-1.318,1.318-3.039,1.981-4.771,1.981l0,0C41.87,48.937,40.148,48.274,38.83,46.956z
			 M54.843,30.945c-2.624-2.634-2.624-6.907,0-9.531l0,0c2.634-2.634,6.907-2.634,9.53,0l0,0c2.634,2.624,2.634,6.897,0,9.531l0,0
			c-1.306,1.317-3.038,1.97-4.76,1.97l0,0C57.891,32.915,56.159,32.262,54.843,30.945z"/>
	</g>
	<g>
		<path style="fill:#759AAC;" d="M230.786,117.797c-2.634-2.623-2.634-6.896,0-9.53l0,0c2.634-2.634,6.897-2.634,9.531,0l0,0
			c2.634,2.634,2.634,6.907,0,9.53l0,0c-1.318,1.318-3.039,1.981-4.76,1.981l0,0C233.824,119.778,232.103,119.115,230.786,117.797z
			 M246.798,101.786c-2.624-2.634-2.624-6.897,0-9.531l0,0c2.634-2.634,6.907-2.634,9.54,0l0,0c2.624,2.634,2.624,6.897,0,9.531l0,0
			c-1.317,1.317-3.048,1.97-4.77,1.97l0,0C249.846,103.756,248.115,103.102,246.798,101.786z"/>
	</g>
	<g>
		<path style="fill:#759AAC;" d="M40.095,77.304c-2.634-2.634-2.634-6.907,0-9.541l0,0c2.634-2.624,6.907-2.624,9.531,0l0,0
			c2.634,2.634,2.634,6.907,0,9.541l0,0c-1.307,1.306-3.039,1.97-4.761,1.97l0,0C43.133,79.273,41.412,78.61,40.095,77.304z
			 M55.547,61.851c-2.634-2.634-2.634-6.907,0-9.541l0,0c2.634-2.624,6.906-2.624,9.53,0l0,0c2.634,2.634,2.634,6.907,0,9.541l0,0
			c-1.317,1.317-3.038,1.971-4.76,1.971l0,0C58.585,63.822,56.864,63.168,55.547,61.851z M70.999,46.399
			c-2.624-2.634-2.624-6.907,0-9.54l0,0c2.634-2.634,6.907-2.634,9.541,0l0,0c2.624,2.633,2.624,6.906,0,9.54l0,0
			c-1.317,1.318-3.049,1.971-4.77,1.971l0,0C74.048,48.37,72.316,47.716,70.999,46.399z M86.451,30.948
			c-2.634-2.634-2.634-6.907,0-9.541l0,0c2.634-2.624,6.907-2.624,9.53,0l0,0c2.634,2.634,2.634,6.907,0,9.541l0,0
			c-1.306,1.317-3.038,1.97-4.76,1.97l0,0C89.499,32.917,87.767,32.264,86.451,30.948z"/>
	</g>
	<g>
		<path style="fill:#759AAC;" d="M238.657,61.911c-2.634,2.633-2.634,6.906,0,9.54c1.318,1.318,3.039,1.971,4.771,1.971
			c1.722,0,3.442-0.653,4.76-1.971c2.634-2.634,2.634-6.907,0-9.54C245.553,59.277,241.291,59.277,238.657,61.911z"/>
		<path style="fill:#759AAC;" d="M223.205,77.363c-2.634,2.634-2.634,6.907,0,9.541c1.317,1.316,3.038,1.971,4.77,1.971
			c1.722,0,3.443-0.654,4.76-1.971c2.634-2.634,2.634-6.907,0-9.541C230.101,74.739,225.84,74.739,223.205,77.363z"/>
		<path style="fill:#759AAC;" d="M207.753,92.815c-2.634,2.634-2.634,6.907,0,9.53c1.318,1.318,3.038,1.981,4.77,1.981
			c1.722,0,3.443-0.663,4.761-1.981c2.634-2.623,2.634-6.896,0-9.53C214.66,90.191,210.387,90.191,207.753,92.815z"/>
		<path style="fill:#759AAC;" d="M254.109,46.459c-2.634,2.634-2.634,6.907,0,9.541c1.317,1.317,3.038,1.97,4.77,1.97
			c0.645,0,1.171-0.092,1.794-0.276V44.768C258.381,44.091,255.92,44.655,254.109,46.459z"/>
	</g>
	<g>
		<path style="fill:#759AAC;" d="M197.072,119.778c-1.773,0-3.515-0.716-4.771-1.971c-1.255-1.265-1.97-2.997-1.97-4.77
			s0.715-3.505,1.97-4.771c1.256-1.255,2.988-1.97,4.771-1.97c1.773,0,3.505,0.715,4.76,1.97s1.981,2.998,1.981,4.771
			s-0.726,3.515-1.981,4.77C200.577,119.062,198.845,119.778,197.072,119.778z"/>
	</g>
	<g>
		<path style="fill:#759AAC;" d="M39.12,117.797c-2.634-2.624-2.634-6.897,0-9.531l0,0c2.634-2.634,6.907-2.634,9.531,0l0,0
			c2.634,2.634,2.634,6.907,0,9.531l0,0c-1.317,1.317-3.038,1.981-4.76,1.981l0,0C42.159,119.778,40.437,119.114,39.12,117.797z
			 M53.597,103.32c-2.633-2.624-2.633-6.897,0-9.531l0,0c2.634-2.623,6.897-2.623,9.531,0l0,0c2.634,2.634,2.634,6.907,0,9.531l0,0
			c-1.317,1.317-3.038,1.981-4.76,1.981l0,0C56.636,105.301,54.914,104.637,53.597,103.32z M68.075,88.853
			c-2.634-2.634-2.634-6.907,0-9.53l0,0c2.633-2.634,6.896-2.634,9.53,0l0,0c2.634,2.623,2.634,6.896,0,9.53l0,0
			c-1.317,1.318-3.038,1.971-4.77,1.971l0,0C71.113,90.824,69.391,90.171,68.075,88.853z M82.552,74.376
			c-2.634-2.634-2.634-6.897,0-9.531l0,0c2.623-2.633,6.896-2.633,9.53,0l0,0c2.634,2.634,2.634,6.897,0,9.531l0,0
			c-1.317,1.318-3.048,1.971-4.77,1.971l0,0C85.59,76.347,83.858,75.694,82.552,74.376z M97.018,59.899
			c-2.623-2.634-2.623-6.897,0-9.531l0,0c2.634-2.634,6.907-2.634,9.541,0l0,0c2.624,2.634,2.624,6.897,0,9.531l0,0
			c-1.317,1.317-3.048,1.971-4.77,1.971l0,0C100.067,61.87,98.335,61.216,97.018,59.899z M111.495,45.422
			c-2.634-2.624-2.634-6.897,0-9.531l0,0c2.634-2.634,6.907-2.634,9.531,0l0,0c2.634,2.634,2.634,6.907,0,9.531l0,0
			c-1.306,1.317-3.038,1.971-4.76,1.971l0,0C114.544,47.393,112.812,46.739,111.495,45.422z M125.972,30.945
			c-2.634-2.634-2.634-6.897,0-9.531l0,0c2.634-2.634,6.907-2.634,9.531,0l0,0c2.634,2.634,2.634,6.897,0,9.531l0,0
			c-1.317,1.317-3.038,1.981-4.76,1.981l0,0C129.011,32.926,127.289,32.262,125.972,30.945z"/>
	</g>
	<g>
		<path style="fill:#759AAC;" d="M77.314,117.797c-2.623-2.624-2.623-6.897,0-9.531l0,0c2.634-2.634,6.907-2.634,9.541,0l0,0
			c2.624,2.634,2.624,6.907,0,9.531l0,0c-1.317,1.317-3.048,1.981-4.77,1.981l0,0C80.363,119.778,78.632,119.114,77.314,117.797z
			 M91.791,103.33c-2.634-2.634-2.634-6.907,0-9.541l0,0c2.634-2.623,6.907-2.623,9.541,0l0,0c2.624,2.634,2.624,6.907,0,9.541l0,0
			c-1.328,1.318-3.048,1.971-4.77,1.971l0,0C94.84,105.301,93.109,104.648,91.791,103.33z M106.268,88.853
			c-2.634-2.634-2.634-6.907,0-9.53l0,0c2.634-2.634,6.907-2.634,9.531,0l0,0c2.634,2.623,2.634,6.896,0,9.53l0,0
			c-1.317,1.318-3.038,1.971-4.76,1.971l0,0C109.307,90.824,107.586,90.171,106.268,88.853z M120.745,74.376
			c-2.633-2.634-2.633-6.897,0-9.531l0,0c2.634-2.633,6.897-2.633,9.531,0l0,0c2.634,2.634,2.634,6.897,0,9.531l0,0
			c-1.317,1.318-3.038,1.971-4.76,1.971l0,0C123.784,76.347,122.063,75.694,120.745,74.376z M135.223,59.899
			c-2.634-2.634-2.634-6.897,0-9.531l0,0c2.623-2.634,6.896-2.634,9.53,0l0,0c2.634,2.634,2.634,6.897,0,9.531l0,0
			c-1.317,1.317-3.038,1.971-4.77,1.971l0,0C138.261,61.87,136.54,61.216,135.223,59.899z M149.7,45.422
			c-2.634-2.624-2.634-6.897,0-9.531l0,0c2.623-2.634,6.896-2.634,9.53,0l0,0c2.634,2.634,2.634,6.907,0,9.531l0,0
			c-1.317,1.317-3.048,1.971-4.77,1.971l0,0C152.738,47.393,151.007,46.739,149.7,45.422z M164.177,30.945
			c-2.634-2.634-2.634-6.897,0-9.531l0,0c2.623-2.634,6.896-2.634,9.53,0l0,0c2.624,2.634,2.624,6.897,0,9.531l0,0
			c-1.317,1.317-3.048,1.981-4.77,1.981l0,0C167.215,32.926,165.484,32.262,164.177,30.945z"/>
	</g>
	<g>
		<path style="fill:#759AAC;" d="M113.872,117.797c-2.634-2.624-2.634-6.897,0-9.531l0,0c2.634-2.634,6.907-2.634,9.541,0l0,0
			c2.634,2.634,2.634,6.907,0,9.531l0,0c-1.317,1.317-3.048,1.981-4.77,1.981l0,0C116.921,119.778,115.19,119.114,113.872,117.797z
			 M128.349,103.32c-2.634-2.624-2.634-6.897,0-9.531l0,0c2.634-2.623,6.907-2.623,9.541,0l0,0c2.624,2.634,2.624,6.907,0,9.531l0,0
			c-1.317,1.317-3.048,1.981-4.77,1.981l0,0C131.398,105.301,129.667,104.637,128.349,103.32z M142.826,88.853
			c-2.634-2.634-2.634-6.907,0-9.53l0,0c2.634-2.634,6.907-2.634,9.531,0l0,0c2.634,2.623,2.634,6.896,0,9.53l0,0
			c-1.317,1.318-3.038,1.971-4.76,1.971l0,0C145.865,90.824,144.144,90.171,142.826,88.853z M157.303,74.376
			c-2.633-2.634-2.633-6.897,0-9.531l0,0c2.634-2.633,6.897-2.633,9.531,0l0,0c2.634,2.634,2.634,6.897,0,9.531l0,0
			c-1.317,1.318-3.038,1.971-4.77,1.971l0,0C160.342,76.347,158.621,75.694,157.303,74.376z M171.781,59.899
			c-2.634-2.634-2.634-6.897,0-9.531l0,0c2.633-2.634,6.896-2.634,9.53,0l0,0c2.634,2.634,2.634,6.897,0,9.531l0,0
			c-1.317,1.317-3.038,1.971-4.77,1.971l0,0C174.819,61.87,173.098,61.216,171.781,59.899z M186.258,45.422
			c-2.634-2.624-2.634-6.897,0-9.531l0,0c2.623-2.634,6.896-2.634,9.53,0l0,0c2.634,2.634,2.634,6.907,0,9.531l0,0
			c-1.317,1.317-3.038,1.971-4.77,1.971l0,0C189.297,47.393,187.565,46.739,186.258,45.422z M200.735,30.945
			c-2.634-2.634-2.634-6.897,0-9.531l0,0c2.623-2.634,6.896-2.634,9.53,0l0,0c2.624,2.634,2.624,6.897,0,9.531l0,0
			c-1.317,1.317-3.038,1.981-4.77,1.981l0,0C203.774,32.926,202.052,32.262,200.735,30.945z"/>
	</g>
	<g>
		<path style="fill:#759AAC;" d="M154.752,117.797c-2.634-2.624-2.634-6.897,0-9.531l0,0c2.634-2.634,6.897-2.634,9.531,0l0,0
			c2.634,2.634,2.634,6.907,0,9.531l0,0c-1.317,1.317-3.038,1.981-4.76,1.981l0,0C157.791,119.778,156.07,119.114,154.752,117.797z
			 M169.229,103.32c-2.633-2.624-2.633-6.897,0-9.531l0,0c2.634-2.623,6.897-2.623,9.531,0l0,0c2.634,2.634,2.634,6.907,0,9.531l0,0
			c-1.317,1.317-3.038,1.981-4.77,1.981l0,0C172.269,105.301,170.547,104.637,169.229,103.32z M183.707,88.853
			c-2.634-2.634-2.634-6.907,0-9.53l0,0c2.633-2.634,6.896-2.634,9.53,0l0,0c2.634,2.623,2.634,6.896,0,9.53l0,0
			c-1.317,1.318-3.038,1.971-4.77,1.971l0,0C186.746,90.824,185.024,90.171,183.707,88.853z M198.184,74.376
			c-2.634-2.634-2.634-6.897,0-9.531l0,0c2.623-2.633,6.896-2.633,9.53,0l0,0c2.624,2.634,2.624,6.897,0,9.531l0,0
			c-1.317,1.318-3.038,1.971-4.77,1.971l0,0C201.223,76.347,199.501,75.694,198.184,74.376z M212.65,59.899
			c-2.623-2.634-2.623-6.897,0-9.531l0,0c2.634-2.634,6.907-2.634,9.541,0l0,0c2.634,2.634,2.634,6.897,0,9.531l0,0
			c-1.317,1.317-3.048,1.971-4.77,1.971l0,0C215.7,61.87,213.968,61.216,212.65,59.899z M227.127,45.422
			c-2.634-2.624-2.634-6.897,0-9.531l0,0c2.634-2.634,6.907-2.634,9.541,0l0,0c2.624,2.634,2.624,6.907,0,9.531l0,0
			c-1.317,1.317-3.048,1.971-4.77,1.971l0,0C230.167,47.393,228.445,46.739,227.127,45.422z M241.604,30.945
			c-2.634-2.634-2.634-6.897,0-9.531l0,0c2.634-2.634,6.907-2.634,9.531,0l0,0c2.634,2.634,2.634,6.897,0,9.531l0,0
			c-1.317,1.317-3.038,1.981-4.76,1.981l0,0C244.644,32.926,242.922,32.262,241.604,30.945z"/>
	</g>
	<path style="fill:#5E4534;" d="M36.413,14.519h224.174c3.866,0,7-3.134,7-7V7c0-3.866-3.134-7-7-7L36.413,0c-3.866,0-7,3.134-7,7
		v0.519C29.413,11.385,32.547,14.519,36.413,14.519z"/>
	<path style="fill:#794C2B;" d="M157.878,295.424L157.878,295.424c-6.076,2.101-12.681,2.101-18.757,0h0
		c-12.18-4.212-20.058-16.029-19.262-28.892l9.023-145.717h39.234l9.023,145.717C177.936,279.395,170.059,291.212,157.878,295.424z"
		/>
	<path style="opacity:0.3;fill:#794C2B;" d="M177.14,266.532l-9.023-145.717h-14.982l8.62,139.217
		c0.797,12.864-7.081,24.68-19.261,28.892h0c-3.992,1.381-8.211,1.835-12.36,1.402c2.613,2.18,5.628,3.937,8.987,5.098
		c6.076,2.101,12.681,2.101,18.757,0C170.059,291.212,177.936,279.396,177.14,266.532z"/>
	<path style="fill:#5E4534;" d="M36.413,128.074h224.174c3.866,0,7-3.134,7-7v-0.519c0-3.866-3.134-7-7-7H36.413
		c-3.866,0-7,3.134-7,7v0.519C29.413,124.94,32.547,128.074,36.413,128.074z"/>
</g>
<g>
</g>
<g>
</g>
<g>
</g>
<g>
</g>
<g>
</g>
<g>
</g>
<g>
</g>
<g>
</g>
<g>
</g>
<g>
</g>
<g>
</g>
<g>
</g>
<g>
</g>
<g>
</g>
<g>
</g>
</svg>
