<?xml version="1.0" encoding="iso-8859-1"?>
<!-- Generator: Adobe Illustrator 18.0.0, SVG Export Plug-In . SVG Version: 6.00 Build 0)  -->
<!DOCTYPE svg PUBLIC "-//W3C//DTD SVG 1.1//EN" "http://www.w3.org/Graphics/SVG/1.1/DTD/svg11.dtd">
<svg version="1.1" id="Capa_1" xmlns="http://www.w3.org/2000/svg" xmlns:xlink="http://www.w3.org/1999/xlink" x="0px" y="0px"
	 viewBox="0 0 297 297" style="enable-background:new 0 0 297 297;" xml:space="preserve">
<g>
	<path style="fill:#B1B2B2;" d="M203.973,81.598L1.526,284.045c-3.137,3.137-1.14,8.51,3.284,8.836l13.434,0.99
		c1.504,0.111,2.975-0.433,4.041-1.499c17.101-17.101,168.625-168.625,196.23-196.23c20.168-20.168,53.232-26.619,71.98-28.684
		l-57.84-57.84C230.592,28.366,224.141,61.43,203.973,81.598z"/>
	<path style="opacity:0.3;fill:#B6B7B7;" d="M8.618,288.574L211.065,86.126c19.371-19.371,26.085-50.632,28.415-69.685l-6.823-6.823
		c-2.065,18.748-8.516,51.812-28.683,71.979L1.526,284.045c-3.137,3.137-1.14,8.51,3.284,8.836l2.363,0.174
		C6.921,291.519,7.332,289.86,8.618,288.574z"/>
	<path style="fill:#C0C2C4;" d="M232.776,8.52c-0.037,0.357-0.079,0.73-0.12,1.099l57.84,57.84c0.368-0.041,0.742-0.083,1.099-0.12
		c5.05-0.527,7.217-6.678,3.626-10.268L243.045,4.893C239.454,1.303,233.303,3.469,232.776,8.52z"/>
	<path style="fill:#5D7486;" d="M34.25,286.01l-11.463-11.463l-5.988,5.989l11.463,11.463c1.367,1.367,3.583,1.367,4.95,0
		l1.039-1.039C35.617,289.592,35.617,287.376,34.25,286.01z"/>
	<path style="fill:#405A66;" d="M14.106,265.865c-1.367-1.367-3.583-1.367-4.95,0l-1.039,1.039c-1.367,1.367-1.367,3.583,0,4.95
		l8.682,8.682l5.988-5.989L14.106,265.865z"/>
	<path style="fill:#405A66;" d="M209.371,70.599c-1.367-1.367-3.583-1.367-4.95,0l-1.039,1.039c-1.367,1.367-1.367,3.583,0,4.95
		l8.307,8.307l5.988-5.988L209.371,70.599z"/>
	<path style="fill:#5D7486;" d="M229.516,90.744l-11.838-11.838l-5.988,5.988l11.838,11.838c1.367,1.367,3.583,1.367,4.95,0
		l1.039-1.039C230.883,94.326,230.883,92.11,229.516,90.744z"/>
	<path style="fill:#5D7486;" d="M59.574,255.156l-5.988,5.988l-18.449-18.449c-1.367-1.367-1.367-3.583,0-4.95l1.039-1.039
		c1.367-1.367,3.583-1.367,4.95,0L59.574,255.156z"/>
	<path style="fill:#5D7486;" d="M73.741,240.989l-5.988,5.988l-18.449-18.449c-1.367-1.367-1.367-3.583,0-4.95l1.039-1.039
		c1.367-1.367,3.583-1.367,4.95,0L73.741,240.989z"/>
	<path style="fill:#5D7486;" d="M87.907,226.822l-5.988,5.988L63.47,214.362c-1.367-1.367-1.367-3.583,0-4.95l1.039-1.039
		c1.367-1.367,3.583-1.367,4.95,0L87.907,226.822z"/>
	<path style="fill:#5D7486;" d="M116.241,198.488l-5.988,5.988l-18.449-18.449c-1.367-1.367-1.367-3.583,0-4.95l1.039-1.039
		c1.367-1.367,3.583-1.367,4.95,0L116.241,198.488z"/>
	<path style="fill:#5D7486;" d="M130.408,184.321l-5.988,5.988l-18.449-18.449c-1.367-1.367-1.367-3.583,0-4.95l1.039-1.039
		c1.367-1.367,3.583-1.367,4.95,0L130.408,184.321z"/>
	<path style="fill:#5D7486;" d="M102.074,212.655l-5.988,5.988l-18.449-18.449c-1.367-1.367-1.367-3.583,0-4.95l1.039-1.039
		c1.367-1.367,3.583-1.367,4.95,0L102.074,212.655z"/>
	<path style="fill:#5D7486;" d="M198.214,116.515l-5.988,5.988l-18.449-18.449c-1.367-1.367-1.367-3.583,0-4.95l1.039-1.039
		c1.367-1.367,3.583-1.367,4.95,0L198.214,116.515z"/>
	<path style="fill:#5D7486;" d="M212.381,102.348l-5.988,5.988l-18.449-18.449c-1.367-1.367-1.367-3.583,0-4.95l1.039-1.039
		c1.367-1.367,3.583-1.367,4.95,0L212.381,102.348z"/>
	<path style="fill:#5D7486;" d="M184.047,130.682l-5.988,5.988l-18.449-18.449c-1.367-1.367-1.367-3.583,0-4.95l1.039-1.039
		c1.367-1.367,3.583-1.367,4.95,0L184.047,130.682z"/>
	<path style="opacity:0.28;fill:#5D7486;" d="M59.573,255.156l-5.988,5.988l-6.294-6.294c-1.367-1.367-1.367-3.583,0-4.95
		l1.039-1.039c1.367-1.367,3.583-1.367,4.95,0L59.573,255.156z"/>
	<path style="opacity:0.28;fill:#5D7486;" d="M73.74,240.989l-5.988,5.988l-6.294-6.294c-1.367-1.367-1.367-3.583,0-4.95
		l1.039-1.039c1.367-1.367,3.583-1.367,4.95,0L73.74,240.989z"/>
	<path style="opacity:0.28;fill:#5D7486;" d="M87.907,226.822l-5.988,5.988l-6.294-6.294c-1.367-1.367-1.367-3.583,0-4.95
		l1.039-1.039c1.367-1.367,3.583-1.367,4.95,0L87.907,226.822z"/>
	<path style="opacity:0.28;fill:#5D7486;" d="M116.241,198.489l-5.988,5.988l-6.294-6.294c-1.367-1.367-1.367-3.583,0-4.95
		l1.039-1.039c1.367-1.367,3.583-1.367,4.95,0L116.241,198.489z"/>
	<path style="opacity:0.28;fill:#5D7486;" d="M130.408,184.322l-5.988,5.988l-6.294-6.294c-1.367-1.367-1.367-3.583,0-4.95
		l1.039-1.039c1.367-1.367,3.583-1.367,4.95,0L130.408,184.322z"/>
	<path style="opacity:0.28;fill:#5D7486;" d="M102.074,212.655l-5.988,5.988l-6.294-6.294c-1.367-1.367-1.367-3.583,0-4.95
		l1.039-1.039c1.367-1.367,3.583-1.367,4.95,0L102.074,212.655z"/>
	<path style="opacity:0.28;fill:#5D7486;" d="M198.215,116.516l-5.988,5.988l-6.294-6.294c-1.367-1.367-1.367-3.583,0-4.95
		l1.039-1.039c1.367-1.367,3.583-1.367,4.95,0L198.215,116.516z"/>
	<path style="opacity:0.28;fill:#5D7486;" d="M212.382,102.349l-5.988,5.988l-6.294-6.294c-1.367-1.367-1.367-3.583,0-4.95
		l1.039-1.039c1.367-1.367,3.583-1.367,4.95,0L212.382,102.349z"/>
	<path style="opacity:0.28;fill:#5D7486;" d="M184.048,130.683l-5.988,5.988l-6.294-6.294c-1.367-1.367-1.367-3.583,0-4.95
		l1.039-1.039c1.367-1.367,3.583-1.367,4.95,0L184.048,130.683z"/>
	<g style="opacity:0.63;">
		<path style="fill:#FFFFFF;" d="M233.548,67.051c-0.748,0.937-2.083,1.233-3.174,0.641c-1.226-0.664-1.68-2.196-1.016-3.422
			c11.13-20.535,13.578-31.187,13.602-31.292c0.302-1.36,1.652-2.218,3.012-1.915c1.361,0.303,2.218,1.652,1.915,3.012
			c-0.102,0.458-2.628,11.451-14.091,32.6C233.723,66.81,233.64,66.935,233.548,67.051z"/>
	</g>
</g>
<g>
</g>
<g>
</g>
<g>
</g>
<g>
</g>
<g>
</g>
<g>
</g>
<g>
</g>
<g>
</g>
<g>
</g>
<g>
</g>
<g>
</g>
<g>
</g>
<g>
</g>
<g>
</g>
<g>
</g>
</svg>
