<?xml version="1.0" encoding="iso-8859-1"?>
<!-- Generator: Adobe Illustrator 18.0.0, SVG Export Plug-In . SVG Version: 6.00 Build 0)  -->
<!DOCTYPE svg PUBLIC "-//W3C//DTD SVG 1.1//EN" "http://www.w3.org/Graphics/SVG/1.1/DTD/svg11.dtd">
<svg version="1.1" id="Capa_1" xmlns="http://www.w3.org/2000/svg" xmlns:xlink="http://www.w3.org/1999/xlink" x="0px" y="0px"
	 viewBox="0 0 297 297" style="enable-background:new 0 0 297 297;" xml:space="preserve">
<g>
	<g>
		<path style="fill:#704220;" d="M124.653,45.913h-113.4C4.144,70.972,0,55.709,0,88.012c0,65.464,17.004,146.971,41.267,183.953
			h53.372c24.263-36.982,41.267-118.49,41.267-183.953C135.906,55.709,131.762,70.972,124.653,45.913z"/>
	</g>
	<g>
		<path style="fill:#894D2F;" d="M111.521,45.913H24.385c-5.463,25.059-8.646,9.797-8.646,42.099
			c0,65.464,13.065,146.971,31.709,183.953h41.01c18.644-36.982,31.709-118.49,31.709-183.953
			C120.167,55.709,116.983,70.972,111.521,45.913z"/>
	</g>
	<g>
		<path style="fill:#704220;" d="M285.747,45.913h-113.4c-7.109,25.059-11.253,9.797-11.253,42.099
			c0,65.464,17.004,146.971,41.267,183.953h53.372C279.996,234.983,297,153.475,297,88.012
			C297,55.709,292.856,70.972,285.747,45.913z"/>
	</g>
	<g>
		<path style="fill:#894D2F;" d="M272.615,45.913h-87.135c-5.463,25.059-8.646,9.797-8.646,42.099
			c0,65.464,13.065,146.971,31.709,183.953h41.01c18.644-36.982,31.709-118.49,31.709-183.953
			C281.261,55.709,278.077,70.972,272.615,45.913z"/>
	</g>
	<path style="fill:#F9B65F;" d="M119.303,32.929h-102.7c-1.588,0-2.875-1.287-2.875-2.875V27.91c0-1.588,1.287-2.875,2.875-2.875
		h102.7c1.588,0,2.875,1.287,2.875,2.875v2.144C122.178,31.641,120.891,32.929,119.303,32.929z"/>
	<path style="fill:#F86E51;" d="M128.096,46.432H7.81c-2.316,0-3.973-2.238-3.298-4.454l2.331-7.642
		c0.443-1.451,1.781-2.442,3.298-2.442h115.623c1.517,0,2.855,0.991,3.298,2.442l2.331,7.642
		C132.069,44.193,130.412,46.432,128.096,46.432z"/>
	<path style="fill:#F9B65F;" d="M102.158,110.453V46.431h-5.491v64.022c-2.474,1.065-4.207,3.523-4.207,6.387
		c0,3.84,3.113,6.953,6.953,6.953c3.84,0,6.953-3.113,6.953-6.953C106.365,113.976,104.632,111.518,102.158,110.453z"/>
	<path style="fill:#F9B65F;" d="M39.238,110.453V46.431h-5.491v64.022c-2.474,1.065-4.206,3.523-4.206,6.387
		c0,3.84,3.113,6.953,6.952,6.953c3.84,0,6.953-3.113,6.953-6.953C43.446,113.976,41.712,111.518,39.238,110.453z"/>
	<path style="fill:#F9B65F;" d="M280.397,32.929h-102.7c-1.588,0-2.875-1.287-2.875-2.875V27.91c0-1.588,1.287-2.875,2.875-2.875
		h102.7c1.588,0,2.875,1.287,2.875,2.875v2.144C283.272,31.641,281.985,32.929,280.397,32.929z"/>
	<path style="fill:#F86E51;" d="M289.19,46.432H168.904c-2.316,0-3.973-2.238-3.298-4.454l2.331-7.642
		c0.443-1.451,1.781-2.442,3.298-2.442h115.623c1.517,0,2.855,0.991,3.298,2.442l2.331,7.642
		C293.163,44.193,291.506,46.432,289.19,46.432z"/>
	<path style="opacity:0.39;fill:#F86E51;" d="M131.393,41.978l-2.331-7.642c-0.443-1.451-1.781-2.442-3.298-2.442h-16
		c1.517,0,2.855,0.991,3.298,2.442l2.331,7.642c0.676,2.215-0.981,4.454-3.297,4.454h16
		C130.412,46.432,132.069,44.193,131.393,41.978z"/>
	<path style="opacity:0.39;fill:#F86E51;" d="M292.487,41.978l-2.331-7.642c-0.442-1.451-1.781-2.442-3.297-2.442h-16
		c1.516,0,2.855,0.991,3.297,2.442l2.331,7.642c0.676,2.215-0.981,4.454-3.298,4.454h16
		C291.506,46.432,293.163,44.193,292.487,41.978z"/>
	<path style="fill:#F9B65F;" d="M263.252,110.453V46.431h-5.491v64.022c-2.474,1.065-4.207,3.523-4.207,6.387
		c0,3.84,3.113,6.953,6.953,6.953c3.84,0,6.952-3.113,6.952-6.953C267.459,113.976,265.726,111.518,263.252,110.453z"/>
	<path style="fill:#F9B65F;" d="M200.333,110.453V46.431h-5.491v64.022c-2.474,1.065-4.207,3.523-4.207,6.387
		c0,3.84,3.113,6.953,6.953,6.953c3.84,0,6.953-3.113,6.953-6.953C204.54,113.976,202.807,111.518,200.333,110.453z"/>
</g>
<g>
</g>
<g>
</g>
<g>
</g>
<g>
</g>
<g>
</g>
<g>
</g>
<g>
</g>
<g>
</g>
<g>
</g>
<g>
</g>
<g>
</g>
<g>
</g>
<g>
</g>
<g>
</g>
<g>
</g>
</svg>
