<?xml version="1.0" encoding="iso-8859-1"?>
<!-- Generator: Adobe Illustrator 18.0.0, SVG Export Plug-In . SVG Version: 6.00 Build 0)  -->
<!DOCTYPE svg PUBLIC "-//W3C//DTD SVG 1.1//EN" "http://www.w3.org/Graphics/SVG/1.1/DTD/svg11.dtd">
<svg version="1.1" id="Capa_1" xmlns="http://www.w3.org/2000/svg" xmlns:xlink="http://www.w3.org/1999/xlink" x="0px" y="0px"
	 viewBox="0 0 297.001 297.001" style="enable-background:new 0 0 297.001 297.001;" xml:space="preserve">
<g>
	<path style="fill:#AEC1CF;" d="M206.546,146.216v-5.004h-54.543V92.174h32.707V82.166h-72.42v10.008h32.707v49.038H90.455v5.004
		h54.543V247.7l-43.323,43.323c-1.367,1.367-1.367,3.583,0,4.95l0.004,0.004c1.367,1.367,3.583,1.367,4.95,0l38.369-38.369V293.5
		c0,1.933,1.567,3.5,3.5,3.5h0.005c1.933,0,3.5-1.567,3.5-3.5v-35.893l38.369,38.369c1.367,1.367,3.583,1.367,4.95,0l0.004-0.004
		c1.367-1.367,1.367-3.583,0-4.95L152.003,247.7V146.216H206.546z"/>
	<path style="fill:#C63C22;" d="M112.291,32.201H7.529c-0.445,3.142-0.838,6.345-1.194,9.585h107.15
		C113.129,38.545,112.736,35.342,112.291,32.201z"/>
	<path style="fill:#F9B65F;" d="M115.475,78.629c0-12.761-0.7-25.107-1.99-36.844H6.335c-1.29,11.736-1.99,24.082-1.99,36.844
		c0,47.908,9.692,90.148,24.438,115.138c2.273,3.851,6.447,6.176,10.919,6.176h40.416c4.472,0,8.647-2.325,10.919-6.176
		C105.783,168.778,115.475,126.538,115.475,78.629z"/>
	<path style="opacity:0.6;fill:#F9B65F;" d="M56.368,187.326c-4.472,0-8.647-2.325-10.919-6.176
		c-14.746-24.99-24.438-67.23-24.438-115.138c0-8.269,0.298-16.359,0.856-24.227H6.335c-1.29,11.736-1.99,24.082-1.99,36.844
		c0,47.908,9.692,90.148,24.438,115.138c2.273,3.851,6.447,6.176,10.919,6.176h40.416c4.472,0,8.647-2.325,10.919-6.176
		c1.199-2.031,2.36-4.188,3.489-6.441H56.368z"/>
	<path style="fill:#794C2B;" d="M108.579,11.53H11.241c-1.453,6.581-2.694,13.493-3.712,20.671h104.761
		C111.273,25.023,110.032,18.111,108.579,11.53z"/>
	<path style="opacity:0.3;fill:#794C2B;" d="M11.241,11.53c-1.453,6.581-2.694,13.493-3.712,20.671h15.837
		c1.017-7.177,2.259-14.09,3.712-20.671H11.241z"/>
	<path style="fill:#F86E51;" d="M11.688,11.53h96.443c2.525,0,4.572-2.047,4.572-4.572V4.572c0-2.525-2.047-4.572-4.572-4.572
		L11.688,0C9.163,0,7.116,2.047,7.116,4.572v2.385C7.116,9.483,9.163,11.53,11.688,11.53z"/>
	<path style="opacity:0.3;fill:#F86E51;" d="M22.54,6.957V4.572C22.54,2.047,24.587,0,27.112,0H11.688
		C9.163,0,7.116,2.047,7.116,4.572v2.385c0,2.525,2.047,4.573,4.572,4.573h15.424C24.587,11.53,22.54,9.483,22.54,6.957z"/>
	<path style="fill:#C63C22;" d="M289.472,32.201H184.711c-0.445,3.142-0.838,6.345-1.194,9.585h107.15
		C290.31,38.545,289.917,35.342,289.472,32.201z"/>
	<path style="fill:#F9B65F;" d="M292.656,78.629c0-12.761-0.7-25.107-1.99-36.844h-107.15c-1.29,11.736-1.99,24.082-1.99,36.844
		c0,47.908,9.692,90.148,24.438,115.138c2.273,3.851,6.447,6.176,10.919,6.176h40.416c4.472,0,8.647-2.325,10.919-6.176
		C282.964,168.778,292.656,126.538,292.656,78.629z"/>
	<path style="opacity:0.6;fill:#F9B65F;" d="M290.666,41.786h-18.2c0.558,7.867,0.856,15.958,0.856,24.227
		c0,47.908-9.692,90.148-24.438,115.138c-2.272,3.851-6.447,6.176-10.919,6.176h-35.491c1.129,2.253,2.291,4.41,3.489,6.441
		c2.273,3.851,6.447,6.176,10.919,6.176h40.416c4.472,0,8.647-2.325,10.919-6.176c14.745-24.99,24.438-67.23,24.438-115.138
		C292.656,65.868,291.956,53.522,290.666,41.786z"/>
	<path style="fill:#794C2B;" d="M285.76,11.53h-97.338c-1.453,6.581-2.694,13.493-3.712,20.671h104.761
		C288.455,25.023,287.213,18.111,285.76,11.53z"/>
	<path style="opacity:0.3;fill:#794C2B;" d="M285.76,11.53h-18.333c1.453,6.581,2.695,13.493,3.712,20.671h18.333
		C288.455,25.023,287.213,18.111,285.76,11.53z"/>
	<path style="fill:#F86E51;" d="M188.87,11.53h96.443c2.525,0,4.572-2.047,4.572-4.572V4.572c0-2.525-2.047-4.572-4.572-4.572
		L188.87,0c-2.525,0-4.572,2.047-4.572,4.572v2.385C184.297,9.483,186.344,11.53,188.87,11.53z"/>
	<path style="opacity:0.3;fill:#F86E51;" d="M285.313,0h-19.667c2.525,0,4.573,2.047,4.573,4.572v2.385
		c0,2.525-2.047,4.573-4.573,4.573h19.667c2.525,0,4.572-2.047,4.572-4.573V4.572C289.885,2.047,287.838,0,285.313,0z"/>
</g>
<g>
</g>
<g>
</g>
<g>
</g>
<g>
</g>
<g>
</g>
<g>
</g>
<g>
</g>
<g>
</g>
<g>
</g>
<g>
</g>
<g>
</g>
<g>
</g>
<g>
</g>
<g>
</g>
<g>
</g>
</svg>
