<?xml version="1.0" encoding="iso-8859-1"?>
<!-- Generator: Adobe Illustrator 18.0.0, SVG Export Plug-In . SVG Version: 6.00 Build 0)  -->
<!DOCTYPE svg PUBLIC "-//W3C//DTD SVG 1.1//EN" "http://www.w3.org/Graphics/SVG/1.1/DTD/svg11.dtd">
<svg version="1.1" id="Capa_1" xmlns="http://www.w3.org/2000/svg" xmlns:xlink="http://www.w3.org/1999/xlink" x="0px" y="0px"
	 viewBox="0 0 297.039 297.039" style="enable-background:new 0 0 297.039 297.039;" xml:space="preserve">
<g>
	<path style="fill:#AEC1CF;" d="M196.641,290.93l-44.526-44.526V13.259c0-1.933-1.567-3.5-3.5-3.5h-0.19c-1.933,0-3.5,1.567-3.5,3.5
		v233.145l-44.526,44.526c-1.367,1.367-1.367,3.583,0,4.95l0.134,0.134c1.367,1.367,3.583,1.367,4.95,0l39.443-39.443V293.5
		c0,1.933,1.567,3.5,3.5,3.5h0.19c1.933,0,3.5-1.567,3.5-3.5v-36.928l39.443,39.443c1.367,1.367,3.583,1.367,4.95,0l0.134-0.134
		C198.008,294.513,198.008,292.297,196.641,290.93z"/>
	<path style="fill:#FFCF6D;" d="M245.506,44.459L245.506,44.459c0-1.121-0.944-2.01-2.062-1.932
		c-5.644,0.394-22.534,0.34-46.432-10.712c-29.635-13.706-35.852-13.706-48.493-13.706c-12.641,0-18.859,0-48.493,13.707
		C76.129,42.869,59.239,42.923,53.595,42.53c-1.118-0.078-2.062,0.811-2.062,1.932v0c0,1.069,0.867,1.936,1.936,1.936l190.1-0.002
		C244.639,46.396,245.506,45.529,245.506,44.459z"/>
	<path style="opacity:0.6;fill:#FFCF6D;" d="M243.445,42.527c-5.644,0.394-22.534,0.34-46.432-10.712
		c-29.635-13.706-35.852-13.706-48.493-13.706c-12.641,0-18.859,0-48.493,13.707C76.129,42.869,59.239,42.923,53.595,42.53
		c-1.118-0.078-2.062,0.811-2.062,1.932c0,1.069,0.867,1.936,1.936,1.936h17.985c5.947-1.627,12.697-3.999,20.125-7.435
		c29.634-13.707,35.852-13.707,48.493-13.707c12.641,0,18.859,0,48.493,13.706c7.428,3.436,14.179,5.807,20.125,7.434l34.879,0
		c1.069,0,1.936-0.867,1.936-1.936C245.506,43.339,244.562,42.45,243.445,42.527z"/>
	<path style="fill:#FFCF6D;" d="M51.533,55.483L51.533,55.483c0,1.121,0.944,2.01,2.062,1.932
		c5.644-0.394,22.534-0.34,46.432,10.712c29.635,13.706,35.852,13.706,48.493,13.705c12.641,0,18.859,0,48.493-13.707
		c23.898-11.053,40.788-11.107,46.432-10.713c1.118,0.078,2.062-0.811,2.062-1.932v0c0-1.069-0.867-1.936-1.936-1.936L53.469,53.546
		C52.4,53.546,51.533,54.413,51.533,55.483z"/>
	<path style="opacity:0.6;fill:#FFCF6D;" d="M243.57,53.544l-40.099,0c-5.947,1.627-12.696,3.999-20.124,7.434
		c-29.634,13.706-35.852,13.706-48.493,13.707c-12.641,0-18.859,0-48.493-13.706c-7.428-3.435-14.178-5.807-20.124-7.434l-12.766,0
		c-1.069,0-1.936,0.867-1.936,1.936c0,1.12,0.944,2.01,2.062,1.932c5.644-0.394,22.534-0.34,46.432,10.712
		c29.635,13.706,35.852,13.706,48.493,13.705c12.641,0,18.859,0,48.493-13.707c23.898-11.053,40.788-11.107,46.432-10.713
		c1.118,0.078,2.062-0.811,2.062-1.932C245.506,54.411,244.639,53.544,243.57,53.544z"/>
	<circle style="fill:#FFCF6D;" cx="148.52" cy="6.678" r="6.678"/>
</g>
<g>
</g>
<g>
</g>
<g>
</g>
<g>
</g>
<g>
</g>
<g>
</g>
<g>
</g>
<g>
</g>
<g>
</g>
<g>
</g>
<g>
</g>
<g>
</g>
<g>
</g>
<g>
</g>
<g>
</g>
</svg>
