<?xml version="1.0" encoding="iso-8859-1"?>
<!-- Generator: Adobe Illustrator 18.0.0, SVG Export Plug-In . SVG Version: 6.00 Build 0)  -->
<!DOCTYPE svg PUBLIC "-//W3C//DTD SVG 1.1//EN" "http://www.w3.org/Graphics/SVG/1.1/DTD/svg11.dtd">
<svg version="1.1" id="Capa_1" xmlns="http://www.w3.org/2000/svg" xmlns:xlink="http://www.w3.org/1999/xlink" x="0px" y="0px"
	 viewBox="0 0 297 297" style="enable-background:new 0 0 297 297;" xml:space="preserve">
<g>
	<rect x="45.652" y="6.297" style="fill:#2D98AA;" width="118.241" height="284.406"/>
	<rect x="45.652" y="50" style="fill:#3DBCE5;" width="118.241" height="197"/>
	<path style="fill:#3C5768;" d="M40.585,297h-9.807c-2.992,0-5.417-2.425-5.417-5.417V5.417C25.362,2.425,27.787,0,30.779,0h9.807
		c2.992,0,5.417,2.425,5.417,5.417v286.167C46.002,294.575,43.577,297,40.585,297z"/>
	<path style="fill:#3C5768;" d="M179.116,297h-9.807c-2.992,0-5.417-2.425-5.417-5.417V5.417c0-2.992,2.425-5.417,5.417-5.417h9.807
		c2.992,0,5.417,2.425,5.417,5.417v286.167C184.532,294.575,182.107,297,179.116,297z"/>
	
		<rect x="101.099" y="3.125" transform="matrix(0.5403 0.8414 -0.8414 0.5403 89.9061 -64.7819)" style="fill:#394C81;" width="6.297" height="93.55"/>
	
		<rect x="57.473" y="46.752" transform="matrix(0.8414 0.5405 -0.5405 0.8414 43.5059 -48.4261)" style="fill:#394C81;" width="93.55" height="6.297"/>
	
		<rect x="101.099" y="101.368" transform="matrix(0.5403 0.8414 -0.8414 0.5403 172.5723 -19.6239)" style="fill:#394C81;" width="6.297" height="93.55"/>
	
		<rect x="57.473" y="144.995" transform="matrix(0.8414 0.5405 -0.5405 0.8414 96.6025 -32.8418)" style="fill:#394C81;" width="93.55" height="6.297"/>
	
		<rect x="101.099" y="199.632" transform="matrix(0.5403 0.8414 -0.8414 0.5403 255.2551 25.5431)" style="fill:#394C81;" width="6.297" height="93.55"/>
	
		<rect x="57.473" y="243.258" transform="matrix(0.8414 0.5405 -0.5405 0.8414 149.7073 -17.2547)" style="fill:#394C81;" width="93.55" height="6.297"/>
	<path style="fill:#2C3E50;" d="M62.394,32.099H42.378c-3.698,0-6.696-2.998-6.696-6.696v-1.566c0-3.698,2.998-6.696,6.696-6.696
		h20.017c3.698,0,6.696,2.998,6.696,6.696v1.566C69.09,29.101,66.092,32.099,62.394,32.099z"/>
	<path style="fill:#2C3E50;" d="M62.394,81.257H42.378c-3.698,0-6.696-2.998-6.696-6.696v-1.566c0-3.698,2.998-6.696,6.696-6.696
		h20.017c3.698,0,6.696,2.998,6.696,6.696v1.566C69.09,78.259,66.092,81.257,62.394,81.257z"/>
	<path style="fill:#2C3E50;" d="M62.394,130.416H42.378c-3.698,0-6.696-2.998-6.696-6.696v-1.566c0-3.698,2.998-6.696,6.696-6.696
		h20.017c3.698,0,6.696,2.998,6.696,6.696v1.566C69.09,127.418,66.092,130.416,62.394,130.416z"/>
	<path style="fill:#2C3E50;" d="M62.394,179.574H42.378c-3.698,0-6.696-2.998-6.696-6.696v-1.566c0-3.698,2.998-6.696,6.696-6.696
		h20.017c3.698,0,6.696,2.998,6.696,6.696v1.566C69.09,176.576,66.092,179.574,62.394,179.574z"/>
	<path style="fill:#2C3E50;" d="M62.394,228.732H42.378c-3.698,0-6.696-2.998-6.696-6.696v-1.566c0-3.698,2.998-6.696,6.696-6.696
		h20.017c3.698,0,6.696,2.998,6.696,6.696v1.566C69.09,225.735,66.092,228.732,62.394,228.732z"/>
	<path style="fill:#2C3E50;" d="M62.394,277.891H42.378c-3.698,0-6.696-2.998-6.696-6.696v-1.566c0-3.698,2.998-6.696,6.696-6.696
		h20.017c3.698,0,6.696,2.998,6.696,6.696v1.566C69.09,274.893,66.092,277.891,62.394,277.891z"/>
	<path style="fill:#2C3E50;" d="M167.517,32.099H147.5c-3.698,0-6.696-2.998-6.696-6.696v-1.566c0-3.698,2.998-6.696,6.696-6.696
		h20.017c3.698,0,6.696,2.998,6.696,6.696v1.566C174.212,29.101,171.215,32.099,167.517,32.099z"/>
	<path style="fill:#2C3E50;" d="M167.517,81.257H147.5c-3.698,0-6.696-2.998-6.696-6.696v-1.566c0-3.698,2.998-6.696,6.696-6.696
		h20.017c3.698,0,6.696,2.998,6.696,6.696v1.566C174.212,78.259,171.215,81.257,167.517,81.257z"/>
	<path style="fill:#2C3E50;" d="M167.517,130.416H147.5c-3.698,0-6.696-2.998-6.696-6.696v-1.566c0-3.698,2.998-6.696,6.696-6.696
		h20.017c3.698,0,6.696,2.998,6.696,6.696v1.566C174.212,127.418,171.215,130.416,167.517,130.416z"/>
	<path style="fill:#2C3E50;" d="M167.517,179.574H147.5c-3.698,0-6.696-2.998-6.696-6.696v-1.566c0-3.698,2.998-6.696,6.696-6.696
		h20.017c3.698,0,6.696,2.998,6.696,6.696v1.566C174.212,176.576,171.215,179.574,167.517,179.574z"/>
	<path style="fill:#2C3E50;" d="M167.517,228.732H147.5c-3.698,0-6.696-2.998-6.696-6.696v-1.566c0-3.698,2.998-6.696,6.696-6.696
		h20.017c3.698,0,6.696,2.998,6.696,6.696v1.566C174.212,225.735,171.215,228.732,167.517,228.732z"/>
	<path style="fill:#2C3E50;" d="M167.517,277.891H147.5c-3.698,0-6.696-2.998-6.696-6.696v-1.566c0-3.698,2.998-6.696,6.696-6.696
		h20.017c3.698,0,6.696,2.998,6.696,6.696v1.566C174.212,274.893,171.215,277.891,167.517,277.891z"/>
	<path style="fill:#759AAC;" d="M235.661,212.474h18.78V30.418c0-4.942-4.006-8.947-8.947-8.947h-0.885
		c-4.942,0-8.947,4.006-8.947,8.947V212.474z"/>
	<circle style="fill:#3C5768;" cx="245.051" cy="218.071" r="26.587"/>
</g>
<g>
</g>
<g>
</g>
<g>
</g>
<g>
</g>
<g>
</g>
<g>
</g>
<g>
</g>
<g>
</g>
<g>
</g>
<g>
</g>
<g>
</g>
<g>
</g>
<g>
</g>
<g>
</g>
<g>
</g>
</svg>
