<?xml version="1.0" encoding="iso-8859-1"?>
<!-- Generator: Adobe Illustrator 18.0.0, SVG Export Plug-In . SVG Version: 6.00 Build 0)  -->
<!DOCTYPE svg PUBLIC "-//W3C//DTD SVG 1.1//EN" "http://www.w3.org/Graphics/SVG/1.1/DTD/svg11.dtd">
<svg version="1.1" id="Capa_1" xmlns="http://www.w3.org/2000/svg" xmlns:xlink="http://www.w3.org/1999/xlink" x="0px" y="0px"
	 viewBox="0 0 297 297" style="enable-background:new 0 0 297 297;" xml:space="preserve">
<g>
	<path style="fill:#935733;" d="M297,155.722c0-9.159-7.425-16.583-16.583-16.583H16.583C7.425,139.138,0,146.563,0,155.722V163h297
		V155.722z"/>
	<rect x="0" y="163" style="fill:#794C2B;" width="297" height="83.5"/>
	<path style="fill:#935733;" d="M0,246.5v8.055c0,9.159,7.425,16.584,16.583,16.584h263.833c9.159,0,16.583-7.425,16.583-16.584
		V246.5H0z"/>
	<path style="opacity:0.3;fill:#8E725E;" d="M297,155.722c0-9.159-7.425-16.583-16.583-16.583h-40.25V163H297V155.722z"/>
	<path style="opacity:0.3;fill:#8E725E;" d="M240.167,246.5v24.638h40.25c9.159,0,16.583-7.425,16.583-16.584V246.5H240.167z"/>
	<path style="fill:#DD953E;" d="M219.393,113.244L52.59,41.696c-4.187-1.796-6.126-6.647-4.33-10.834l0,0
		c1.796-4.187,6.647-6.126,10.834-4.33L225.897,98.08c4.187,1.796,6.126,6.647,4.33,10.834v0
		C228.431,113.102,223.58,115.04,219.393,113.244z"/>
	<circle style="fill:#794C2B;" cx="232.91" cy="110.638" r="16.5"/>
	<path style="fill:#F9B65F;" d="M77.607,113.244L244.41,41.696c4.187-1.796,6.126-6.647,4.33-10.834l0,0
		c-1.796-4.187-6.647-6.126-10.834-4.33L71.103,98.08c-4.187,1.796-6.126,6.647-4.33,10.834l0,0
		C68.569,113.102,73.42,115.04,77.607,113.244z"/>
	<circle style="fill:#794C2B;" cx="64.09" cy="110.638" r="16.5"/>
	<rect x="0" y="172.138" style="fill:#5E4534;" width="297" height="66"/>
	<rect x="21.833" y="172.138" style="fill:#C48A43;" width="7.677" height="66"/>
	<rect x="83.247" y="172.138" style="fill:#C48A43;" width="7.677" height="66"/>
	<rect x="144.662" y="172.138" style="fill:#C48A43;" width="7.677" height="66"/>
	<rect x="206.076" y="172.138" style="fill:#C48A43;" width="7.677" height="66"/>
	<rect x="267.49" y="172.138" style="fill:#C48A43;" width="7.677" height="66"/>
</g>
<g>
</g>
<g>
</g>
<g>
</g>
<g>
</g>
<g>
</g>
<g>
</g>
<g>
</g>
<g>
</g>
<g>
</g>
<g>
</g>
<g>
</g>
<g>
</g>
<g>
</g>
<g>
</g>
<g>
</g>
</svg>
