<?xml version="1.0" encoding="iso-8859-1"?>
<!-- Generator: Adobe Illustrator 18.0.0, SVG Export Plug-In . SVG Version: 6.00 Build 0)  -->
<!DOCTYPE svg PUBLIC "-//W3C//DTD SVG 1.1//EN" "http://www.w3.org/Graphics/SVG/1.1/DTD/svg11.dtd">
<svg version="1.1" id="Capa_1" xmlns="http://www.w3.org/2000/svg" xmlns:xlink="http://www.w3.org/1999/xlink" x="0px" y="0px"
	 viewBox="0 0 297 297" style="enable-background:new 0 0 297 297;" xml:space="preserve">
<g>
	<path style="fill:#704220;" d="M4.494,261.351L4.494,261.351c-7.089-7.089-5.625-19.853,3.212-28.022L218.838,34.368
		c4.218-3.899,10.197-4.304,13.58-0.921l0,0c3.383,3.383,2.977,9.362-0.922,13.58L32.517,258.141
		C24.347,266.978,11.583,268.44,4.494,261.351z"/>
	<path style="opacity:0.3;fill:#704220;" d="M228.094,31.284L32.517,238.79c-8.17,8.837-20.934,10.299-28.023,3.21h0
		c-0.687-0.687-1.269-1.441-1.796-2.225c-4.028,7.456-3.613,16.166,1.796,21.576l0,0c7.089,7.089,19.853,5.627,28.023-3.21
		L231.496,47.026c3.899-4.218,4.305-10.196,0.922-13.58C231.233,32.262,229.728,31.552,228.094,31.284z"/>
	<path style="fill:#935733;" d="M292.506,261.351L292.506,261.351c7.089-7.089,5.625-19.853-3.212-28.022L78.162,34.368
		c-4.218-3.899-10.197-4.304-13.58-0.921l0,0c-3.383,3.383-2.977,9.362,0.922,13.58l198.978,211.115
		C272.653,266.978,285.417,268.44,292.506,261.351z"/>
	<path style="opacity:0.3;fill:#935733;" d="M292.481,236.906c-0.745,1.88-1.83,3.615-3.309,5.094l0,0
		c-7.089,7.089-19.853,5.627-28.023-3.21L66.374,32.134c-0.649,0.347-1.255,0.777-1.791,1.313c-3.383,3.384-2.977,9.362,0.922,13.58
		l198.978,211.115c8.17,8.837,20.934,10.299,28.023,3.21v0C298.628,255.229,298.358,244.879,292.481,236.906z"/>
</g>
<g>
</g>
<g>
</g>
<g>
</g>
<g>
</g>
<g>
</g>
<g>
</g>
<g>
</g>
<g>
</g>
<g>
</g>
<g>
</g>
<g>
</g>
<g>
</g>
<g>
</g>
<g>
</g>
<g>
</g>
</svg>
