<?xml version="1.0" encoding="iso-8859-1"?>
<!-- Generator: Adobe Illustrator 18.0.0, SVG Export Plug-In . SVG Version: 6.00 Build 0)  -->
<!DOCTYPE svg PUBLIC "-//W3C//DTD SVG 1.1//EN" "http://www.w3.org/Graphics/SVG/1.1/DTD/svg11.dtd">
<svg version="1.1" id="Capa_1" xmlns="http://www.w3.org/2000/svg" xmlns:xlink="http://www.w3.org/1999/xlink" x="0px" y="0px"
	 viewBox="0 0 298.387 298.387" style="enable-background:new 0 0 298.387 298.387;" xml:space="preserve">
<g>
	<path style="fill:#C0392B;" d="M72.48,241.083l25.597,54.053c2.166,4.574,8.781,4.248,10.486-0.517l50.335-140.631
		c3.227-9.015-5.482-17.724-14.498-14.498L3.771,189.826c-4.765,1.706-5.091,8.32-0.517,10.486l54.053,25.597
		C63.966,229.063,69.327,234.424,72.48,241.083z"/>
	<path style="opacity:0.3;fill:#C0392B;" d="M156.223,142.131l-47.659,133.155c-1.705,4.765-8.32,5.091-10.486,0.517L72.48,221.75
		c-3.153-6.659-8.515-12.02-15.173-15.173l-43.19-20.453l-10.346,3.703c-4.765,1.706-5.091,8.32-0.517,10.486l54.053,25.597
		c6.659,3.153,12.02,8.515,15.173,15.173l25.597,54.053c2.166,4.574,8.781,4.248,10.486-0.517l50.335-140.631
		C160.516,149.471,159.136,145.032,156.223,142.131z"/>
	<path style="fill:#314B5A;" d="M120.821,170.658l7.404,7.404c1.545,1.545,4.049,1.545,5.594,0L271.504,40.376
		c1.545-1.545,1.545-4.049,0-5.594l-7.404-7.404c-1.545-1.545-4.049-1.545-5.594,0L120.821,165.064
		C119.277,166.608,119.277,169.113,120.821,170.658z"/>
	<path style="opacity:0.3;fill:#314B5A;" d="M268.852,32.131L133.819,167.164c-1.545,1.545-4.049,1.545-5.594,0l-4.752-4.752
		l-2.652,2.652c-1.545,1.545-1.545,4.049,0,5.594l7.404,7.404c1.545,1.545,4.049,1.545,5.594,0L271.504,40.376
		c1.545-1.545,1.545-4.049,0-5.594L268.852,32.131z"/>
	<path style="fill:#C0392B;" d="M276.605,17.371L269.94,0.9c-0.564-1.394-2.673-1.111-3.344,0.448l-19.789,46.017
		c-1.269,2.95,1.261,5.48,4.211,4.211l46.016-19.789c1.559-0.671,1.842-2.78,0.448-3.344l-16.471-6.665
		C278.984,20.957,277.426,19.4,276.605,17.371z"/>
	<path style="opacity:0.3;fill:#C0392B;" d="M297.484,28.444l-6.75-2.732l-41.381,17.795c-0.344,0.148-0.682,0.24-1.01,0.29
		l-1.534,3.568c-1.269,2.95,1.261,5.48,4.211,4.211l46.016-19.789C298.595,31.117,298.877,29.008,297.484,28.444z"/>
	<path style="fill:#314B5A;" d="M90.822,200.657l7.404,7.404c1.545,1.545,4.049,1.545,5.594,0l2.122-2.122
		c1.545-1.545,1.545-4.049,0-5.594l-7.404-7.404c-1.545-1.545-4.049-1.545-5.594,0l-2.122,2.122
		C89.277,196.608,89.277,199.112,90.822,200.657z"/>
	<path style="fill:#314B5A;" d="M80.845,210.635l7.404,7.404c1.545,1.545,4.049,1.545,5.594,0l2.122-2.122
		c1.545-1.545,1.545-4.049,0-5.594l-7.404-7.404c-1.545-1.545-4.049-1.545-5.594,0l-2.122,2.122
		C79.3,206.585,79.3,209.09,80.845,210.635z"/>
	<circle style="fill:#314B5A;" cx="114.898" cy="229.256" r="4.892"/>
	<circle style="fill:#314B5A;" cx="103.723" cy="240.431" r="4.892"/>
</g>
<g>
</g>
<g>
</g>
<g>
</g>
<g>
</g>
<g>
</g>
<g>
</g>
<g>
</g>
<g>
</g>
<g>
</g>
<g>
</g>
<g>
</g>
<g>
</g>
<g>
</g>
<g>
</g>
<g>
</g>
</svg>
