<?xml version="1.0" encoding="iso-8859-1"?>
<!-- Generator: Adobe Illustrator 18.0.0, SVG Export Plug-In . SVG Version: 6.00 Build 0)  -->
<!DOCTYPE svg PUBLIC "-//W3C//DTD SVG 1.1//EN" "http://www.w3.org/Graphics/SVG/1.1/DTD/svg11.dtd">
<svg version="1.1" id="Capa_1" xmlns="http://www.w3.org/2000/svg" xmlns:xlink="http://www.w3.org/1999/xlink" x="0px" y="0px"
	 viewBox="0 0 297 297" style="enable-background:new 0 0 297 297;" xml:space="preserve">
<g>
	<path style="fill:#C63C22;" d="M143.19,243.215c2.128-4.895,11.183-20.214,45.698-37.443c11.539-5.76,17.231-14.771,20.033-22.527
		c2.21-6.118-3.201-12.187-9.568-10.854c-22.723,4.76-33.246-11.14-33.246-11.14l-14.162-32.775c0,0-13.775-14.099-7.492-38.475
		c1.574-6.105-4.177-11.691-10.227-9.917c-10.374,3.041-24.598,11.589-36.439,34.587c-17.032,33.08-31.629,42.806-36.936,45.416
		c-21.155,6.154-39.882,15.88-47.508,23.506c-17.556,17.556,0.626,47.065,30.04,76.48c29.415,29.415,58.924,47.596,76.48,30.04
		C127.417,282.561,137.028,264.119,143.19,243.215z"/>
	<g style="opacity:0.3;">
		<path style="fill:#C63C22;" d="M200.092,172.287c-3.372,5.304-8.414,10.482-15.983,14.26
			c-34.515,17.23-43.57,32.548-45.698,37.443c-6.163,20.904-15.773,39.346-23.326,46.898c-17.556,17.556-47.065-0.625-76.48-30.04
			c-14.31-14.31-25.945-28.638-32.116-41.605c-0.633,17.025,15.017,38.951,36.895,60.829c29.415,29.415,58.924,47.597,76.48,30.04
			c7.552-7.552,17.163-25.994,23.326-46.898c2.128-4.895,11.183-20.214,45.698-37.443c11.539-5.76,17.231-14.771,20.033-22.527
			C211.046,177.365,206.129,171.551,200.092,172.287z"/>
	</g>
	<path style="fill:#5D7486;" d="M124.629,185.219l-8.613-8.613c-3.375-3.375-3.375-8.847,0-12.222L219.324,61.077
		c3.375-3.375,8.847-3.375,12.222,0l8.613,8.613c3.375,3.375,3.375,8.847,0,12.222L136.851,185.219
		C133.476,188.594,128.004,188.594,124.629,185.219z"/>
	<path style="opacity:0.3;fill:#5D7486;" d="M240.159,69.69l-4.971-4.971c1.813,3.285,1.333,7.496-1.453,10.282L130.428,178.308
		c-3.375,3.375-8.847,3.375-12.222,0l-3.643-3.643c0.383,0.695,0.863,1.351,1.453,1.94l8.613,8.613
		c3.375,3.375,8.847,3.375,12.222,0L240.159,81.912C243.534,78.537,243.534,73.065,240.159,69.69z"/>
	<path style="fill:#345065;" d="M72.475,210.368l20.091,20.091c2.194,2.194,5.75,2.194,7.944,0l6.844-6.844
		c2.194-2.194,2.194-5.75,0-7.944l-20.091-20.091c-2.194-2.194-5.75-2.194-7.944,0l-6.844,6.844
		C70.282,204.618,70.282,208.175,72.475,210.368z"/>
	<path style="fill:#759AAC;" d="M284.567,45.127l-9.651-9.651c-1.172-1.172-1.172-3.071,0-4.243l0.855-0.855
		c1.172-1.172,3.071-1.172,4.243,0l9.651,9.651c1.172,1.172,1.172,3.071,0,4.243l-0.855,0.855
		C287.638,46.298,285.738,46.298,284.567,45.127z"/>
	<path style="fill:#759AAC;" d="M277.084,56.008l-9.651-9.651c-1.172-1.172-1.172-3.071,0-4.243l0.855-0.855
		c1.172-1.172,3.071-1.172,4.243,0l9.651,9.651c1.172,1.172,1.172,3.071,0,4.243l-0.855,0.855
		C280.155,57.18,278.255,57.18,277.084,56.008z"/>
	<path style="fill:#759AAC;" d="M269.6,66.89l-9.651-9.651c-1.172-1.172-1.172-3.071,0-4.243l0.855-0.855
		c1.172-1.172,3.071-1.172,4.243,0l9.651,9.651c1.172,1.172,1.172,3.071,0,4.243l-0.855,0.855
		C272.671,68.061,270.772,68.061,269.6,66.89z"/>
	<path style="fill:#759AAC;" d="M262.117,77.771l-9.651-9.651c-1.172-1.172-1.172-3.071,0-4.243l0.855-0.855
		c1.172-1.172,3.071-1.172,4.243,0l9.651,9.651c1.172,1.172,1.172,3.071,0,4.243l-0.855,0.855
		C265.188,78.943,263.289,78.943,262.117,77.771z"/>
	<path style="fill:#759AAC;" d="M254.634,88.652l-9.651-9.651c-1.172-1.172-1.172-3.071,0-4.243l0.855-0.855
		c1.172-1.172,3.071-1.172,4.243,0l9.651,9.651c1.172,1.172,1.172,3.071,0,4.243l-0.855,0.855
		C257.705,89.824,255.805,89.824,254.634,88.652z"/>
	<path style="fill:#345065;" d="M244.938,92.855l40.776-59.803c6.322-9.272,4.297-21.868-4.612-28.691l0,0
		c-10.492-8.036-25.702-4.581-31.694,7.198l-11.685,22.972l-25.431,9.381c-1.901,0.701-3.302,2.339-3.7,4.326l-2.401,11.974
		c-0.383,1.913,0.215,3.891,1.594,5.271l28.211,28.211C238.58,96.278,242.878,95.875,244.938,92.855z"/>
	<path style="opacity:0.3;fill:#345065;" d="M283.942,6.993c-0.533,2.738-1.604,5.414-3.27,7.858l-40.776,59.803
		c-2.059,3.02-6.358,3.423-8.943,0.838l-23.18-23.18l-1.584,7.9c-0.383,1.913,0.215,3.891,1.594,5.271l28.211,28.211
		c2.585,2.585,6.883,2.182,8.943-0.839l40.776-59.803C291.293,24.868,290.362,14.101,283.942,6.993z"/>
</g>
<g>
</g>
<g>
</g>
<g>
</g>
<g>
</g>
<g>
</g>
<g>
</g>
<g>
</g>
<g>
</g>
<g>
</g>
<g>
</g>
<g>
</g>
<g>
</g>
<g>
</g>
<g>
</g>
<g>
</g>
</svg>
