<?xml version="1.0" encoding="iso-8859-1"?>
<!-- Generator: Adobe Illustrator 18.0.0, SVG Export Plug-In . SVG Version: 6.00 Build 0)  -->
<!DOCTYPE svg PUBLIC "-//W3C//DTD SVG 1.1//EN" "http://www.w3.org/Graphics/SVG/1.1/DTD/svg11.dtd">
<svg version="1.1" id="Capa_1" xmlns="http://www.w3.org/2000/svg" xmlns:xlink="http://www.w3.org/1999/xlink" x="0px" y="0px"
	 viewBox="0 0 296.999 296.999" style="enable-background:new 0 0 296.999 296.999;" xml:space="preserve">
<g>
	
		<rect x="126.562" y="-27.037" transform="matrix(0.7071 0.7071 -0.7071 0.7071 148.1246 -62.4154)" style="fill:#8FA6B4;" width="45.684" height="349.263"/>
	<polygon style="fill:#5D7486;" points="256.736,7.959 256.736,7.959 280.999,32.223 34.032,279.189 42.073,287.229 289.039,40.263 
			"/>
	<path style="fill:#34495E;" d="M285.132,44.171l-32.304-32.304l9.758-9.758c2.812-2.812,7.37-2.812,10.182,0l22.122,22.122
		c2.812,2.812,2.812,7.37,0,10.182L285.132,44.171z"/>
	<path style="opacity:0.3;fill:#34495E;" d="M294.89,24.231L272.768,2.109c-1.95-1.95-4.739-2.545-7.204-1.79l18.326,18.326
		c2.812,2.812,2.812,7.37,0,10.182l-7.051,7.051l8.293,8.293l9.758-9.758C297.702,31.601,297.702,27.042,294.89,24.231z"/>
	<path style="fill:#34495E;" d="M32.304,296.999C14.463,296.999,0,282.536,0,264.695c4.95-4.95,9.9-9.899,14.849-14.849
		c10.768,10.768,21.536,21.536,32.304,32.304C42.203,287.099,37.254,292.049,32.304,296.999z"/>
	<path style="opacity:0.3;fill:#34495E;" d="M39.602,274.598c-4.21,4.21-8.421,8.421-12.631,12.631
		c-10.234,0-19.349-4.764-25.268-12.189c4.314,12.765,16.38,21.959,30.601,21.959c4.95-4.95,9.899-9.899,14.849-14.849
		C44.636,279.632,42.119,277.115,39.602,274.598z"/>
	
		<rect x="84.586" y="176.781" transform="matrix(0.7071 -0.7071 0.7071 0.7071 -109.3953 124.084)" style="fill:#34495E;" width="21" height="34.627"/>
	
		<rect x="105.709" y="199.746" transform="matrix(0.7071 0.7071 -0.7071 0.7071 181.2482 -17.0769)" style="fill:#293C4C;" width="11.057" height="21"/>
	<circle style="fill:#2B2B2B;" cx="243.189" cy="53.81" r="10.5"/>
	<circle style="fill:#2B2B2B;" cx="214.402" cy="82.596" r="10.5"/>
	<circle style="fill:#2B2B2B;" cx="185.616" cy="111.383" r="10.5"/>
	<circle style="fill:#2B2B2B;" cx="156.829" cy="140.17" r="10.5"/>
	<path style="fill:#2B2B2B;" d="M40.328,249.534l7.137,7.137c2.13,2.13,5.583,2.13,7.712,0l8.7-8.7c2.13-2.13,2.13-5.583,0-7.712
		l-7.137-7.137c-2.13-2.13-5.583-2.13-7.712,0l-8.7,8.7C38.198,243.951,38.198,247.404,40.328,249.534z"/>
</g>
<g>
</g>
<g>
</g>
<g>
</g>
<g>
</g>
<g>
</g>
<g>
</g>
<g>
</g>
<g>
</g>
<g>
</g>
<g>
</g>
<g>
</g>
<g>
</g>
<g>
</g>
<g>
</g>
<g>
</g>
</svg>
