<?xml version="1.0" encoding="iso-8859-1"?>
<!-- Generator: Adobe Illustrator 18.0.0, SVG Export Plug-In . SVG Version: 6.00 Build 0)  -->
<!DOCTYPE svg PUBLIC "-//W3C//DTD SVG 1.1//EN" "http://www.w3.org/Graphics/SVG/1.1/DTD/svg11.dtd">
<svg version="1.1" id="Capa_1" xmlns="http://www.w3.org/2000/svg" xmlns:xlink="http://www.w3.org/1999/xlink" x="0px" y="0px"
	 viewBox="0 0 297 297" style="enable-background:new 0 0 297 297;" xml:space="preserve">
<g>
	
		<rect x="206.707" y="23.699" transform="matrix(0.911 0.4123 -0.4123 0.911 39.5129 -82.4348)" style="fill:#AEC1CF;" width="8.18" height="53.306"/>
	<path style="fill:#5D7486;" d="M28.555,8.146L11.501,287.798c-0.304,4.989,3.66,9.202,8.658,9.202h0
		c4.586,0,8.379-3.569,8.658-8.146L45.871,9.202C46.175,4.213,42.211,0,37.213,0l0,0C32.627,0,28.834,3.569,28.555,8.146z"/>
	
		<rect x="63.673" y="46.263" transform="matrix(0.4124 0.911 -0.911 0.4124 98.9514 -52.6994)" style="fill:#AEC1CF;" width="53.306" height="8.18"/>
	<path style="fill:#5D7486;" d="M267.901,8.146l17.053,279.651c0.304,4.989-3.66,9.202-8.658,9.202l0,0
		c-4.586,0-8.379-3.569-8.658-8.146L250.584,9.202C250.28,4.213,254.244,0,259.242,0l0,0C263.828,0,267.622,3.569,267.901,8.146z"/>
	<path style="fill:#345065;" d="M24.297,29.649h252.527c4.799,0,8.69-3.891,8.69-8.69v0c0-4.799-3.891-8.69-8.69-8.69H24.297
		c-4.799,0-8.69,3.891-8.69,8.69v0C15.607,25.759,19.498,29.649,24.297,29.649z"/>
	<circle style="fill:#6AAC4B;" cx="150.561" cy="147.223" r="97.637"/>
	<circle style="fill:#86C867;" cx="150.561" cy="147.223" r="81.473"/>
	<circle style="fill:#ECF0F1;" cx="150.561" cy="147.223" r="21.64"/>
	<path style="fill:#345065;" d="M130.804,207.531l-5.984-5.984l-57.936,57.937c-1.616,1.616-1.616,4.237,0,5.853l0.131,0.131
		c1.616,1.616,4.237,1.616,5.853,0L130.804,207.531z"/>
	<circle style="fill:#5D7486;" cx="129.596" cy="202.756" r="11.981"/>
</g>
<g>
</g>
<g>
</g>
<g>
</g>
<g>
</g>
<g>
</g>
<g>
</g>
<g>
</g>
<g>
</g>
<g>
</g>
<g>
</g>
<g>
</g>
<g>
</g>
<g>
</g>
<g>
</g>
<g>
</g>
</svg>
