<?xml version="1.0" encoding="iso-8859-1"?>
<!-- Generator: Adobe Illustrator 18.0.0, SVG Export Plug-In . SVG Version: 6.00 Build 0)  -->
<!DOCTYPE svg PUBLIC "-//W3C//DTD SVG 1.1//EN" "http://www.w3.org/Graphics/SVG/1.1/DTD/svg11.dtd">
<svg version="1.1" id="Capa_1" xmlns="http://www.w3.org/2000/svg" xmlns:xlink="http://www.w3.org/1999/xlink" x="0px" y="0px"
	 viewBox="0 0 297 297" style="enable-background:new 0 0 297 297;" xml:space="preserve">
<g>
	<path style="fill:#314B5A;" d="M289.056,207.378H7.944c-4.388,0-7.944-3.557-7.944-7.944v-75.342c0-4.388,3.557-7.944,7.944-7.944
		h281.111c4.388,0,7.944,3.557,7.944,7.944v75.342C297,203.822,293.443,207.378,289.056,207.378z"/>
	<path style="fill:#759AAC;" d="M289.056,180.853H7.944c-4.388,0-7.944-3.557-7.944-7.944V97.566c0-4.388,3.557-7.944,7.944-7.944
		h281.111c4.388,0,7.944,3.557,7.944,7.944v75.342C297,177.296,293.443,180.853,289.056,180.853z"/>
	<path style="opacity:0.4;fill:#759AAC;" d="M289.056,89.622H7.944C3.557,89.622,0,93.178,0,97.566v6.75h272.556
		c4.388,0,7.944,3.557,7.944,7.944v68.592h8.556c4.388,0,7.944-3.557,7.944-7.944V97.566C297,93.178,293.443,89.622,289.056,89.622z
		"/>
	<path style="fill:#D0D5D9;" d="M252.986,119.192v-3.28c0-7.053-5.717-12.77-12.77-12.77H56.784c-7.053,0-12.77,5.717-12.77,12.77
		v3.28c-8.862,0-16.045,7.184-16.045,16.045c0,8.861,7.184,16.045,16.045,16.045v3.281c0,7.053,5.717,12.77,12.77,12.77h183.433
		c7.053,0,12.77-5.717,12.77-12.77v-3.281c8.862,0,16.045-7.184,16.045-16.045C269.031,126.376,261.848,119.192,252.986,119.192z"/>
	<path style="opacity:0.3;fill:#D0D5D9;" d="M252.986,119.192v-3.281c0-7.053-5.717-12.77-12.77-12.77h-23.307
		c7.053,0,12.77,5.717,12.77,12.77v3.281c8.862,0,16.045,7.184,16.045,16.045c0,8.861-7.184,16.045-16.045,16.045v3.281
		c0,7.053-5.717,12.77-12.77,12.77h23.307c7.053,0,12.77-5.717,12.77-12.77v-3.281c8.862,0,16.045-7.184,16.045-16.045
		C269.031,126.376,261.848,119.192,252.986,119.192z"/>
	<path style="opacity:0.3;fill:#D0D5D9;" d="M44.014,151.282v3.281c0,7.053,5.717,12.77,12.77,12.77h23.307
		c-7.053,0-12.77-5.717-12.77-12.77v-3.281c-8.862,0-16.045-7.184-16.045-16.045c0-8.861,7.184-16.045,16.045-16.045v-3.281
		c0-7.053,5.717-12.77,12.77-12.77H56.784c-7.053,0-12.77,5.717-12.77,12.77v3.281c-8.862,0-16.045,7.184-16.045,16.045
		C27.969,144.099,35.152,151.282,44.014,151.282z"/>
	<circle style="fill:#345065;" cx="252.986" cy="135.237" r="5.081"/>
	<circle style="fill:#345065;" cx="44.014" cy="135.237" r="5.081"/>
	<rect x="16.315" y="180.853" style="fill:#8FA6B4;" width="15.982" height="17.869"/>
	<rect x="47.28" y="180.853" style="fill:#8FA6B4;" width="15.982" height="17.869"/>
	<rect x="78.245" y="180.853" style="fill:#8FA6B4;" width="15.982" height="17.869"/>
	<rect x="109.21" y="180.853" style="fill:#8FA6B4;" width="15.982" height="17.869"/>
	<rect x="140.175" y="180.853" style="fill:#8FA6B4;" width="15.982" height="17.869"/>
	<rect x="171.141" y="180.853" style="fill:#8FA6B4;" width="15.982" height="17.869"/>
	<rect x="202.106" y="180.853" style="fill:#8FA6B4;" width="15.982" height="17.869"/>
	<rect x="233.071" y="180.853" style="fill:#8FA6B4;" width="15.982" height="17.869"/>
	<rect x="264.036" y="180.853" style="fill:#8FA6B4;" width="15.982" height="17.869"/>
</g>
<g>
</g>
<g>
</g>
<g>
</g>
<g>
</g>
<g>
</g>
<g>
</g>
<g>
</g>
<g>
</g>
<g>
</g>
<g>
</g>
<g>
</g>
<g>
</g>
<g>
</g>
<g>
</g>
<g>
</g>
</svg>
