<?xml version="1.0" encoding="iso-8859-1"?>
<!-- Generator: Adobe Illustrator 18.0.0, SVG Export Plug-In . SVG Version: 6.00 Build 0)  -->
<!DOCTYPE svg PUBLIC "-//W3C//DTD SVG 1.1//EN" "http://www.w3.org/Graphics/SVG/1.1/DTD/svg11.dtd">
<svg version="1.1" id="Capa_1" xmlns="http://www.w3.org/2000/svg" xmlns:xlink="http://www.w3.org/1999/xlink" x="0px" y="0px"
	 viewBox="0 0 297 297" style="enable-background:new 0 0 297 297;" xml:space="preserve">
<g>
	<rect x="193.366" y="57.497" style="fill:#95A5A6;" width="8.925" height="101.167"/>
	<rect x="174.236" y="57.497" style="fill:#95A5A6;" width="8.925" height="132.845"/>
	<rect x="155.106" y="57.497" style="fill:#95A5A6;" width="8.925" height="150.584"/>
	<rect x="135.975" y="44.624" style="fill:#95A5A6;" width="8.925" height="185.439"/>
	<rect x="116.845" y="37.683" style="fill:#95A5A6;" width="8.925" height="211.718"/>
	<rect x="97.715" y="27.27" style="fill:#95A5A6;" width="8.925" height="247.913"/>
	<path style="fill:#F9B65F;" d="M84.492,290.389l-15.058-46.608c-14.628,5.364,61.005-30.08,98.027-68.755
		c46.692-48.777,62.06-84.203,50.194-98.227c-10.879-12.856-23.631-11.452-38.395-9.824c-14.368,1.584-30.656,3.377-45.18-9.323
		c-30.058-26.278-56.78,3.434-56.942,3.581l1.878-24.694c1.855-11.564,24.909-22.005,63.366,11.617
		c10.354,9.052,22.007,7.768,35.497,6.28c16.027-1.766,34.189-3.767,49.405,14.215c16.998,20.089,1.994,60.047-45.873,122.156
		C147.555,234.74,84.879,289.997,84.492,290.389z"/>
	<path style="fill:#91674A;" d="M110.606,286.999L73.254,274c0.421-0.427,62.984-39.94,99.732-87.637
		c45.36-58.874,63.884-101.491,50.824-116.927c-11.974-14.15-26.011-12.605-42.26-10.813c-15.815,1.743-33.742,3.717-49.729-10.261
		c-33.085-28.924-51.058-3.901-51.236-3.738l-9.372-19.5c2.041-12.729,27.417-24.22,69.746,12.787
		c11.396,9.963,24.223,8.55,39.071,6.913c17.641-1.944,37.631-4.147,54.379,15.646c18.71,22.112,2.194,66.093-50.492,134.455
		C146.652,243.278,111.033,286.568,110.606,286.999z"/>
	<g>
		<path style="fill:#794C2B;" d="M102.993,34.452c-11.905-3.645-20.462,0.231-25.416,3.916l3.007,6.256
			C80.701,44.518,88.422,33.794,102.993,34.452z"/>
		<path style="fill:#794C2B;" d="M234.408,60.469c-9.644-11.396-20.362-15.494-31.088-16.554c7.991,2.136,15.828,6.576,23.06,15.122
			c18.71,22.112,2.194,66.093-50.492,134.455c-34.044,44.175-66.709,84.116-72.426,91.02l7.145,2.487
			c0.426-0.431,36.045-43.721,73.31-92.075C236.603,126.563,253.118,82.581,234.408,60.469z"/>
		<path style="fill:#794C2B;" d="M132.93,36.48c6.111,5.343,12.635,7.412,19.659,7.932c-4.043-1.216-7.914-3.25-11.631-6.5
			c-19.741-17.259-35.792-23.967-47.511-24.923C104.108,15.833,117.372,22.878,132.93,36.48z"/>
	</g>
	<rect x="62.015" y="20.329" style="fill:#91674A;" width="22.477" height="261.796"/>
	<rect x="73.254" y="20.329" style="fill:#794C2B;" width="11.238" height="261.796"/>
	<path style="fill:#5E4534;" d="M63.365,21.816h19.778c4.533,0,8.208-3.675,8.208-8.208V8.208C91.352,3.675,87.676,0,83.143,0
		H63.365c-4.533,0-8.208,3.675-8.208,8.208v5.399C55.156,18.141,58.831,21.816,63.365,21.816z"/>
	<path style="fill:#5E4534;" d="M61.406,297h57.825c3.452,0,6.25-2.798,6.25-6.25v-9.316c0-3.452-2.798-6.25-6.25-6.25H61.406
		c-3.452,0-6.25,2.798-6.25,6.25v9.316C55.156,294.202,57.954,297,61.406,297z"/>
</g>
<g>
</g>
<g>
</g>
<g>
</g>
<g>
</g>
<g>
</g>
<g>
</g>
<g>
</g>
<g>
</g>
<g>
</g>
<g>
</g>
<g>
</g>
<g>
</g>
<g>
</g>
<g>
</g>
<g>
</g>
</svg>
