<?xml version="1.0" encoding="iso-8859-1"?>
<!-- Generator: Adobe Illustrator 18.0.0, SVG Export Plug-In . SVG Version: 6.00 Build 0)  -->
<!DOCTYPE svg PUBLIC "-//W3C//DTD SVG 1.1//EN" "http://www.w3.org/Graphics/SVG/1.1/DTD/svg11.dtd">
<svg version="1.1" id="Capa_1" xmlns="http://www.w3.org/2000/svg" xmlns:xlink="http://www.w3.org/1999/xlink" x="0px" y="0px"
	 viewBox="0 0 297 297" style="enable-background:new 0 0 297 297;" xml:space="preserve">
<g>
	<path style="fill:#3C5768;" d="M297,100.25H0V58.667c0-6.075,4.925-11,11-11h275c6.075,0,11,4.925,11,11V100.25z"/>
	<path style="fill:#314B5A;" d="M0,58.667v3h271.167c7.272,0,13.166,5.895,13.166,13.166v25.417H297V58.667c0-6.075-4.925-11-11-11
		H11C4.925,47.667,0,52.592,0,58.667z"/>
	<path style="fill:#8FA6B4;" d="M286,249.333H11c-6.075,0-11-4.925-11-11V99.302h297v139.031
		C297,244.408,292.075,249.333,286,249.333z"/>
	<path style="fill:#D1DEE5;" d="M33.32,235.363h-9.523c-6.202,0-11.231-5.028-11.231-11.231V99.302h31.984v124.83
		C44.551,230.335,39.523,235.363,33.32,235.363z"/>
	<path style="fill:#D1DEE5;" d="M81.297,235.363h-9.523c-6.202,0-11.231-5.028-11.231-11.231V99.302h31.984v124.83
		C92.527,230.335,87.499,235.363,81.297,235.363z"/>
	<path style="fill:#D1DEE5;" d="M129.273,235.363h-9.523c-6.202,0-11.231-5.028-11.231-11.231V99.302h31.984v124.83
		C140.504,230.335,135.476,235.363,129.273,235.363z"/>
	<path style="fill:#D1DEE5;" d="M177.25,235.363h-9.523c-6.202,0-11.231-5.028-11.231-11.231V99.302h31.984v124.83
		C188.48,230.335,183.452,235.363,177.25,235.363z"/>
	<path style="fill:#D1DEE5;" d="M225.226,235.363h-9.523c-6.202,0-11.231-5.028-11.231-11.231V99.302h31.984v124.83
		C236.457,230.335,231.429,235.363,225.226,235.363z"/>
	<path style="fill:#D1DEE5;" d="M273.203,235.363h-9.523c-6.202,0-11.231-5.028-11.231-11.231V99.302h31.984v124.83
		C284.434,230.335,279.406,235.363,273.203,235.363z"/>
	<path style="fill:#2B2B2B;" d="M57.309,205.156h-9.523c-6.202,0-11.231-5.028-11.231-11.231V99.302h31.984v94.623
		C68.539,200.128,63.511,205.156,57.309,205.156z"/>
	<path style="fill:#2B2B2B;" d="M105.285,205.156h-9.523c-6.202,0-11.231-5.028-11.231-11.231V99.302h31.984v94.623
		C116.516,200.128,111.488,205.156,105.285,205.156z"/>
	<path style="fill:#2B2B2B;" d="M153.262,205.156h-9.523c-6.202,0-11.231-5.028-11.231-11.231V99.302h31.984v94.623
		C164.492,200.128,159.464,205.156,153.262,205.156z"/>
	<path style="fill:#2B2B2B;" d="M249.215,205.156h-9.523c-6.202,0-11.231-5.028-11.231-11.231V99.302h31.984v94.623
		C260.445,200.128,255.417,205.156,249.215,205.156z"/>
	<circle style="fill:#D95459;" cx="23.167" cy="73.167" r="7"/>
	<circle style="fill:#D95459;" cx="49.5" cy="73.167" r="7"/>
	<circle style="fill:#D95459;" cx="240.157" cy="73.167" r="7"/>
	<circle style="fill:#D95459;" cx="266.49" cy="73.167" r="7"/>
	<circle style="fill:#D95459;" cx="186.167" cy="73.167" r="7"/>
	<circle style="fill:#D95459;" cx="212.5" cy="73.167" r="7"/>
</g>
<g>
</g>
<g>
</g>
<g>
</g>
<g>
</g>
<g>
</g>
<g>
</g>
<g>
</g>
<g>
</g>
<g>
</g>
<g>
</g>
<g>
</g>
<g>
</g>
<g>
</g>
<g>
</g>
<g>
</g>
</svg>
