<?xml version="1.0" encoding="iso-8859-1"?>
<!-- Generator: Adobe Illustrator 18.0.0, SVG Export Plug-In . SVG Version: 6.00 Build 0)  -->
<!DOCTYPE svg PUBLIC "-//W3C//DTD SVG 1.1//EN" "http://www.w3.org/Graphics/SVG/1.1/DTD/svg11.dtd">
<svg version="1.1" id="Capa_1" xmlns="http://www.w3.org/2000/svg" xmlns:xlink="http://www.w3.org/1999/xlink" x="0px" y="0px"
	 viewBox="0 0 297 297" style="enable-background:new 0 0 297 297;" xml:space="preserve">
<g>
	<path style="fill:#345065;" d="M262.5,109.913L77.928,294.484c-2.406,2.406-6.005,3.164-9.177,1.935l-26.839-10.406
		c-2.057-0.798-3.728-2.356-4.667-4.353l-15.134-32.185c-1.541-3.276-0.861-7.167,1.699-9.727L261.045,2.515
		c3.354-3.354,8.791-3.354,12.145,0l0,0c3.354,3.354,3.354,8.791,0,12.145l-22.956,22.956c-2.234,2.234-3.061,5.515-2.153,8.541
		l16.572,55.215C265.561,104.398,264.734,107.679,262.5,109.913z"/>
	<path style="opacity:0.3;fill:#345065;" d="M273.19,14.66c3.354-3.354,3.354-8.791,0-12.145c-3.354-3.354-8.791-3.354-12.145,0
		l-1.043,1.043c2.435,3.357,2.15,8.076-0.877,11.102L236.17,37.615c-2.234,2.234-3.061,5.515-2.153,8.541l16.572,55.215
		c0.908,3.026,0.081,6.307-2.153,8.541L63.864,294.484c-0.01,0.01-0.022,0.018-0.032,0.027l4.919,1.907
		c3.172,1.23,6.771,0.471,9.177-1.935L262.5,109.913c2.234-2.234,3.061-5.515,2.153-8.541l-16.572-55.215
		c-0.908-3.026-0.081-6.307,2.153-8.541L273.19,14.66z"/>
	
		<rect x="28.586" y="158.885" transform="matrix(-0.7071 0.7071 -0.7071 -0.7071 369.7936 208.2334)" style="fill:#AEC1CF;" width="226.369" height="43.637"/>
	<path style="fill:#FFFFFF;" d="M86.063,253.932l-6.728,6.728c-0.928,0.928-2.433,0.928-3.362,0l-22.508-22.508l10.09-10.09
		l22.508,22.508C86.991,251.499,86.991,253.004,86.063,253.932z"/>
	<path style="fill:#FFFFFF;" d="M101.197,238.798l-6.728,6.728c-0.928,0.928-2.433,0.928-3.362,0L68.6,223.018l10.09-10.09
		l22.508,22.508C102.125,236.364,102.125,237.87,101.197,238.798z"/>
	<path style="fill:#FFFFFF;" d="M116.332,223.663l-6.728,6.728c-0.928,0.928-2.433,0.928-3.362,0l-22.508-22.508l10.09-10.09
		l22.508,22.508C117.26,221.23,117.26,222.735,116.332,223.663z"/>
	<path style="fill:#FFFFFF;" d="M131.466,208.529l-6.728,6.728c-0.928,0.928-2.433,0.928-3.362,0l-22.508-22.508l10.09-10.09
		l22.508,22.508C132.395,206.095,132.395,207.6,131.466,208.529z"/>
	<path style="fill:#FFFFFF;" d="M146.601,193.394l-6.728,6.728c-0.928,0.928-2.433,0.928-3.362,0l-22.508-22.508l10.09-10.09
		l22.508,22.508C147.529,190.961,147.529,192.466,146.601,193.394z"/>
	<path style="fill:#FFFFFF;" d="M161.736,178.259l-6.728,6.728c-0.928,0.928-2.433,0.928-3.362,0l-22.508-22.508l10.09-10.09
		l22.508,22.508C162.664,175.826,162.664,177.331,161.736,178.259z"/>
	<path style="fill:#2B2B2B;" d="M83.75,236.485l-6.728,6.728c-0.928,0.928-2.433,0.928-3.362,0l-13.168-13.168l10.09-10.09
		l13.168,13.168C84.678,234.052,84.678,235.557,83.75,236.485z"/>
	<path style="fill:#2B2B2B;" d="M98.885,221.351l-6.728,6.728c-0.928,0.928-2.433,0.928-3.362,0l-13.168-13.168l10.09-10.09
		l13.168,13.168C99.813,218.917,99.813,220.422,98.885,221.351z"/>
	<path style="fill:#2B2B2B;" d="M114.019,206.216l-6.728,6.728c-0.928,0.928-2.433,0.928-3.362,0l-13.168-13.168l10.09-10.09
		l13.168,13.168C114.948,203.783,114.948,205.288,114.019,206.216z"/>
	<path style="fill:#FFFFFF;" d="M176.87,163.125l-6.728,6.728c-0.928,0.928-2.433,0.928-3.362,0l-22.508-22.508l10.09-10.09
		l22.508,22.508C177.798,160.692,177.798,162.197,176.87,163.125z"/>
	<path style="fill:#FFFFFF;" d="M192.005,147.99l-6.728,6.728c-0.928,0.928-2.433,0.928-3.362,0l-22.508-22.508l10.09-10.09
		l22.508,22.508C192.933,145.557,192.933,147.062,192.005,147.99z"/>
	<path style="fill:#FFFFFF;" d="M207.139,132.856l-6.728,6.728c-0.928,0.928-2.433,0.928-3.362,0l-22.508-22.508l10.09-10.09
		l22.508,22.508C208.068,130.422,208.068,131.927,207.139,132.856z"/>
	<path style="fill:#FFFFFF;" d="M222.274,117.721l-6.728,6.728c-0.928,0.928-2.433,0.928-3.362,0l-22.508-22.508l10.09-10.09
		l22.508,22.508C223.202,115.288,223.202,116.793,222.274,117.721z"/>
	<path style="fill:#2B2B2B;" d="M174.558,145.678l-6.728,6.728c-0.928,0.928-2.433,0.928-3.362,0L151.3,139.238l10.09-10.09
		l13.168,13.168C175.486,143.245,175.486,144.75,174.558,145.678z"/>
	<path style="fill:#2B2B2B;" d="M189.692,130.543l-6.728,6.728c-0.928,0.928-2.433,0.928-3.362,0l-13.168-13.168l10.09-10.09
		l13.168,13.168C190.621,128.11,190.621,129.615,189.692,130.543z"/>
	<path style="fill:#2B2B2B;" d="M204.827,115.409l-6.728,6.728c-0.928,0.928-2.433,0.928-3.362,0l-13.168-13.168l10.09-10.09
		l13.168,13.168C205.755,112.975,205.755,114.48,204.827,115.409z"/>
	<path style="fill:#2B2B2B;" d="M144.289,175.947l-6.728,6.728c-0.928,0.928-2.433,0.928-3.362,0l-13.168-13.168l10.09-10.09
		l13.168,13.168C145.217,173.514,145.217,175.019,144.289,175.947z"/>
	<circle style="fill:#FFFFFF;" cx="57.536" cy="216.999" r="2.799"/>
	<circle style="fill:#FFFFFF;" cx="72.127" cy="202.408" r="2.799"/>
	<circle style="fill:#FFFFFF;" cx="87.105" cy="187.43" r="2.799"/>
	<circle style="fill:#FFFFFF;" cx="261.641" cy="12.895" r="2.799"/>
	<circle style="fill:#FFFFFF;" cx="247.416" cy="27.12" r="2.799"/>
	<circle style="fill:#FFFFFF;" cx="228.254" cy="66.274" r="5.273"/>
</g>
<g>
</g>
<g>
</g>
<g>
</g>
<g>
</g>
<g>
</g>
<g>
</g>
<g>
</g>
<g>
</g>
<g>
</g>
<g>
</g>
<g>
</g>
<g>
</g>
<g>
</g>
<g>
</g>
<g>
</g>
</svg>
