<?xml version="1.0" encoding="iso-8859-1"?>
<!-- Generator: Adobe Illustrator 18.0.0, SVG Export Plug-In . SVG Version: 6.00 Build 0)  -->
<!DOCTYPE svg PUBLIC "-//W3C//DTD SVG 1.1//EN" "http://www.w3.org/Graphics/SVG/1.1/DTD/svg11.dtd">
<svg version="1.1" id="Capa_1" xmlns="http://www.w3.org/2000/svg" xmlns:xlink="http://www.w3.org/1999/xlink" x="0px" y="0px"
	 viewBox="0 0 297.001 297.001" style="enable-background:new 0 0 297.001 297.001;" xml:space="preserve">
<g>
	<path style="fill:#91674A;" d="M161.56,271.917c-42.864,42.864-86.555,25.452-124.242-12.235s-55.099-81.378-12.235-124.242
		c45.785-45.785,128.635-67.533,166.322-29.846S207.345,226.132,161.56,271.917z"/>
	<path style="opacity:0.3;fill:#91674A;" d="M206.535,130.917c-0.625,37.91-19.998,81.927-49.072,111
		C114.6,284.782,70.909,267.37,33.222,229.683c-15.05-15.05-26.859-31.057-32.895-47.586c-2.798,27.122,12.978,53.573,36.991,77.586
		c37.687,37.687,81.378,55.099,124.242,12.235C198.79,234.688,220.124,172.952,206.535,130.917z"/>
	<circle style="fill:#F9B65F;" cx="91.34" cy="205.661" r="29.46"/>
	<circle style="fill:#935733;" cx="91.341" cy="205.664" r="9.892"/>
	<path style="fill:#5E4534;" d="M117.312,161.496l18.193,18.193c2.278,2.278,5.972,2.278,8.25,0L263.828,59.615
		c2.278-2.278,2.278-5.972,0-8.25l-18.193-18.193c-2.278-2.278-5.972-2.278-8.25,0L117.312,153.246
		C115.034,155.524,115.034,159.218,117.312,161.496z"/>
	<path style="opacity:0.3;fill:#5E4534;" d="M263.828,51.365l-5.975-5.975L138.421,164.822c-2.278,2.278-5.971,2.278-8.25,0
		l-12.218-12.218l-0.642,0.642c-2.278,2.278-2.278,5.972,0,8.25l18.193,18.193c2.278,2.278,5.972,2.278,8.25,0L263.828,59.615
		C266.106,57.337,266.106,53.644,263.828,51.365z"/>
	<path style="fill:#905835;" d="M236.954,79.458l-19.412-19.412c-4.146-4.146-4.391-10.789-0.561-15.229l35.31-40.935
		c4.25-4.928,11.792-5.205,16.394-0.604l25.037,25.037c4.602,4.601,4.324,12.143-0.604,16.394l-40.935,35.31
		C247.742,83.849,241.1,83.604,236.954,79.458z"/>
	<path style="opacity:0.3;fill:#905835;" d="M293.721,28.316l-5.344-5.344c-0.591,1.962-1.716,3.792-3.392,5.237l-40.935,35.31
		c-4.44,3.83-11.083,3.585-15.229-0.561l-14.07-14.07c-1.16,3.839-0.216,8.153,2.789,11.158l19.412,19.412
		c4.146,4.146,10.789,4.391,15.229,0.561l40.935-35.31C298.045,40.459,298.323,32.917,293.721,28.316z"/>
</g>
<g>
</g>
<g>
</g>
<g>
</g>
<g>
</g>
<g>
</g>
<g>
</g>
<g>
</g>
<g>
</g>
<g>
</g>
<g>
</g>
<g>
</g>
<g>
</g>
<g>
</g>
<g>
</g>
<g>
</g>
</svg>
