<?xml version="1.0" encoding="iso-8859-1"?>
<!-- Generator: Adobe Illustrator 18.0.0, SVG Export Plug-In . SVG Version: 6.00 Build 0)  -->
<!DOCTYPE svg PUBLIC "-//W3C//DTD SVG 1.1//EN" "http://www.w3.org/Graphics/SVG/1.1/DTD/svg11.dtd">
<svg version="1.1" id="Capa_1" xmlns="http://www.w3.org/2000/svg" xmlns:xlink="http://www.w3.org/1999/xlink" x="0px" y="0px"
	 viewBox="0 0 297 297" style="enable-background:new 0 0 297 297;" xml:space="preserve">
<g>
	<ellipse style="fill:#F9B65F;" cx="83.688" cy="62.701" rx="48.269" ry="62.701"/>
	<path style="opacity:0.35;fill:#FFA800;" d="M83.688,0c-3.485,0-6.88,0.491-10.156,1.402c21.78,6.06,38.113,31.197,38.113,61.299
		S95.313,117.94,73.533,124c3.275,0.911,6.671,1.402,10.156,1.402c26.658,0,48.269-28.072,48.269-62.701S110.347,0,83.688,0z"/>
	<path style="fill:#A38671;" d="M83.689,297L83.689,297c-3.474,0-6.361-2.675-6.626-6.139l-11.138-145.54
		c-0.295-3.859,2.756-7.153,6.626-7.153h22.277c3.87,0,6.922,3.294,6.626,7.153l-11.138,145.54C90.05,294.325,87.162,297,83.689,297
		z"/>
	<path style="opacity:0.3;fill:#A38671;" d="M94.827,138.169h-8c3.87,0,6.922,3.294,6.626,7.153l-11.138,145.54
		c-0.151,1.971-1.152,3.684-2.626,4.797c1.116,0.843,2.503,1.342,4,1.342h0c3.474,0,6.361-2.675,6.626-6.139l11.138-145.54
		C101.748,141.463,98.697,138.169,94.827,138.169z"/>
	<path style="fill:#E67E22;" d="M97.833,140.801h-28.29c-3.406,0-6.167-2.761-6.167-6.167v-14.595c0-3.406,2.761-6.167,6.167-6.167
		h28.29c3.406,0,6.167,2.761,6.167,6.167v14.595C104,138.04,101.239,140.801,97.833,140.801z"/>
	<rect x="35.51" y="58.917" style="fill:#F0DEB4;" width="96.207" height="10.066"/>
	
		<ellipse transform="matrix(0.7071 0.7071 -0.7071 0.7071 148.767 -108.7244)" style="fill:#F86E51;" cx="205.626" cy="125.216" rx="48.269" ry="62.701"/>
	<path style="opacity:0.37;fill:#E67E22;" d="M249.962,80.879c-2.224-2.224-4.682-4.111-7.315-5.689
		c11.123,19.686,4.899,49.016-16.39,70.305c-21.597,21.597-51.468,27.688-71.153,15.893c1.671,2.957,3.723,5.702,6.185,8.163
		c18.85,18.85,53.982,14.281,78.468-10.205S268.812,99.729,249.962,80.879z"/>
	<path style="fill:#5E4534;" d="M39.951,290.89L39.951,290.89c-2.456-2.456-2.607-6.39-0.345-9.026l95.036-110.788
		c2.52-2.937,7.007-3.109,9.743-0.372l15.752,15.752c2.737,2.737,2.565,7.224-0.372,9.743L48.978,291.235
		C46.341,293.496,42.408,293.346,39.951,290.89z"/>
	<path style="opacity:0.21;fill:#5E4534;" d="M160.138,186.455l-15.752-15.752c-2.737-2.737-7.224-2.565-9.743,0.372l-1.523,1.776
		l11.352,11.352c2.737,2.737,2.565,7.224-0.372,9.743L38.175,284.81c-0.453,2.135,0.132,4.436,1.776,6.08
		c2.456,2.456,6.39,2.607,9.026,0.345l110.788-95.036C162.703,193.679,162.875,189.192,160.138,186.455z"/>
	<path style="fill:#D35400;" d="M160.403,190.442l-20.004-20.004c-2.408-2.408-2.408-6.313,0-8.721l10.32-10.32
		c2.408-2.408,6.313-2.408,8.721,0l20.004,20.004c2.408,2.408,2.408,6.313,0,8.721l-10.32,10.32
		C166.716,192.85,162.811,192.85,160.403,190.442z"/>
	
		<rect x="156.586" y="121.013" transform="matrix(0.7071 0.7071 -0.7071 0.7071 149.0802 -107.8191)" style="fill:#F0DEB4;" width="96.207" height="10.066"/>
</g>
<g>
</g>
<g>
</g>
<g>
</g>
<g>
</g>
<g>
</g>
<g>
</g>
<g>
</g>
<g>
</g>
<g>
</g>
<g>
</g>
<g>
</g>
<g>
</g>
<g>
</g>
<g>
</g>
<g>
</g>
</svg>
