<?xml version="1.0" encoding="iso-8859-1"?>
<!-- Generator: Adobe Illustrator 18.0.0, SVG Export Plug-In . SVG Version: 6.00 Build 0)  -->
<!DOCTYPE svg PUBLIC "-//W3C//DTD SVG 1.1//EN" "http://www.w3.org/Graphics/SVG/1.1/DTD/svg11.dtd">
<svg version="1.1" id="Capa_1" xmlns="http://www.w3.org/2000/svg" xmlns:xlink="http://www.w3.org/1999/xlink" x="0px" y="0px"
	 viewBox="0 0 297 297" style="enable-background:new 0 0 297 297;" xml:space="preserve">
<g>
	<rect x="15.75" y="24.938" style="fill:#935733;" width="241.417" height="122.25"/>
	<rect x="257.167" y="24.938" style="fill:#7C4225;" width="24.083" height="122.25"/>
	<path style="fill:#704220;" d="M6.167,24.937h284.667c3.406,0,6.167-2.761,6.167-6.167v-6.417c0-3.406-2.761-6.166-6.167-6.166
		H6.167C2.761,6.187,0,8.948,0,12.354v6.417C0,22.177,2.761,24.937,6.167,24.937z"/>
	<path style="opacity:0.2;fill:#5E4534;" d="M290.833,6.188H6.167c-2.515,0-4.674,1.508-5.634,3.667h278.259
		c3.406,0,6.167,2.761,6.167,6.167v6.417c0,0.891-0.193,1.735-0.533,2.5h6.408c3.406,0,6.167-2.761,6.167-6.167v-6.417
		C297,8.948,294.239,6.188,290.833,6.188z"/>
	<rect x="21.727" y="137.063" style="fill:#BDC3C7;" width="18.375" height="7.875"/>
	<rect x="43.106" y="137.063" style="fill:#BDC3C7;" width="18.375" height="7.875"/>
	<rect x="64.485" y="137.063" style="fill:#BDC3C7;" width="18.375" height="7.875"/>
	<rect x="85.864" y="137.063" style="fill:#BDC3C7;" width="18.375" height="7.875"/>
	<rect x="107.244" y="137.063" style="fill:#BDC3C7;" width="18.375" height="7.875"/>
	<rect x="128.623" y="137.063" style="fill:#BDC3C7;" width="18.375" height="7.875"/>
	<rect x="150.002" y="137.063" style="fill:#BDC3C7;" width="18.375" height="7.875"/>
	<rect x="171.381" y="137.063" style="fill:#BDC3C7;" width="18.375" height="7.875"/>
	<rect x="192.761" y="137.063" style="fill:#BDC3C7;" width="18.375" height="7.875"/>
	<rect x="214.14" y="137.063" style="fill:#BDC3C7;" width="18.375" height="7.875"/>
	<rect x="235.519" y="137.063" style="fill:#BDC3C7;" width="18.375" height="7.875"/>
	<rect x="256.898" y="137.063" style="fill:#BDC3C7;" width="18.375" height="7.875"/>
	<path style="fill:#704220;" d="M6.167,163.688h284.667c3.406,0,6.167-2.761,6.167-6.167v-6.417c0-3.406-2.761-6.166-6.167-6.166
		H6.167c-3.406,0-6.167,2.761-6.167,6.166v6.417C0,160.927,2.761,163.688,6.167,163.688z"/>
	<path style="opacity:0.2;fill:#5E4534;" d="M290.833,144.938h-7.351c0.007,0.118,0.018,0.234,0.018,0.354v6.417
		c0,3.406-2.761,6.167-6.167,6.167H0.018c0.184,3.24,2.863,5.813,6.149,5.813h284.667c3.406,0,6.167-2.761,6.167-6.167v-6.417
		C297,147.698,294.239,144.938,290.833,144.938z"/>
	<path style="fill:#503B2C;" d="M13.644,278.063h269.711c3.913,0,7.085-3.172,7.085-7.085v-107.29H6.56v107.29
		C6.56,274.891,9.732,278.063,13.644,278.063z"/>
	<path style="opacity:0.2;fill:#503B2C;" d="M266.873,163.688v90.79c0,3.913-3.172,7.085-7.085,7.085H6.56v9.415
		c0,3.913,3.172,7.085,7.085,7.085h269.711c3.913,0,7.085-3.172,7.085-7.085v-107.29H266.873z"/>
	<path style="fill:#D5C295;" d="M122.583,282.286H96.767c-1.841,0-3.333-1.492-3.333-3.333v-4.78c0-1.841,1.492-3.333,3.333-3.333
		h25.816c1.841,0,3.333,1.492,3.333,3.333v4.78C125.917,280.793,124.424,282.286,122.583,282.286z"/>
	<path style="fill:#D5C295;" d="M161.408,282.286h-25.816c-1.841,0-3.333-1.492-3.333-3.333v-4.78c0-1.841,1.492-3.333,3.333-3.333
		h25.816c1.841,0,3.333,1.492,3.333,3.333v4.78C164.742,280.793,163.249,282.286,161.408,282.286z"/>
	<path style="fill:#D5C295;" d="M200.233,282.286h-25.816c-1.841,0-3.333-1.492-3.333-3.333v-4.78c0-1.841,1.492-3.333,3.333-3.333
		h25.816c1.841,0,3.333,1.492,3.333,3.333v4.78C203.566,280.793,202.074,282.286,200.233,282.286z"/>
	<path style="fill:#A38671;" d="M75.833,290.813L75.833,290.813c-3.003,0-5.438-2.434-5.438-5.438v-66.938h10.875v66.938
		C81.271,288.378,78.837,290.813,75.833,290.813z"/>
	<path style="fill:#A38671;" d="M221.167,290.813L221.167,290.813c-3.003,0-5.438-2.434-5.438-5.438v-66.938h10.875v66.938
		C226.604,288.378,224.17,290.813,221.167,290.813z"/>
	<path style="fill:#D5C295;" d="M66.906,218.438h163.189c2.166,0,3.923-1.756,3.923-3.923V200.61c0-2.166-1.756-3.923-3.923-3.923
		H66.906c-2.166,0-3.923,1.756-3.923,3.923v13.905C62.983,216.681,64.739,218.438,66.906,218.438z"/>
	<path style="opacity:0.41;fill:#D5C295;" d="M230.094,196.688h-12.319v11.827c0,2.166-1.756,3.923-3.923,3.923H62.983v2.077
		c0,2.166,1.756,3.923,3.923,3.923h163.189c2.166,0,3.923-1.756,3.923-3.923V200.61
		C234.017,198.444,232.261,196.688,230.094,196.688z"/>
	<rect x="101.12" y="44.063" style="fill:#ECF0F1;" width="47.625" height="63"/>
	<rect x="148.87" y="44.063" style="fill:#BDC3C7;" width="48.01" height="63"/>
	<path style="fill:#5E4534;" d="M75.042,117h146.917v-2.292c0-9.711-7.872-17.583-17.583-17.583H92.625
		c-9.711,0-17.583,7.872-17.583,17.583V117z"/>
	<rect x="15.75" y="127.125" style="fill:#5E4534;" width="265.5" height="8.063"/>
</g>
<g>
</g>
<g>
</g>
<g>
</g>
<g>
</g>
<g>
</g>
<g>
</g>
<g>
</g>
<g>
</g>
<g>
</g>
<g>
</g>
<g>
</g>
<g>
</g>
<g>
</g>
<g>
</g>
<g>
</g>
</svg>
