<?xml version="1.0" encoding="iso-8859-1"?>
<!-- Generator: Adobe Illustrator 18.0.0, SVG Export Plug-In . SVG Version: 6.00 Build 0)  -->
<!DOCTYPE svg PUBLIC "-//W3C//DTD SVG 1.1//EN" "http://www.w3.org/Graphics/SVG/1.1/DTD/svg11.dtd">
<svg version="1.1" id="Capa_1" xmlns="http://www.w3.org/2000/svg" xmlns:xlink="http://www.w3.org/1999/xlink" x="0px" y="0px"
	 viewBox="0 0 297 297" style="enable-background:new 0 0 297 297;" xml:space="preserve">
<g>
	<path style="fill:#894D2F;" d="M47.602,297H27.731c-7.952,0-14.398-6.446-14.398-14.398V7.084C13.333,3.171,16.505,0,20.417,0h34.5
		C58.829,0,62,3.171,62,7.084v275.519C62,290.554,55.554,297,47.602,297z"/>
	<path style="fill:#894D2F;" d="M103.019,264H83.148c-7.952,0-14.398-6.446-14.398-14.398V7.084C68.75,3.171,71.921,0,75.833,0h34.5
		c3.912,0,7.084,3.171,7.084,7.084v242.519C117.417,257.554,110.971,264,103.019,264z"/>
	<path style="fill:#894D2F;" d="M158.436,231h-19.871c-7.952,0-14.398-6.446-14.398-14.398V7.084c0-3.912,3.171-7.084,7.084-7.084
		h34.5c3.912,0,7.083,3.171,7.083,7.084v209.519C172.833,224.554,166.387,231,158.436,231z"/>
	<path style="fill:#894D2F;" d="M213.852,198h-19.871c-7.952,0-14.398-6.446-14.398-14.398V7.084c0-3.912,3.171-7.084,7.083-7.084
		h34.5c3.912,0,7.083,3.171,7.083,7.084v176.519C228.25,191.554,221.804,198,213.852,198z"/>
	<path style="fill:#894D2F;" d="M269.269,165h-19.871c-7.952,0-14.398-6.446-14.398-14.398V7.084C235,3.171,238.171,0,242.083,0
		h34.5c3.912,0,7.083,3.171,7.083,7.084v143.519C283.667,158.554,277.221,165,269.269,165z"/>
	<path style="opacity:0.3;fill:#894D2F;" d="M54.917,0h-34.5c-3.912,0-7.083,3.171-7.083,7.083v4.75h21.583
		c3.912,0,7.083,3.171,7.083,7.083v249.185c0,7.952-6.446,14.398-14.398,14.398H13.333v0.102c0,7.952,6.446,14.398,14.398,14.398
		h19.872C55.554,297,62,290.554,62,282.602V7.083C62,3.171,58.829,0,54.917,0z"/>
	<path style="opacity:0.3;fill:#894D2F;" d="M110.333,0h-34.5c-3.912,0-7.083,3.171-7.083,7.083v4.75h21.583
		c3.912,0,7.083,3.171,7.083,7.083v214.185c0,7.952-6.446,14.398-14.398,14.398H68.75v2.102c0,7.952,6.446,14.398,14.398,14.398
		h19.871c7.952,0,14.398-6.446,14.398-14.398V7.083C117.417,3.171,114.245,0,110.333,0z"/>
	<path style="opacity:0.3;fill:#894D2F;" d="M165.75,0h-34.5c-3.912,0-7.083,3.171-7.083,7.083v4.75h21.583
		c3.912,0,7.083,3.171,7.083,7.083v184.519c0,7.952-6.446,14.398-14.398,14.398h-14.207c0.626,7.374,6.799,13.167,14.335,13.167
		h19.872c7.952,0,14.398-6.446,14.398-14.398V7.083C172.833,3.171,169.662,0,165.75,0z"/>
	<path style="opacity:0.3;fill:#894D2F;" d="M221.167,0h-34.5c-3.912,0-7.083,3.171-7.083,7.083v4.75h21.583
		c3.912,0,7.083,3.171,7.083,7.083v149.185c0,7.952-6.446,14.398-14.398,14.398h-14.269v1.102c0,7.952,6.446,14.398,14.398,14.398
		h19.871c7.952,0,14.398-6.446,14.398-14.398V7.083C228.25,3.171,225.079,0,221.167,0z"/>
	<path style="opacity:0.3;fill:#894D2F;" d="M276.583,0h-34.5C238.171,0,235,3.171,235,7.083v4.75h21.583
		c3.912,0,7.083,3.171,7.083,7.083v120.741c0,7.952-6.446,14.398-14.398,14.398h-13.835c1.549,6.281,7.204,10.944,13.963,10.944
		h19.872c7.952,0,14.398-6.446,14.398-14.398V7.083C283.667,3.171,280.495,0,276.583,0z"/>
	<path style="fill:#5E4534;" d="M7.75,82.5h281.5c4.28,0,7.75-3.47,7.75-7.75v-33.5c0-4.28-3.47-7.75-7.75-7.75H7.75
		C3.47,33.5,0,36.97,0,41.25v33.5C0,79.03,3.47,82.5,7.75,82.5z"/>
	<path style="opacity:0.2;fill:#5E4534;" d="M289.25,33.5h-0.5v29.682c0,4.28-3.47,7.75-7.75,7.75H0v3.818
		c0,4.28,3.47,7.75,7.75,7.75h281.5c4.28,0,7.75-3.47,7.75-7.75v-33.5C297,36.97,293.53,33.5,289.25,33.5z"/>
	<circle style="fill:#D0D5D9;" cx="37.667" cy="57.75" r="8.25"/>
	<circle style="fill:#D0D5D9;" cx="93.083" cy="57.75" r="8.25"/>
	<circle style="fill:#D0D5D9;" cx="148.5" cy="57.75" r="8.25"/>
	<circle style="fill:#D0D5D9;" cx="203.917" cy="57.75" r="8.25"/>
	<circle style="fill:#D0D5D9;" cx="259.333" cy="57.75" r="8.25"/>
</g>
<g>
</g>
<g>
</g>
<g>
</g>
<g>
</g>
<g>
</g>
<g>
</g>
<g>
</g>
<g>
</g>
<g>
</g>
<g>
</g>
<g>
</g>
<g>
</g>
<g>
</g>
<g>
</g>
<g>
</g>
</svg>
