<?xml version="1.0" encoding="iso-8859-1"?>
<!-- Generator: Adobe Illustrator 18.0.0, SVG Export Plug-In . SVG Version: 6.00 Build 0)  -->
<!DOCTYPE svg PUBLIC "-//W3C//DTD SVG 1.1//EN" "http://www.w3.org/Graphics/SVG/1.1/DTD/svg11.dtd">
<svg version="1.1" id="Capa_1" xmlns="http://www.w3.org/2000/svg" xmlns:xlink="http://www.w3.org/1999/xlink" x="0px" y="0px"
	 viewBox="0 0 297 297" style="enable-background:new 0 0 297 297;" xml:space="preserve">
<g>
	<rect x="8.044" y="247.513" style="fill:#759AAC;" width="280.912" height="49.487"/>
	<path style="fill:#FFFFFF;" d="M29.433,292.27H15.517c-1.313,0-2.377-1.064-2.377-2.377v-42.381h18.67v42.381
		C31.81,291.206,30.746,292.27,29.433,292.27z"/>
	<path style="fill:#FFFFFF;" d="M57.439,292.27H43.522c-1.313,0-2.377-1.064-2.377-2.377v-42.381h18.67v42.381
		C59.816,291.206,58.751,292.27,57.439,292.27z"/>
	<path style="fill:#FFFFFF;" d="M85.444,292.27H71.528c-1.313,0-2.377-1.064-2.377-2.377v-42.381h18.67v42.381
		C87.821,291.206,86.757,292.27,85.444,292.27z"/>
	<path style="fill:#FFFFFF;" d="M113.45,292.27H99.533c-1.313,0-2.377-1.064-2.377-2.377v-42.381h18.67v42.381
		C115.827,291.206,114.763,292.27,113.45,292.27z"/>
	<path style="fill:#FFFFFF;" d="M141.455,292.27h-13.916c-1.313,0-2.377-1.064-2.377-2.377v-42.381h18.67v42.381
		C143.832,291.206,142.768,292.27,141.455,292.27z"/>
	<path style="fill:#FFFFFF;" d="M169.461,292.27h-13.916c-1.313,0-2.377-1.064-2.377-2.377v-42.381h18.67v42.381
		C171.838,291.206,170.774,292.27,169.461,292.27z"/>
	<path style="fill:#2B2B2B;" d="M43.436,282.324H29.519c-1.313,0-2.377-1.064-2.377-2.377v-32.434h18.67v32.434
		C45.813,281.26,44.749,282.324,43.436,282.324z"/>
	<path style="fill:#2B2B2B;" d="M71.441,282.324H57.525c-1.313,0-2.377-1.064-2.377-2.377v-32.434h18.67v32.434
		C73.818,281.26,72.754,282.324,71.441,282.324z"/>
	<path style="fill:#2B2B2B;" d="M99.447,282.324H85.531c-1.313,0-2.377-1.064-2.377-2.377v-32.434h18.67v32.434
		C101.824,281.26,100.76,282.324,99.447,282.324z"/>
	<path style="fill:#FFFFFF;" d="M197.467,292.27H183.55c-1.313,0-2.377-1.064-2.377-2.377v-42.381h18.67v42.381
		C199.844,291.206,198.779,292.27,197.467,292.27z"/>
	<path style="fill:#FFFFFF;" d="M225.472,292.27h-13.916c-1.313,0-2.377-1.064-2.377-2.377v-42.381h18.67v42.381
		C227.849,291.206,226.785,292.27,225.472,292.27z"/>
	<path style="fill:#FFFFFF;" d="M253.478,292.27h-13.916c-1.313,0-2.377-1.064-2.377-2.377v-42.381h18.67v42.381
		C255.855,291.206,254.791,292.27,253.478,292.27z"/>
	<path style="fill:#FFFFFF;" d="M281.483,292.27h-13.916c-1.313,0-2.377-1.064-2.377-2.377v-42.381h18.67v42.381
		C283.86,291.206,282.796,292.27,281.483,292.27z"/>
	<path style="fill:#2B2B2B;" d="M211.469,282.324h-13.916c-1.313,0-2.377-1.064-2.377-2.377v-32.434h18.67v32.434
		C213.846,281.26,212.782,282.324,211.469,282.324z"/>
	<path style="fill:#2B2B2B;" d="M239.475,282.324h-13.916c-1.313,0-2.377-1.064-2.377-2.377v-32.434h18.67v32.434
		C241.852,281.26,240.788,282.324,239.475,282.324z"/>
	<path style="fill:#2B2B2B;" d="M267.481,282.324h-13.916c-1.313,0-2.377-1.064-2.377-2.377v-32.434h18.67v32.434
		C269.858,281.26,268.793,282.324,267.481,282.324z"/>
	<path style="fill:#2B2B2B;" d="M155.458,282.324h-13.916c-1.313,0-2.377-1.064-2.377-2.377v-32.434h18.67v32.434
		C157.835,281.26,156.771,282.324,155.458,282.324z"/>
	<path style="fill:#32373B;" d="M8.044,247.513V49.504C8.044,22.164,30.208,0,57.548,0h39.004c27.34,0,49.504,22.164,49.504,49.504
		v0c0,27.34,22.164,49.504,49.504,49.504h43.754c27.34,0,49.504,22.164,49.504,49.504v99H8.044z"/>
	<g>
		<path style="fill:#292D30;" d="M31.45,86.838c0-27.341,22.164-49.504,49.504-49.504h39.004c9.477,0,18.33,2.667,25.856,7.286
			C143.36,19.572,122.243,0,96.552,0H57.548C30.208,0,8.044,22.164,8.044,49.504v198.008H31.45V86.838z"/>
		<path style="fill:#292D30;" d="M218.967,136.342h43.754c9.477,0,18.33,2.667,25.856,7.286
			c-2.454-25.047-23.57-44.619-49.262-44.619H195.56c-9.477,0-18.33-2.667-25.856-7.286
			C172.159,116.77,193.275,136.342,218.967,136.342z"/>
	</g>
</g>
<g>
</g>
<g>
</g>
<g>
</g>
<g>
</g>
<g>
</g>
<g>
</g>
<g>
</g>
<g>
</g>
<g>
</g>
<g>
</g>
<g>
</g>
<g>
</g>
<g>
</g>
<g>
</g>
<g>
</g>
</svg>
