<?xml version="1.0" encoding="iso-8859-1"?>
<!-- Generator: Adobe Illustrator 18.0.0, SVG Export Plug-In . SVG Version: 6.00 Build 0)  -->
<!DOCTYPE svg PUBLIC "-//W3C//DTD SVG 1.1//EN" "http://www.w3.org/Graphics/SVG/1.1/DTD/svg11.dtd">
<svg version="1.1" id="Capa_1" xmlns="http://www.w3.org/2000/svg" xmlns:xlink="http://www.w3.org/1999/xlink" x="0px" y="0px"
	 viewBox="0 0 297 297" style="enable-background:new 0 0 297 297;" xml:space="preserve">
<g>
	<path style="fill:#F86E51;" d="M70.358,1.419c-5.077-3.589-12.09,0.042-12.09,6.259c0,2.179,0.928,4.255,2.551,5.709L77.55,28.376
		l12.815-12.815L70.358,1.419z"/>
	<path style="opacity:0.5;fill:#F86E51;" d="M69.003,8.818c-1.623-1.454-2.551-3.53-2.551-5.709c0-1.095,0.227-2.103,0.613-3.012
		c-4.367-0.652-8.797,2.641-8.797,7.582c0,2.179,0.928,4.255,2.551,5.709L77.55,28.376l6.277-6.277L69.003,8.818z"/>
	<path style="fill:#FFCF6D;" d="M170.805,118.123l-13.032,25.166c-4.976,9.61-7.574,20.275-7.574,31.098v73.281
		c0,5.58-4.524,10.104-10.104,10.104s-10.104-4.524-10.104-10.104V62.261c0-12.096-6.053-23.39-16.126-30.087l-23.5-16.612
		L77.55,28.376l16.747,15.002c7.348,6.835,11.522,16.419,11.522,26.454v185.362c0,23.088,18.717,41.805,41.805,41.805l0,0
		c23.088,0,41.805-18.717,41.805-41.805v-57.348c0-10.423,5.779-19.985,15.006-24.832l24.223-12.723L170.805,118.123z"/>
	<g style="opacity:0.5;">
		<path style="fill:#FFCF6D;" d="M150.169,249.99c5.58,0,10.104-4.524,10.104-10.104v-73.281c0-10.823,2.597-21.487,7.574-31.098
			l7.346-14.186l-4.389-3.199l-13.032,25.166c-4.977,9.61-7.574,20.275-7.574,31.098v73.281c0,0.796-0.102,1.568-0.276,2.311
			C150.006,249.98,150.086,249.99,150.169,249.99z"/>
		<path style="fill:#FFCF6D;" d="M157.698,289.219c-23.088,0-41.805-18.717-41.805-41.805V62.052
			c0-10.036-4.174-19.619-11.522-26.454L87.624,20.595l4.084-4.084l-1.344-0.95L77.55,28.376l16.747,15.002
			c7.348,6.835,11.522,16.419,11.522,26.454v185.362c0,23.088,18.717,41.805,41.805,41.805c11.905,0,22.64-4.985,30.254-12.972
			C171.894,287.333,165.017,289.219,157.698,289.219z"/>
	</g>
	<path style="fill:#F9B65F;" d="M229.09,161.956l-59.231-42.885c-2.386-1.728-2.919-5.063-1.19-7.449l1.182-1.63
		c1.728-2.384,5.06-2.916,7.445-1.19l59.231,42.885c2.386,1.728,2.919,5.063,1.19,7.449l-1.182,1.63
		C234.807,163.15,231.474,163.683,229.09,161.956z"/>
	<path style="fill:#F86E51;" d="M135.98,99.419H123.65v-9.66h12.329c2.244,0,4.063,1.819,4.063,4.063v1.534
		C140.043,97.6,138.224,99.419,135.98,99.419z"/>
	<path style="fill:#F86E51;" d="M135.98,116.397H123.65v-9.66h12.329c2.244,0,4.063,1.819,4.063,4.063v1.534
		C140.043,114.578,138.224,116.397,135.98,116.397z"/>
	<path style="fill:#F86E51;" d="M135.98,131.765H123.65v-9.66h12.329c2.244,0,4.063,1.819,4.063,4.063v1.534
		C140.043,129.946,138.224,131.765,135.98,131.765z"/>
	<path style="fill:#F86E51;" d="M135.98,149.914H123.65v-9.66h12.329c2.244,0,4.063,1.819,4.063,4.063v1.534
		C140.043,148.094,138.224,149.914,135.98,149.914z"/>
	<path style="fill:#F86E51;" d="M135.98,197.068H123.65v-9.66h12.329c2.244,0,4.063,1.819,4.063,4.063v1.534
		C140.043,195.249,138.224,197.068,135.98,197.068z"/>
	<path style="fill:#F86E51;" d="M135.98,215.692H123.65v-9.66h12.329c2.244,0,4.063,1.819,4.063,4.063v1.534
		C140.043,213.873,138.224,215.692,135.98,215.692z"/>
	<path style="opacity:0.6;fill:#F86E51;" d="M127.784,99.419h-4.133v-9.66h4.133c2.244,0,4.063,1.819,4.063,4.063v1.534
		C131.846,97.6,130.027,99.419,127.784,99.419z"/>
	<path style="opacity:0.6;fill:#F86E51;" d="M127.784,116.397h-4.133v-9.66h4.133c2.244,0,4.063,1.819,4.063,4.063v1.534
		C131.846,114.578,130.027,116.397,127.784,116.397z"/>
	<path style="opacity:0.6;fill:#F86E51;" d="M127.784,131.765h-4.133v-9.66h4.133c2.244,0,4.063,1.819,4.063,4.063v1.534
		C131.846,129.946,130.027,131.765,127.784,131.765z"/>
	<path style="opacity:0.6;fill:#F86E51;" d="M127.784,149.914h-4.133v-9.66h4.133c2.244,0,4.063,1.819,4.063,4.063v1.534
		C131.846,148.094,130.027,149.914,127.784,149.914z"/>
	<path style="opacity:0.6;fill:#F86E51;" d="M127.784,197.068h-4.133v-9.66h4.133c2.244,0,4.063,1.819,4.063,4.063v1.534
		C131.846,195.249,130.027,197.068,127.784,197.068z"/>
	<path style="opacity:0.6;fill:#F86E51;" d="M127.784,215.692h-4.133v-9.66h4.133c2.244,0,4.063,1.819,4.063,4.063v1.534
		C131.846,213.873,130.027,215.692,127.784,215.692z"/>
	<circle style="fill:#E5A65C;" cx="156.88" cy="195.427" r="8.322"/>
	<circle style="fill:#E5A65C;" cx="156.88" cy="221.976" r="8.322"/>
	<circle style="fill:#E5A65C;" cx="106.556" cy="214.27" r="8.322"/>
	<circle style="fill:#E5A65C;" cx="106.556" cy="240.903" r="8.322"/>
	<circle style="fill:#E5A65C;" cx="106.556" cy="161.006" r="8.322"/>
	<circle style="fill:#E5A65C;" cx="106.556" cy="187.638" r="8.322"/>
	<circle style="fill:#E5A65C;" cx="106.556" cy="107.741" r="8.322"/>
	<circle style="fill:#E5A65C;" cx="106.556" cy="134.373" r="8.322"/>
	<g style="opacity:0.63;">
		<path style="fill:#FFFFFF;" d="M178.951,131.533c0.748-0.937,2.083-1.233,3.174-0.641c1.226,0.664,1.68,2.196,1.017,3.422
			c-11.13,20.535-13.578,31.187-13.602,31.292c-0.302,1.36-1.652,2.218-3.012,1.915c-1.361-0.303-2.218-1.652-1.915-3.012
			c0.102-0.458,2.628-11.451,14.091-32.6C178.776,131.774,178.859,131.649,178.951,131.533z"/>
	</g>
</g>
<g>
</g>
<g>
</g>
<g>
</g>
<g>
</g>
<g>
</g>
<g>
</g>
<g>
</g>
<g>
</g>
<g>
</g>
<g>
</g>
<g>
</g>
<g>
</g>
<g>
</g>
<g>
</g>
<g>
</g>
</svg>
