<?xml version="1.0" encoding="iso-8859-1"?>
<!-- Generator: Adobe Illustrator 18.0.0, SVG Export Plug-In . SVG Version: 6.00 Build 0)  -->
<!DOCTYPE svg PUBLIC "-//W3C//DTD SVG 1.1//EN" "http://www.w3.org/Graphics/SVG/1.1/DTD/svg11.dtd">
<svg version="1.1" id="Capa_1" xmlns="http://www.w3.org/2000/svg" xmlns:xlink="http://www.w3.org/1999/xlink" x="0px" y="0px"
	 viewBox="0 0 297 297" style="enable-background:new 0 0 297 297;" xml:space="preserve">
<g>
	<path style="fill:#905835;" d="M23.234,91.723c-11.927,10.072-18.657,14.001-21.879,30.514
		c-7.512,38.502,16.952,79.177,55.454,86.689s76.462-20.983,83.974-59.485c3.222-16.514-1.538-22.685-8.804-36.501L23.234,91.723z"
		/>
	<path style="fill:#F9B65F;" d="M50.564,97.056c-7.103,11.013-10.945,15.505-14.167,32.019c-7.512,38.502,1.262,76.115,20.41,79.851
		c19.148,3.736,41.418-27.821,48.93-66.322c3.222-16.514,1.35-22.121-1.092-34.996L50.564,97.056z"/>
	<path style="fill:#F86E51;" d="M137.09,113.938L18.122,90.726c-1.054-0.206-1.742-1.227-1.537-2.282l0.001-0.005
		c0.206-1.054,1.227-1.742,2.282-1.537l118.968,23.212c1.054,0.206,1.742,1.227,1.537,2.282l-0.001,0.005
		C139.166,113.456,138.144,114.144,137.09,113.938z"/>
	<path style="fill:#5E4534;" d="M89.3,104.614c-1.26,6.458-7.517,10.672-13.975,9.412c-6.458-1.26-10.672-7.517-9.412-13.975"/>
	<path style="fill:#5E4534;" d="M65.912,100.05c-1.26,6.458-7.517,10.672-13.975,9.412s-10.672-7.517-9.412-13.975"/>
	<path style="fill:#5E4534;" d="M112.687,109.177c-1.26,6.458-7.517,10.672-13.975,9.412s-10.672-7.517-9.412-13.975"/>
	<path style="fill:#5E4534;" d="M136.3,113.784c-1.26,6.458-7.517,10.672-13.975,9.412s-10.672-7.517-9.412-13.975"/>
	<path style="fill:#5E4534;" d="M42.524,95.487c-1.26,6.458-7.517,10.672-13.975,9.412s-10.672-7.517-9.412-13.975"/>
	<path style="fill:#905835;" d="M273.766,91.723c11.927,10.072,18.657,14.001,21.879,30.514
		c7.512,38.502-16.952,79.177-55.454,86.689s-76.462-20.983-83.974-59.485c-3.222-16.514,1.538-22.685,8.804-36.501L273.766,91.723z
		"/>
	<path style="fill:#F9B65F;" d="M245.582,97.225c6.952,11.042,10.704,15.552,13.926,32.065c7.512,38.501-0.773,76.018-19.315,79.636
		c-18.542,3.618-40.321-28.033-47.833-66.534c-3.222-16.513-1.44-22.103,0.851-34.948L245.582,97.225z"/>
	<path style="fill:#F86E51;" d="M159.91,113.938l118.968-23.212c1.054-0.206,1.742-1.227,1.537-2.282l-0.001-0.005
		c-0.206-1.054-1.227-1.742-2.282-1.537l-118.968,23.212c-1.054,0.206-1.742,1.227-1.537,2.282l0.001,0.005
		C157.834,113.456,158.856,114.144,159.91,113.938z"/>
	<path style="fill:#5E4534;" d="M207.7,104.614c1.26,6.458,7.517,10.672,13.975,9.412c6.458-1.26,10.672-7.517,9.412-13.975"/>
	<path style="fill:#5E4534;" d="M231.088,100.05c1.26,6.458,7.517,10.672,13.975,9.412c6.458-1.26,10.672-7.517,9.412-13.975"/>
	<path style="fill:#5E4534;" d="M184.313,109.177c1.26,6.458,7.517,10.672,13.975,9.412c6.458-1.26,10.672-7.517,9.412-13.975"/>
	<path style="fill:#5E4534;" d="M160.7,113.784c1.26,6.458,7.517,10.672,13.975,9.412c6.458-1.26,10.672-7.517,9.412-13.975"/>
	<path style="fill:#5E4534;" d="M254.476,95.487c1.26,6.458,7.517,10.672,13.975,9.412s10.672-7.517,9.412-13.975"/>
	<path style="opacity:0.3;fill:#905835;" d="M68.404,198.989C29.902,191.477,5.438,150.802,12.95,112.3
		c1.984-10.171,5.302-15.567,10.343-20.565l-0.06-0.012c-11.927,10.072-18.657,14.001-21.879,30.514
		c-7.512,38.502,16.952,79.177,55.454,86.689c24.075,4.697,47.938-4.685,64.277-21.788C105.998,197.69,87.271,202.67,68.404,198.989
		z"/>
	<path style="opacity:0.3;fill:#905835;" d="M295.646,122.238c-3.222-16.514-9.953-20.442-21.879-30.514l-0.06,0.012
		c5.04,4.999,8.358,10.395,10.343,20.565c7.512,38.502-16.952,79.177-55.454,86.689c-18.867,3.681-37.594-1.299-52.681-11.85
		c16.34,17.103,40.202,26.485,64.277,21.788C278.694,201.414,303.158,160.74,295.646,122.238z"/>
</g>
<g>
</g>
<g>
</g>
<g>
</g>
<g>
</g>
<g>
</g>
<g>
</g>
<g>
</g>
<g>
</g>
<g>
</g>
<g>
</g>
<g>
</g>
<g>
</g>
<g>
</g>
<g>
</g>
<g>
</g>
</svg>
