<?xml version="1.0" encoding="iso-8859-1"?>
<!-- Generator: Adobe Illustrator 18.0.0, SVG Export Plug-In . SVG Version: 6.00 Build 0)  -->
<!DOCTYPE svg PUBLIC "-//W3C//DTD SVG 1.1//EN" "http://www.w3.org/Graphics/SVG/1.1/DTD/svg11.dtd">
<svg version="1.1" id="Capa_1" xmlns="http://www.w3.org/2000/svg" xmlns:xlink="http://www.w3.org/1999/xlink" x="0px" y="0px"
	 viewBox="0 0 297 297" style="enable-background:new 0 0 297 297;" xml:space="preserve">
<g>
	<circle style="fill:#F9B65F;" cx="253.019" cy="208.844" r="27.812"/>
	<circle style="fill:#F9B65F;" cx="43.981" cy="88.156" r="27.812"/>
	<circle style="fill:#F9B65F;" cx="43.981" cy="208.844" r="27.812"/>
	<circle style="fill:#F9B65F;" cx="148.5" cy="269.188" r="27.812"/>
	<circle style="fill:#F9B65F;" cx="148.5" cy="27.812" r="27.812"/>
	<path style="fill:#345065;" d="M279.565,141.614c-0.276-5.174-4.519-9.227-9.659-9.227c-1.112,0-2.211,0.195-3.268,0.579
		c-1.505,0.547-3.055,1.02-4.607,1.404c-3.587,0.888-7.286,1.339-10.995,1.339c-12.381,0-23.939-4.948-32.411-13.333l-15.754,15.754
		c8.665,8.605,19.553,14.808,31.6,17.814c-3.782,44.478-40.918,78.848-85.972,78.848c-12.416,0-24.216-2.656-34.893-7.397
		l-13.23,13.23c14.398,7.552,30.769,11.832,48.123,11.832c53.97,0,98.72-41.193,103.526-94.477c2.358-0.033,4.719-0.19,7.063-0.468
		c-4.577,57.552-52.25,101.947-110.589,101.947c-19.303,0-37.467-4.959-53.294-13.663l-14.912,14.912
		c20.34,12.417,43.752,19.056,68.206,19.056c34.954,0,67.855-13.639,92.643-38.404c24.762-24.739,38.475-57.619,38.615-92.582
		C279.758,146.424,279.693,144.02,279.565,141.614z"/>
	<path style="fill:#5D7486;" d="M37.543,148.5c0-61.182,49.775-110.957,110.957-110.957c16.648,0,33.181,3.783,48.116,10.975
		c-1.423,1.877-2.751,3.832-3.976,5.855c-13.85-6.524-28.681-9.828-44.139-9.828c-57.321,0-103.956,46.634-103.956,103.956
		c0,39.967,22.675,74.732,55.833,92.123l13.23-13.23c-30.242-13.429-51.398-43.728-51.398-78.894
		c0-47.581,38.71-86.291,86.291-86.291c12.789,0,25.515,2.875,37.014,8.338c-0.161,0.537-0.308,1.058-0.446,1.573
		c-4.717,17.6-2.297,35.985,6.815,51.767c3.041,5.268,6.754,10.037,10.989,14.242l15.754-15.754
		c-4.157-4.114-7.575-9.051-9.975-14.646c-3.334-7.77-4.428-16.289-3.163-24.638c1.472-9.719,5.818-18.504,12.568-25.404
		c1.121-1.146,2.318-2.246,3.557-3.27c2.367-1.956,3.629-4.846,3.465-7.93c-0.166-3.108-1.746-5.871-4.334-7.581
		c-2.064-1.364-4.194-2.685-6.331-3.929c-19.485-11.34-41.746-17.471-64.375-17.731c-0.504-0.006-1.017-0.009-1.519-0.009h0
		C76.604,17.233,17.714,75.721,17.241,147.618c-0.232,35.236,13.312,68.402,38.136,93.39c7.592,7.642,15.957,14.228,24.917,19.697
		l14.912-14.912C60.868,226.91,37.543,190.379,37.543,148.5z"/>
	<circle style="fill:#BDC3C7;" cx="148.5" cy="27.812" r="7.585"/>
	<circle style="fill:#BDC3C7;" cx="148.5" cy="269.188" r="7.585"/>
	<circle style="fill:#BDC3C7;" cx="43.981" cy="88.156" r="7.585"/>
	<circle style="fill:#BDC3C7;" cx="253.019" cy="208.844" r="7.585"/>
	<circle style="fill:#BDC3C7;" cx="43.981" cy="208.844" r="7.585"/>
</g>
<g>
</g>
<g>
</g>
<g>
</g>
<g>
</g>
<g>
</g>
<g>
</g>
<g>
</g>
<g>
</g>
<g>
</g>
<g>
</g>
<g>
</g>
<g>
</g>
<g>
</g>
<g>
</g>
<g>
</g>
</svg>
