<?xml version="1.0" encoding="iso-8859-1"?>
<!-- Generator: Adobe Illustrator 18.0.0, SVG Export Plug-In . SVG Version: 6.00 Build 0)  -->
<!DOCTYPE svg PUBLIC "-//W3C//DTD SVG 1.1//EN" "http://www.w3.org/Graphics/SVG/1.1/DTD/svg11.dtd">
<svg version="1.1" id="Capa_1" xmlns="http://www.w3.org/2000/svg" xmlns:xlink="http://www.w3.org/1999/xlink" x="0px" y="0px"
	 viewBox="0 0 297 297" style="enable-background:new 0 0 297 297;" xml:space="preserve">
<g>
	<path style="fill:#3F556A;" d="M168.389,182.381c0.056-0.031,0.111-0.065,0.167-0.096h-40.112c0.056,0.031,0.111,0.065,0.167,0.096
		c-15.036,13.219-26.827,40.99-31.969,75.61h103.716C195.215,223.371,183.425,195.6,168.389,182.381z"/>
	<path style="fill:#759AAC;" d="M96.642,257.991c-1.321,8.894-2.207,18.236-2.594,27.902C93.805,291.958,98.689,297,104.759,297
		l87.483,0c6.069,0,10.954-5.042,10.711-11.106c-0.387-9.666-1.273-19.008-2.594-27.902H96.642z"/>
	<path style="opacity:0.3;fill:#6AAC4B;" d="M168.389,182.381c0.056-0.031,0.111-0.065,0.167-0.096h-15.063
		c-0.056,0.031-0.111,0.065-0.167,0.096c15.036,13.219,26.827,40.99,31.969,75.61h15.063
		C195.215,223.371,183.425,195.6,168.389,182.381z"/>
	<path style="opacity:0.3;fill:#86C867;" d="M200.358,257.991h-15.063c1.321,8.894,2.207,18.236,2.594,27.902
		c0.243,6.064-4.642,11.106-10.711,11.106l-72.421,0c0,0,0,0,0,0l87.483,0c6.069,0,10.954-5.042,10.711-11.106
		C202.565,276.227,201.679,266.885,200.358,257.991z"/>
	<path style="fill:#759AAC;" d="M221.662,0H75.338c-5.703,0-10.295,4.702-10.144,10.402c0.048,1.815,0.107,3.624,0.174,5.428
		h166.265c0.067-1.803,0.126-3.612,0.174-5.428C231.957,4.702,227.365,0,221.662,0z"/>
	<path style="fill:#5D7486;" d="M221.662,0H75.338c-2.945,0-5.588,1.26-7.44,3.259h136.454c5.703,0,10.295,4.702,10.144,10.402
		c-0.019,0.725-0.047,1.445-0.069,2.169h17.205c0.067-1.803,0.126-3.612,0.174-5.428C231.957,4.702,227.365,0,221.662,0z"/>
	<path style="fill:#6AAC4B;" d="M231.632,15.83H65.368c0.081,2.184,0.183,4.354,0.294,6.518h165.676
		C231.45,20.184,231.551,18.014,231.632,15.83z"/>
	<path style="fill:#345065;" d="M65.662,22.348c0.262,5.078,0.604,10.1,1.047,15.041h163.581c0.444-4.941,0.786-9.963,1.048-15.041
		H65.662z"/>
	<path style="fill:#6AAC4B;" d="M230.291,37.389H66.709c1.492,16.61,3.959,32.424,7.26,47.129h149.062
		C226.332,69.813,228.799,53.999,230.291,37.389z"/>
	<path style="fill:#86C867;" d="M73.969,84.518c10.827,48.236,30.632,84.53,54.475,97.767h40.112
		c23.843-13.237,43.648-49.531,54.475-97.767H73.969z"/>
	<path style="opacity:0.3;fill:#6AAC4B;" d="M214.5,37.389c-1.492,16.61-3.959,32.424-7.26,47.129h15.791
		c3.301-14.705,5.767-30.519,7.26-47.129H214.5z"/>
	<path style="opacity:0.3;fill:#86C867;" d="M207.24,84.518c-10.827,48.236-30.632,84.53-54.475,97.767h15.791
		c23.843-13.237,43.648-49.531,54.475-97.767H207.24z"/>
</g>
<g>
</g>
<g>
</g>
<g>
</g>
<g>
</g>
<g>
</g>
<g>
</g>
<g>
</g>
<g>
</g>
<g>
</g>
<g>
</g>
<g>
</g>
<g>
</g>
<g>
</g>
<g>
</g>
<g>
</g>
</svg>
