<?xml version="1.0" encoding="iso-8859-1"?>
<!-- Generator: Adobe Illustrator 18.0.0, SVG Export Plug-In . SVG Version: 6.00 Build 0)  -->
<!DOCTYPE svg PUBLIC "-//W3C//DTD SVG 1.1//EN" "http://www.w3.org/Graphics/SVG/1.1/DTD/svg11.dtd">
<svg version="1.1" id="Capa_1" xmlns="http://www.w3.org/2000/svg" xmlns:xlink="http://www.w3.org/1999/xlink" x="0px" y="0px"
	 viewBox="0 0 297.268 297.268" style="enable-background:new 0 0 297.268 297.268;" xml:space="preserve">
<g>
	<path style="fill:#5D7486;" d="M154.815,10.303c-7.932-13.738-27.76-13.738-35.692,0L17.64,190.699
		c-2.333,4.146,0.664,9.27,5.421,9.27h14.366c2.222,0,4.276-1.186,5.387-3.11l85.185-147.544c3.563-6.172,12.471-6.172,16.035,0
		l60.609,104.978l21.114-21.114L154.815,10.303z"/>
	<path style="fill:#3C5768;" d="M283.465,233.132l-57.708-99.954l-21.114,21.114l42.569,73.731
		c3.563,6.172-0.891,13.886-8.017,13.886H64.805c-3.435,0-6.22,2.785-6.22,6.22v9.692c0,3.435,2.785,6.22,6.22,6.22h200.814
		C281.482,264.042,291.397,246.869,283.465,233.132z"/>
	<path style="fill:#AEC1CF;" d="M274.995,296.448L12.949,187.989c-5.486-2.271-8.092-8.558-5.822-14.044l1.101-2.661
		c2.271-5.486,8.558-8.092,14.044-5.821l262.045,108.459c5.486,2.271,8.092,8.558,5.822,14.044l-1.101,2.661
		C286.768,296.112,280.48,298.718,274.995,296.448z"/>
	<path style="opacity:0.3;fill:#AEC1CF;" d="M285.819,274.699c-0.108,0.365-0.233,0.729-0.382,1.089l-1.101,2.661
		c-2.271,5.486-8.558,8.092-14.044,5.822L8.246,175.812c-0.531-0.219-1.025-0.487-1.5-0.777c-1.532,5.205,1.078,10.833,6.204,12.955
		l262.045,108.458c5.486,2.271,11.773-0.336,14.044-5.822l1.101-2.661C292.191,283.01,290.254,277.411,285.819,274.699z"/>
</g>
<g>
</g>
<g>
</g>
<g>
</g>
<g>
</g>
<g>
</g>
<g>
</g>
<g>
</g>
<g>
</g>
<g>
</g>
<g>
</g>
<g>
</g>
<g>
</g>
<g>
</g>
<g>
</g>
<g>
</g>
</svg>
