<?xml version="1.0" encoding="iso-8859-1"?>
<!-- Generator: Adobe Illustrator 18.0.0, SVG Export Plug-In . SVG Version: 6.00 Build 0)  -->
<!DOCTYPE svg PUBLIC "-//W3C//DTD SVG 1.1//EN" "http://www.w3.org/Graphics/SVG/1.1/DTD/svg11.dtd">
<svg version="1.1" id="Capa_1" xmlns="http://www.w3.org/2000/svg" xmlns:xlink="http://www.w3.org/1999/xlink" x="0px" y="0px"
	 viewBox="0 0 297 297" style="enable-background:new 0 0 297 297;" xml:space="preserve">
<g>
	<path style="fill:#B5B9BA;" d="M288.434,188.712c-23.142-12.508-97.475-42.92-274.023-43.59c-3.288-0.012-5.95-3.009-5.95-6.696
		l0-1.002c0-3.687,2.661-6.684,5.95-6.696c176.548-0.67,250.881-31.081,274.023-43.589c3.968-2.145,8.566,1.093,8.566,6.032
		l0,89.509C297,187.618,292.402,190.856,288.434,188.712z"/>
	<path style="opacity:0.3;fill:#8FA6B4;" d="M14.411,141.303c176.548-0.67,250.881-31.081,274.023-43.589
		c3.968-2.145,8.566,1.094,8.566,6.032V93.171c0-4.939-4.598-8.177-8.566-6.032c-23.142,12.508-97.476,42.92-274.023,43.589
		c-3.288,0.012-5.95,3.009-5.95,6.696v1.002c0,1.876,0.691,3.57,1.801,4.786C11.334,142.038,12.796,141.309,14.411,141.303z"/>
	<path style="fill:#F9B65F;" d="M6.667,152.66h0.205c3.682,0,6.667-2.985,6.667-6.667v-16.137c0-3.682-2.985-6.667-6.667-6.667
		H6.667c-3.682,0-6.667,2.985-6.667,6.667l0,16.137C0,149.676,2.985,152.66,6.667,152.66z"/>
	<path style="fill:#8FA6B4;" d="M157.973,210.535H73.874c-24.311,0-44.089-19.778-44.089-44.09v-0.677
		c0-24.311,19.778-44.089,44.089-44.089h84.099c24.311,0,44.089,19.778,44.089,44.089v0.677
		C202.062,190.757,182.284,210.535,157.973,210.535z M73.874,137.925c-15.353,0-27.843,12.49-27.843,27.843v0.677
		c0,15.353,12.49,27.844,27.843,27.844h84.099c15.353,0,27.843-12.491,27.843-27.844v-0.677c0-15.353-12.49-27.843-27.843-27.843
		H73.874z"/>
	<g style="opacity:0.3;">
		<path style="fill:#8FA6B4;" d="M186.429,132.13c6.021,7.54,9.633,17.083,9.633,27.46v0.677c0,24.312-19.778,44.09-44.089,44.09
			H67.874c-10.839,0-20.77-3.939-28.456-10.451c8.085,10.125,20.522,16.63,34.456,16.63h84.099c24.311,0,44.089-19.778,44.089-44.09
			v-0.677C202.062,152.296,195.982,140.223,186.429,132.13z"/>
		<path style="fill:#8FA6B4;" d="M51.163,182.522c-3.227-4.545-5.131-10.091-5.131-16.077v-0.677
			c0-15.353,12.49-27.843,27.843-27.843h84.099c6.266,0,12.054,2.082,16.712,5.589c-5.049-7.113-13.344-11.767-22.712-11.767H67.874
			c-15.353,0-27.843,12.49-27.843,27.843v0.677C40.031,169.353,44.408,177.436,51.163,182.522z"/>
	</g>
	<rect x="74.716" y="104.168" style="fill:#5D7486;" width="15.569" height="90.121"/>
	<rect x="108.139" y="104.168" style="fill:#5D7486;" width="15.569" height="90.121"/>
	<rect x="141.562" y="104.168" style="fill:#5D7486;" width="15.569" height="90.121"/>
	<path style="fill:#F9B65F;" d="M90.613,104.168H73.541c-2.669,0-4.833-2.164-4.833-4.833v-0.149c0-2.669,2.164-4.833,4.833-4.833
		h17.072c2.669,0,4.833,2.164,4.833,4.833v0.149C95.447,102.004,93.283,104.168,90.613,104.168z"/>
	<path style="fill:#F9B65F;" d="M124.46,104.168h-17.072c-2.669,0-4.833-2.164-4.833-4.833v-0.149c0-2.669,2.164-4.833,4.833-4.833
		h17.072c2.669,0,4.833,2.164,4.833,4.833v0.149C129.293,102.004,127.129,104.168,124.46,104.168z"/>
	<path style="fill:#F9B65F;" d="M157.883,104.168h-17.072c-2.669,0-4.833-2.164-4.833-4.833v-0.149c0-2.669,2.164-4.833,4.833-4.833
		h17.072c2.669,0,4.833,2.164,4.833,4.833v0.149C162.716,102.004,160.552,104.168,157.883,104.168z"/>
	<g>
		<path style="fill:#D0D5D9;" d="M237.361,127.797c-1.425,0-2.689-1.021-2.949-2.473c-0.292-1.631,0.794-3.189,2.425-3.481
			c27.329-4.888,39.039-10.512,39.154-10.567c1.487-0.728,3.285-0.11,4.013,1.378c0.728,1.489,0.11,3.285-1.378,4.013
			c-0.501,0.245-12.586,6.05-40.732,11.083C237.715,127.781,237.537,127.797,237.361,127.797z"/>
	</g>
</g>
<g>
</g>
<g>
</g>
<g>
</g>
<g>
</g>
<g>
</g>
<g>
</g>
<g>
</g>
<g>
</g>
<g>
</g>
<g>
</g>
<g>
</g>
<g>
</g>
<g>
</g>
<g>
</g>
<g>
</g>
</svg>
