<?xml version="1.0" encoding="iso-8859-1"?>
<!-- Generator: Adobe Illustrator 18.0.0, SVG Export Plug-In . SVG Version: 6.00 Build 0)  -->
<!DOCTYPE svg PUBLIC "-//W3C//DTD SVG 1.1//EN" "http://www.w3.org/Graphics/SVG/1.1/DTD/svg11.dtd">
<svg version="1.1" id="Capa_1" xmlns="http://www.w3.org/2000/svg" xmlns:xlink="http://www.w3.org/1999/xlink" x="0px" y="0px"
	 viewBox="0 0 297 297" style="enable-background:new 0 0 297 297;" xml:space="preserve">
<g>
	<rect x="87.991" y="119.647" style="fill:#F86E51;" width="8.471" height="139.5"/>
	<rect x="101.314" y="119.647" style="fill:#F86E51;" width="8.471" height="147.176"/>
	<rect x="140.49" y="154.059" style="fill:#F86E51;" width="20.01" height="9.882"/>
	<rect x="185.667" y="154.059" style="fill:#F86E51;" width="31.765" height="9.882"/>
	<rect x="140.49" y="160" style="fill:#E25D47;" width="20.01" height="3.941"/>
	<rect x="185.667" y="160" style="fill:#E25D47;" width="31.765" height="3.941"/>
	<path style="fill:#FFCF6D;" d="M115.255,223.941L115.255,223.941c5.361,0,9.706-4.346,9.706-9.706v-67.765
		c0-12.962-10.508-23.471-23.471-23.471h0c-12.962,0-23.471,10.508-23.471,23.471v75.176c0,22.319,18.093,40.412,40.412,40.412h0.97
		c22.319,0,40.412-18.084,40.412-40.403c0-20.705,0-49.03,0-84.191c0-54.806-30.905-99.049-50.36-121.471
		C104.023,9.735,108.459,0,116.746,0l115.85,0c8.286,0,12.723,9.736,7.292,15.994c-19.455,22.422-50.36,66.665-50.36,121.471
		c0,32.564,0,65.057,0,92.139c0,37.224-30.176,67.396-67.401,67.396h0c-37.224,0-67.401-30.176-67.401-67.401V146.47
		c0-23.683,19.199-42.882,42.882-42.882h0c23.683,0,42.882,19.199,42.882,42.882v69.706c0,13.45-10.903,24.353-24.353,24.353h0
		c-13.45,0-24.353-10.903-24.353-24.353v-32.471c0-16.374,13.273-29.647,29.647-29.647h3.529v10.235h-3.529
		c-8.772,0-15.883,7.111-15.883,15.883v34.058C105.549,219.596,109.895,223.941,115.255,223.941z"/>
	<g style="opacity:0.6;">
		<path style="fill:#FFCF6D;" d="M159.813,137.465c0,35.16,0,63.486,0,84.191c0,20.447-15.188,37.328-34.896,40.019
			c1.804,0.246,3.643,0.384,5.515,0.384h0.97c22.319,0,40.412-18.084,40.412-40.403c0-20.705,0-49.03,0-84.191
			c0-54.806-30.905-99.049-50.36-121.471C116.024,9.736,120.46,0,128.746,0h-12c-8.286,0-12.723,9.735-7.292,15.994
			C128.909,38.416,159.814,82.66,159.813,137.465z"/>
		<path style="fill:#FFCF6D;" d="M66.726,229.599V146.47c0-21.646,16.041-39.536,36.882-42.455c-1.962-0.275-3.963-0.427-6-0.427h0
			c-23.683,0-42.882,19.199-42.882,42.882v83.129c0,37.225,30.176,67.401,67.401,67.401h0c2.024,0,4.022-0.105,6-0.28
			C93.716,293.682,66.726,264.8,66.726,229.599z"/>
		<path style="fill:#FFCF6D;" d="M127.255,223.941c5.36,0,9.706-4.345,9.706-9.706v-49.941h-3.529c-3.118,0-6.017,0.912-8.471,2.464
			v47.477c0,3.093-1.452,5.842-3.706,7.62C122.907,223.157,124.988,223.941,127.255,223.941L127.255,223.941z"/>
		<path style="fill:#FFCF6D;" d="M124.961,146.47v7.588h-3.529c-16.374,0-29.647,13.273-29.647,29.647v32.471
			c0,13.449,10.903,24.353,24.353,24.353h0c2.071,0,4.081-0.26,6-0.747c-10.548-2.673-18.353-12.227-18.353-23.606v-32.471
			c0-16.374,13.273-29.647,29.647-29.647h3.529v-7.588c0-12.962-10.508-23.47-23.471-23.47h0c-2.074,0-4.085,0.272-6,0.777
			C117.546,126.429,124.961,135.583,124.961,146.47z"/>
	</g>
	<path style="fill:#8E725E;" d="M222.41,168.882h-0.691c-3.245,0-5.875-2.63-5.875-5.875v-8.632c0-3.245,2.63-5.875,5.875-5.875
		h0.691c3.245,0,5.875,2.63,5.875,5.875v8.632C228.285,166.252,225.654,168.882,222.41,168.882z"/>
	<path style="opacity:0.3;fill:#8E725E;" d="M222.41,164.25h-0.691c-3.245,0-5.875-2.63-5.875-5.875v4.632
		c0,3.245,2.63,5.875,5.875,5.875h0.691c3.245,0,5.875-2.63,5.875-5.875v-4.632C228.285,161.62,225.654,164.25,222.41,164.25z"/>
	<rect x="105.549" y="177.353" style="fill:#A38671;" width="19.412" height="8.735"/>
	<rect x="105.549" y="189.662" style="fill:#A38671;" width="19.412" height="8.735"/>
	<rect x="105.549" y="201.97" style="fill:#A38671;" width="19.412" height="8.735"/>
	<rect x="105.549" y="207.5" style="opacity:0.3;fill:#8E725E;" width="19.412" height="3.206"/>
	<rect x="105.549" y="195.191" style="opacity:0.3;fill:#8E725E;" width="19.412" height="3.206"/>
	<rect x="105.549" y="182.882" style="opacity:0.3;fill:#8E725E;" width="19.412" height="3.206"/>
	<g style="opacity:0.63;">
		<path style="fill:#FFFFFF;" d="M210.004,21.906c0.748-0.937,2.083-1.233,3.174-0.641c1.226,0.664,1.68,2.196,1.017,3.422
			c-11.13,20.535-13.578,31.187-13.602,31.292c-0.302,1.36-1.652,2.218-3.012,1.915c-1.361-0.303-2.218-1.652-1.915-3.012
			c0.102-0.458,2.628-11.451,14.091-32.6C209.829,22.147,209.912,22.022,210.004,21.906z"/>
	</g>
</g>
<g>
</g>
<g>
</g>
<g>
</g>
<g>
</g>
<g>
</g>
<g>
</g>
<g>
</g>
<g>
</g>
<g>
</g>
<g>
</g>
<g>
</g>
<g>
</g>
<g>
</g>
<g>
</g>
<g>
</g>
</svg>
