<?xml version="1.0" encoding="iso-8859-1"?>
<!-- Generator: Adobe Illustrator 18.0.0, SVG Export Plug-In . SVG Version: 6.00 Build 0)  -->
<!DOCTYPE svg PUBLIC "-//W3C//DTD SVG 1.1//EN" "http://www.w3.org/Graphics/SVG/1.1/DTD/svg11.dtd">
<svg version="1.1" id="Capa_1" xmlns="http://www.w3.org/2000/svg" xmlns:xlink="http://www.w3.org/1999/xlink" x="0px" y="0px"
	 viewBox="0 0 297 297" style="enable-background:new 0 0 297 297;" xml:space="preserve">
<g>
	
		<rect x="51.93" y="179.192" transform="matrix(0.7071 0.7071 -0.7071 0.7071 184.1915 24.6575)" style="fill:#3C5768;" width="20.803" height="110.951"/>
	<polygon style="opacity:0.32;fill:#3C5768;" points="102.621,196.503 24.459,274.664 16.042,266.247 15.749,266.54 30.459,281.25 
		108.914,202.796 	"/>
	<circle style="fill:#32373B;" cx="17.069" cy="279.93" r="17.069"/>
	<path style="fill:#AEC1CF;" d="M283.363,62.152L157.089,188.42c-13.396,13.396-35.116,13.395-48.513-0.002l0,0
		c-13.396-13.397-13.396-35.116,0-48.512L234.85,13.639L221.212,0.001L93.752,127.456c-20.928,20.927-20.928,54.857,0,75.786l0,0
		c20.928,20.928,54.859,20.93,75.788,0.003L297,75.79L283.363,62.152z"/>
	<g>
		<path style="fill:#AEC1CF;" d="M99.102,157.936c1.213-6.604,4.367-12.922,9.474-18.029L234.85,13.639l-6.226-6.226
			L108.577,127.454C100.288,135.743,97.134,147.217,99.102,157.936z"/>
		<path style="fill:#AEC1CF;" d="M169.539,190.793c-20.928,20.927-54.86,20.926-75.788-0.003h0
			c-8.877-8.878-13.974-20.096-15.32-31.667c-1.827,15.708,3.269,32.069,15.32,44.12h0c20.928,20.929,54.86,20.93,75.788,0.003
			L297,75.79l-6.226-6.227L169.539,190.793z"/>
	</g>
</g>
<g>
</g>
<g>
</g>
<g>
</g>
<g>
</g>
<g>
</g>
<g>
</g>
<g>
</g>
<g>
</g>
<g>
</g>
<g>
</g>
<g>
</g>
<g>
</g>
<g>
</g>
<g>
</g>
<g>
</g>
</svg>
