<?xml version="1.0" encoding="iso-8859-1"?>
<!-- Generator: Adobe Illustrator 18.0.0, SVG Export Plug-In . SVG Version: 6.00 Build 0)  -->
<!DOCTYPE svg PUBLIC "-//W3C//DTD SVG 1.1//EN" "http://www.w3.org/Graphics/SVG/1.1/DTD/svg11.dtd">
<svg version="1.1" id="Capa_1" xmlns="http://www.w3.org/2000/svg" xmlns:xlink="http://www.w3.org/1999/xlink" x="0px" y="0px"
	 viewBox="0 0 297 297" style="enable-background:new 0 0 297 297;" xml:space="preserve">
<g>
	<path style="fill:#935733;" d="M121.825,263.566c-5.946-5.946-5.942-15.589,0.008-21.539l20.98-20.98
		c7.516-7.516,19.697-7.52,27.207-0.01l0,0c1.565,1.565,4.102,1.564,5.668-0.002l18.145-18.145
		c22.965-22.965-22.932-81.147-20.754-78.969c0.667,0.667-56.004-43.719-78.969-20.754l-18.145,18.145
		c-1.566,1.566-1.567,4.104-0.002,5.668l2.833,2.833c5.946,5.946,5.942,15.589-0.008,21.539l-23.816,23.816
		c-5.95,5.95-15.593,5.954-21.539,0.008l-0.995-0.995c-2.58-2.58-6.764-2.578-9.346,0.004l-12.147,12.147
		C-12.019,209.297,4.162,237.763,31.7,265.3c27.538,27.538,56.004,43.719,78.969,20.754l12.147-12.147
		c2.582-2.582,2.583-6.766,0.004-9.346L121.825,263.566z"/>
	<path style="opacity:0.3;fill:#8E725E;" d="M121.825,263.566c-1.051-1.051-1.907-2.222-2.586-3.464
		c-0.122,0.142-0.244,0.285-0.379,0.419l-13.154,13.154c-24.869,24.869-55.694,7.346-85.514-22.474
		c-2.5-2.5-4.911-5.007-7.221-7.517c5.143,7.193,11.549,14.436,18.729,21.616c27.538,27.538,56.004,43.719,78.969,20.754
		l12.147-12.147c2.582-2.582,2.583-6.766,0.003-9.346L121.825,263.566z"/>
	<path style="fill:#8E725E;" d="M173.013,123.879c0.055,0.039,0.084,0.058,0.067,0.041
		C173.025,123.865,173.008,123.859,173.013,123.879z"/>
	<path style="opacity:0.3;fill:#8E725E;" d="M173.013,123.879c-0.551-0.39-4.655-3.505-10.829-7.507
		c12.813,19.752,35.326,60.167,16.199,79.294l-19.866,19.866c4.202,0.457,8.283,2.285,11.503,5.506
		c1.565,1.565,4.102,1.564,5.668-0.002l18.145-18.145C216.22,180.503,173.18,124.663,173.013,123.879z"/>
	<path style="fill:#8E725E;" d="M208.332,46.068l42.6,42.6c3.222,3.222,8.445,3.222,11.667,0l2.471-2.471
		c3.222-3.222,3.222-8.445,0-11.667l-42.6-42.6c-3.222-3.222-8.445-3.222-11.667,0l-2.471,2.471
		C205.11,37.623,205.11,42.846,208.332,46.068z"/>
	<path style="fill:#8E725E;" d="M180.056,74.344l42.6,42.6c3.222,3.222,8.445,3.222,11.667,0l2.471-2.471
		c3.222-3.222,3.222-8.445,0-11.667l-42.6-42.6c-3.222-3.222-8.445-3.222-11.667,0l-2.471,2.471
		C176.834,65.899,176.834,71.122,180.056,74.344z"/>
	<path style="fill:#5E4534;" d="M283.882,0.339c-10.078,2.587-21.819,6.323-25.974,10.477c-4.992,4.992-6.776,11.964-5.385,18.386
		L116.735,152.587c-3.556,3.232-4.085,8.414-1.157,11.342l17.493,17.493c2.928,2.928,8.11,2.399,11.342-1.157L267.798,44.477
		c6.422,1.391,13.394-0.393,18.386-5.385c4.155-4.155,7.89-15.896,10.477-25.974C298.644,5.395,291.605-1.644,283.882,0.339z"/>
	<path style="opacity:0.22;fill:#5E4534;" d="M286.758,27.6c-4.992,4.992-11.964,6.776-18.386,5.385L144.986,168.774
		c-3.232,3.556-8.414,4.085-11.342,1.157l-17.127-17.127c-3.352,3.242-3.805,8.261-0.94,11.126l17.493,17.493
		c2.928,2.928,8.11,2.399,11.342-1.157L267.798,44.477c6.422,1.391,13.394-0.393,18.386-5.385
		c4.155-4.155,7.89-15.896,10.477-25.974c0.641-2.498,0.328-4.918-0.636-6.99C293.544,14.978,290.305,24.054,286.758,27.6z"/>
	<path style="fill:#5E4534;" d="M34.848,266.192l-4.039-4.039c-2.448-2.448-2.1-7.033,0.836-11.02l21.92-29.762
		c3.994-5.424,10.929-7.406,14.26-4.075l11.882,11.882c3.33,3.33,1.348,10.265-4.075,14.26l-29.762,21.92
		C41.881,268.292,37.296,268.64,34.848,266.192z"/>
	<path style="opacity:0.22;fill:#5E4534;" d="M75.63,235.677l-29.762,21.92c-3.987,2.937-8.572,3.284-11.02,0.836l-4.039-4.039
		c-0.238-0.238-0.441-0.502-0.627-0.777c-1.493,3.28-1.323,6.586,0.627,8.536l4.039,4.039c2.448,2.448,7.033,2.1,11.02-0.836
		l29.762-21.92c5.037-3.709,7.098-9.95,4.701-13.49C79.379,232.047,77.781,234.094,75.63,235.677z"/>
	<path style="fill:#FFCD02;" d="M113.699,205.92L91.08,183.301c-1.562-1.562-1.562-4.095,0-5.657l1.198-1.198
		c1.562-1.562,4.095-1.562,5.657,0l22.619,22.619c1.562,1.562,1.562,4.095,0,5.657l-1.198,1.198
		C117.794,207.482,115.261,207.482,113.699,205.92z"/>
	<path style="fill:#FFCD02;" d="M99.561,220.058l-22.619-22.619c-1.562-1.562-1.562-4.095,0-5.657l1.198-1.198
		c1.562-1.562,4.095-1.562,5.657,0l22.619,22.619c1.562,1.562,1.562,4.095,0,5.657l-1.198,1.198
		C103.656,221.62,101.123,221.62,99.561,220.058z"/>
</g>
<g>
</g>
<g>
</g>
<g>
</g>
<g>
</g>
<g>
</g>
<g>
</g>
<g>
</g>
<g>
</g>
<g>
</g>
<g>
</g>
<g>
</g>
<g>
</g>
<g>
</g>
<g>
</g>
<g>
</g>
</svg>
