<?xml version="1.0" encoding="iso-8859-1"?>
<!-- Generator: Adobe Illustrator 18.0.0, SVG Export Plug-In . SVG Version: 6.00 Build 0)  -->
<!DOCTYPE svg PUBLIC "-//W3C//DTD SVG 1.1//EN" "http://www.w3.org/Graphics/SVG/1.1/DTD/svg11.dtd">
<svg version="1.1" id="Capa_1" xmlns="http://www.w3.org/2000/svg" xmlns:xlink="http://www.w3.org/1999/xlink" x="0px" y="0px"
	 viewBox="0 0 297 297" style="enable-background:new 0 0 297 297;" xml:space="preserve">
<g>
	<path style="fill:#F86E51;" d="M202.389,204.733h21.159c7.226,0,13.083-5.858,13.083-13.083V86.355
		c0-7.226-5.858-13.084-13.083-13.084h-21.159c-7.226,0-13.083,5.858-13.083,13.084V191.65
		C189.305,198.876,195.163,204.733,202.389,204.733z"/>
	<path style="opacity:0.48;fill:#E67E22;" d="M226.632,73.652v110.047c0,7.226-5.858,13.084-13.083,13.084h-23.195
		c1.996,4.674,6.633,7.951,12.036,7.951h21.159c7.226,0,13.084-5.858,13.084-13.083V86.355
		C236.632,80.193,232.367,75.04,226.632,73.652z"/>
	<path style="fill:#DE3E30;" d="M139.287,231.026h21.159c7.226,0,13.083-5.858,13.083-13.083V86.355
		c0-7.226-5.858-13.084-13.083-13.084h-21.159c-7.226,0-13.083,5.858-13.083,13.084v131.588
		C126.204,225.168,132.061,231.026,139.287,231.026z"/>
	<path style="fill:#DE3E30;" d="M165.147,74.156v133.99c0,7.226-5.858,13.083-13.083,13.083h-25.427
		c1.46,5.632,6.562,9.796,12.65,9.796h21.159c7.226,0,13.083-5.858,13.083-13.083V86.355
		C173.53,80.788,170.047,76.046,165.147,74.156z"/>
	<path style="fill:#F86E51;" d="M76.185,257.318h21.159c7.226,0,13.084-5.858,13.084-13.083V86.355
		c0-7.226-5.858-13.084-13.084-13.084H76.185c-7.226,0-13.083,5.858-13.083,13.084v157.88
		C63.102,251.461,68.96,257.318,76.185,257.318z"/>
	<path style="opacity:0.48;fill:#E67E22;" d="M100.081,73.563V234.69c0,7.226-5.858,13.083-13.083,13.083H63.6
		c1.545,5.504,6.588,9.545,12.586,9.545h21.159c7.226,0,13.083-5.858,13.083-13.083V86.355
		C110.428,80.068,105.992,74.822,100.081,73.563z"/>
	<path style="fill:#DE3E30;" d="M13.083,283.611h21.159c7.226,0,13.083-5.858,13.083-13.084V86.355
		c0-7.226-5.858-13.084-13.083-13.084H13.083C5.858,73.271,0,79.129,0,86.355v184.172C0,277.753,5.858,283.611,13.083,283.611z"/>
	<path style="fill:#DE3E30;" d="M37.898,73.799V261.55c0,7.226-5.858,13.083-13.083,13.083H0.667
		c1.723,5.212,6.626,8.978,12.417,8.978h21.159c7.226,0,13.083-5.858,13.083-13.083V86.355
		C47.326,80.399,43.343,75.381,37.898,73.799z"/>
	<circle style="fill:#ECF0F1;" cx="23.663" cy="92.991" r="6.573"/>
	<circle style="fill:#ECF0F1;" cx="86.765" cy="92.991" r="6.573"/>
	<circle style="fill:#ECF0F1;" cx="149.867" cy="92.991" r="6.573"/>
	<circle style="fill:#ECF0F1;" cx="212.969" cy="92.991" r="6.573"/>
	<circle style="fill:#ECF0F1;" cx="23.663" cy="263.891" r="6.573"/>
	<circle style="fill:#ECF0F1;" cx="86.765" cy="237.599" r="6.573"/>
	<circle style="fill:#ECF0F1;" cx="149.867" cy="211.306" r="6.573"/>
	<circle style="fill:#ECF0F1;" cx="212.969" cy="185.014" r="6.573"/>
	<path style="fill:#DE3E30;" d="M262.757,166.896h21.159c7.226,0,13.083-5.858,13.083-13.084V86.355
		c0-7.226-5.858-13.084-13.083-13.084h-21.159c-7.226,0-13.084,5.858-13.084,13.084v67.458
		C249.674,161.038,255.531,166.896,262.757,166.896z"/>
	<path style="fill:#DE3E30;" d="M287.5,73.78v70.587c0,7.226-5.858,13.083-13.083,13.083h-24.22
		c1.577,5.454,6.598,9.446,12.56,9.446h21.159c7.226,0,13.083-5.858,13.083-13.083V86.355C297,80.373,292.981,75.34,287.5,73.78z"/>
	<circle style="fill:#ECF0F1;" cx="273.337" cy="92.991" r="6.573"/>
	<circle style="fill:#ECF0F1;" cx="273.337" cy="147.177" r="6.573"/>
	<path style="fill:#5D7486;" d="M131.162,139.909l143.731-111.72c3.597-2.796,4.247-7.979,1.451-11.577l-0.028-0.036
		c-2.796-3.597-7.979-4.247-11.577-1.451l-143.731,111.72c-3.597,2.796-4.247,7.979-1.451,11.577l0.028,0.036
		C122.381,142.055,127.564,142.705,131.162,139.909z"/>
	<circle style="fill:#345065;" cx="117.404" cy="140.793" r="16.545"/>
</g>
<g>
</g>
<g>
</g>
<g>
</g>
<g>
</g>
<g>
</g>
<g>
</g>
<g>
</g>
<g>
</g>
<g>
</g>
<g>
</g>
<g>
</g>
<g>
</g>
<g>
</g>
<g>
</g>
<g>
</g>
</svg>
