<?xml version="1.0" encoding="iso-8859-1"?>
<!-- Generator: Adobe Illustrator 19.0.0, SVG Export Plug-In . SVG Version: 6.00 Build 0)  -->
<svg version="1.1" id="Capa_1" xmlns="http://www.w3.org/2000/svg" xmlns:xlink="http://www.w3.org/1999/xlink" x="0px" y="0px"
	 viewBox="0 0 440.307 440.307" style="enable-background:new 0 0 440.307 440.307;" xml:space="preserve">
<g>
	<path style="fill:#5C4853;" d="M281.036,168.934c-3.05,0.301-6.134,0.463-9.249,0.463c-0.679,0-1.36-0.013-2.041-0.028l0,69.695
		h11.29L281.036,168.934z"/>
	<path style="fill:#5C4853;" d="M227.646,15.478V32.5c0,19.791,16.101,35.891,35.892,35.891c1.989,0,3.897,0.79,5.303,2.197
		c1.407,1.406,2.197,3.314,2.197,5.303c-0.001,28.052-22.831,50.874-50.892,50.874c-28.042,0-50.872-22.82-50.891-50.869
		c-0.001-1.99,0.788-3.899,2.195-5.307s3.315-2.198,5.305-2.198c19.791,0,35.891-16.101,35.891-35.891V15.479
		c-30.038,3.711-53.374,29.379-53.374,60.413v77.938c4.043,0.476,8.163,0.644,12.337,0.483c3.034-9.99,12.328-17.282,23.295-17.282
		h50.5c10.968,0,20.261,7.292,23.295,17.281c4.174,0.161,8.294-0.008,12.338-0.484V75.892
		C281.036,44.857,257.693,19.188,227.646,15.478z"/>
	<path style="fill:#5C4853;" d="M168.519,169.397c-3.114,0-6.198-0.162-9.248-0.463v70.129l11.289,0.001v-69.695
		C169.879,169.384,169.198,169.397,168.519,169.397z"/>
	<path style="fill:#5C4853;" d="M254.746,259.063l0-97.658c0-0.029-0.003-0.058-0.003-0.088c-0.031-5.126-4.207-9.287-9.34-9.287
		h-50.5c-5.133,0-9.31,4.161-9.34,9.287c0,0.03-0.003,0.058-0.003,0.088v97.658c0,19.075,15.519,34.593,34.593,34.593
		S254.746,278.138,254.746,259.063z M212.654,232.804v-6.5h-4.59c-4.142,0-7.5-3.358-7.5-7.5s3.358-7.5,7.5-7.5h4.59v-36.774
		c0-4.142,3.358-7.5,7.5-7.5s7.5,3.358,7.5,7.5v36.774h4.59c4.142,0,7.5,3.358,7.5,7.5s-3.358,7.5-7.5,7.5h-4.59v6.5
		c0,4.142-3.358,7.5-7.5,7.5S212.654,236.946,212.654,232.804z"/>
	<path style="fill:#FFFFFF;" d="M227.438,68.314c-2.767-2.788-5.225-5.882-7.292-9.245c-2.067,3.363-4.525,6.457-7.291,9.245
		c0.435,2.459,0.674,4.985,0.674,7.569c0,11.837-4.75,22.559-12.441,30.385c5.527,3.48,12.061,5.498,19.058,5.498
		c6.996,0,13.528-2.015,19.054-5.489c-7.689-7.827-12.436-18.551-12.436-30.394C226.763,73.299,227.002,70.773,227.438,68.314z"/>
	<path style="fill:#AB899B;" d="M212.855,68.314c-7.409,7.468-17.1,12.67-27.939,14.424c1.926,9.889,7.927,18.338,16.172,23.53
		c7.691-7.825,12.441-18.547,12.441-30.385C213.529,73.299,213.29,70.773,212.855,68.314z"/>
	<path style="fill:#AB899B;" d="M255.381,82.739c-10.839-1.754-20.532-6.956-27.943-14.424c-0.436,2.459-0.675,4.985-0.675,7.569
		c0,11.843,4.748,22.567,12.436,30.394C247.455,101.086,253.46,92.633,255.381,82.739z"/>
	<path style="fill:#460929;" d="M359.189,76.736c-4.117-0.452-7.821,2.523-8.271,6.64c-3.521,32.199-25.878,57.838-54.882,67.185
		v-74.67C296.036,34.045,261.992,0,220.146,0c-41.837,0-75.874,34.045-75.874,75.892v74.672
		c-29.004-9.347-51.363-34.987-54.883-67.187c-0.45-4.117-4.155-7.092-8.271-6.64c-4.118,0.45-7.091,4.153-6.641,8.271
		c4.367,39.941,33.122,71.393,69.794,81.187v72.869c0,4.142,3.358,7.5,7.5,7.5c4.142,0,7.499-3.357,7.5-7.499l0-70.13
		c3.05,0.301,6.134,0.463,9.248,0.463c0.679,0,1.36-0.013,2.041-0.028v69.695v19.999c0,12.753,4.841,24.394,12.779,33.189
		l6.635,126.359l-21.447,7.071c-3.934,1.297-6.071,5.537-4.774,9.471c1.04,3.154,3.973,5.154,7.122,5.154
		c0.779,0,1.57-0.122,2.35-0.379l26.889-8.865c3.212-1.059,5.318-4.138,5.141-7.516l-6.283-119.653
		c6.428,3.049,13.608,4.762,21.182,4.762c7.575,0,14.755-1.713,21.182-4.763l-6.283,119.653c-0.177,3.378,1.929,6.457,5.141,7.516
		l26.889,8.865c0.78,0.257,1.571,0.379,2.35,0.379c3.149,0,6.082-2,7.122-5.154c1.297-3.934-0.841-8.174-4.774-9.471l-21.447-7.071
		l6.635-126.359c7.937-8.796,12.778-20.437,12.778-33.189l0-19.999l0-69.695c0.681,0.015,1.362,0.028,2.041,0.028
		c3.114,0,6.198-0.162,9.249-0.463v70.129c0.001,4.143,3.358,7.5,7.5,7.5c4.142,0,7.5-3.358,7.5-7.5v-72.87
		c36.67-9.796,65.427-41.249,69.793-81.186C366.28,80.889,363.307,77.187,359.189,76.736z M239.199,106.277
		c-5.526,3.474-12.058,5.489-19.054,5.489c-6.997,0-13.531-2.018-19.058-5.498c-8.245-5.192-14.246-13.641-16.172-23.53
		c10.839-1.754,20.53-6.956,27.939-14.424c2.766-2.788,5.224-5.882,7.291-9.245c2.067,3.363,4.525,6.457,7.292,9.245
		c7.411,7.469,17.104,12.671,27.943,14.424C253.46,92.633,247.455,101.086,239.199,106.277z M185.56,259.063v-97.658
		c0-0.029,0.003-0.058,0.003-0.088c0.031-5.126,4.207-9.287,9.34-9.287h50.5c5.133,0,9.309,4.161,9.34,9.287
		c0,0.03,0.003,0.058,0.003,0.088l0,97.658c0,19.075-15.518,34.593-34.593,34.593S185.56,278.138,185.56,259.063z M268.699,154.312
		c-3.034-9.989-12.327-17.281-23.295-17.281h-50.5c-10.968,0-20.261,7.292-23.295,17.282c-4.174,0.161-8.294-0.007-12.337-0.483
		V75.892c0-31.034,23.336-56.702,53.374-60.413V32.5c0,19.791-16.101,35.891-35.891,35.891c-1.99,0-3.898,0.791-5.305,2.198
		s-2.196,3.317-2.195,5.307c0.02,28.05,22.849,50.869,50.891,50.869c28.061,0,50.891-22.822,50.892-50.874
		c0-1.989-0.79-3.897-2.197-5.303c-1.406-1.406-3.314-2.197-5.303-2.197c-19.791,0-35.892-16.101-35.892-35.891V15.478
		c30.047,3.71,53.391,29.378,53.391,60.413v77.937C276.993,154.304,272.873,154.473,268.699,154.312z"/>
	<path style="fill:#AB899B;" d="M227.654,232.804v-6.5h4.59c4.142,0,7.5-3.358,7.5-7.5s-3.358-7.5-7.5-7.5h-4.59v-36.774
		c0-4.142-3.358-7.5-7.5-7.5s-7.5,3.358-7.5,7.5v36.774h-4.59c-4.142,0-7.5,3.358-7.5,7.5s3.358,7.5,7.5,7.5h4.59v6.5
		c0,4.142,3.358,7.5,7.5,7.5S227.654,236.946,227.654,232.804z"/>
</g>
<g>
</g>
<g>
</g>
<g>
</g>
<g>
</g>
<g>
</g>
<g>
</g>
<g>
</g>
<g>
</g>
<g>
</g>
<g>
</g>
<g>
</g>
<g>
</g>
<g>
</g>
<g>
</g>
<g>
</g>
</svg>
