<?xml version="1.0" encoding="iso-8859-1"?>
<!-- Generator: Adobe Illustrator 19.0.0, SVG Export Plug-In . SVG Version: 6.00 Build 0)  -->
<svg version="1.1" id="Capa_1" xmlns="http://www.w3.org/2000/svg" xmlns:xlink="http://www.w3.org/1999/xlink" x="0px" y="0px"
	 viewBox="0 0 443.71 443.71" style="enable-background:new 0 0 443.71 443.71;" xml:space="preserve">
<g>
	<path style="fill:#F7D0BC;" d="M191.92,79.294c0,19.781,16.093,35.875,35.875,35.875c19.79,0,35.891-16.093,35.891-35.875
		c0-2.924-0.349-5.798-1.035-8.59h-69.696C192.269,73.497,191.92,76.37,191.92,79.294z M217.254,84.1l7.494-3.333
		c1.939-0.862,4.153-0.862,6.092-0.002l7.506,3.333c3.786,1.681,5.492,6.113,3.811,9.898c-1.242,2.796-3.984,4.458-6.858,4.458
		c-1.017,0-2.051-0.208-3.04-0.647l-4.46-1.98l-4.448,1.979c-3.786,1.684-8.217-0.02-9.901-3.804
		C211.766,90.216,213.469,85.784,217.254,84.1z"/>
	<path style="fill:#A9603A;" d="M266.599,55.705V27.5c0-6.893-5.607-12.5-12.5-12.5H201.5c-6.893,0-12.5,5.607-12.5,12.5v28.205
		H266.599z M206.5,30h42.599c4.142,0,7.5,3.358,7.5,7.5s-3.358,7.5-7.5,7.5H206.5c-4.142,0-7.5-3.358-7.5-7.5S202.358,30,206.5,30z"
		/>
	<path style="fill:#460929;" d="M181.5,133.707c4.142,0,7.5-3.358,7.5-7.5v-14.053c9.339,11.009,23.261,18.015,38.794,18.015
		c15.538,0,29.462-7.005,38.805-18.013v14.051c0,4.142,3.358,7.5,7.5,7.5s7.5-3.358,7.5-7.5V27.5c0-15.164-12.336-27.5-27.5-27.5
		H201.5C186.337,0,174,12.336,174,27.5v98.707C174,130.349,177.358,133.707,181.5,133.707z M201.5,15h52.599
		c6.893,0,12.5,5.607,12.5,12.5v28.205H189V27.5C189,20.607,194.608,15,201.5,15z M263.685,79.294
		c0,19.781-16.101,35.875-35.891,35.875c-19.781,0-35.875-16.093-35.875-35.875c0-2.925,0.349-5.798,1.034-8.59h69.696
		C263.336,73.497,263.685,76.37,263.685,79.294z"/>
	<path style="fill:#460929;" d="M206.5,45h42.599c4.142,0,7.5-3.358,7.5-7.5s-3.358-7.5-7.5-7.5H206.5c-4.142,0-7.5,3.358-7.5,7.5
		S202.358,45,206.5,45z"/>
	<polygon style="fill:#A9603A;" points="195.754,422.63 197.622,422.014 195.725,385.877 188.538,385.877 	"/>
	<polygon style="fill:#A9603A;" points="259.88,385.877 257.982,422.014 259.851,422.63 267.067,385.877 	"/>
	<rect x="216.209" y="155.433" style="fill:#FF5700;" width="23.186" height="69.533"/>
	<path style="fill:#FF5700;" d="M262.396,164.776c0-4.695-3.484-8.581-8-9.235v69.425h8L262.396,164.776z"/>
	<path style="fill:#FF5700;" d="M201.209,155.541c-4.498,0.652-7.969,4.51-7.997,9.179c0,0.03-0.003,0.059-0.003,0.088v60.158h8
		V155.541z"/>
	<path style="fill:#5C4853;" d="M254.395,239.966v2.5c0,4.142-3.358,7.5-7.5,7.5s-7.5-3.358-7.5-7.5v-2.5h-23.186v2.5
		c0,4.142-3.358,7.5-7.5,7.5s-7.5-3.358-7.5-7.5v-2.5h-8v22.5c0,19.075,15.519,34.593,34.593,34.593s34.593-15.519,34.593-34.593
		l0-22.5H254.395z"/>
	<path style="fill:#460929;" d="M223.351,97.805l4.448-1.979l4.46,1.98c0.989,0.439,2.023,0.647,3.04,0.647
		c2.874,0,5.617-1.662,6.858-4.458c1.681-3.786-0.025-8.217-3.811-9.898l-7.506-3.333c-1.939-0.86-4.153-0.86-6.092,0.002
		l-7.494,3.333c-3.785,1.684-5.488,6.116-3.804,9.901C215.134,97.785,219.565,99.489,223.351,97.805z"/>
	<path style="fill:#460929;" d="M359.432,245.277c-2.929-2.929-7.678-2.929-10.606,0l-3.495,3.495
		c-0.155-17.374-5.116-34.41-14.616-49.475c-12.549-19.901-31.615-34.136-54.07-40.523c-2.68-10.529-12.241-18.34-23.593-18.34
		h-18.189c-1.031-2.911-3.8-5-7.064-5s-6.033,2.089-7.064,5h-18.183c-10.969,0-20.263,7.294-23.296,17.285
		c-19.182,0.755-37.782-5.334-52.899-17.471c-16.595-13.324-27.007-32.313-29.32-53.468c-0.45-4.118-4.155-7.094-8.271-6.641
		c-4.118,0.45-7.091,4.153-6.641,8.271c2.749,25.139,15.122,47.702,34.84,63.534c16.971,13.626,37.634,20.862,59.089,20.862
		c0.717,0,1.435-0.013,2.153-0.029v89.689c0,12.752,4.841,24.393,12.778,33.189l3.95,75.222h-15.515
		c-2.242,0-4.367,1.003-5.792,2.735c-1.425,1.731-2,4.01-1.568,6.21l9.334,47.542l-5.222,1.722
		c-3.934,1.297-6.071,5.538-4.774,9.472c1.04,3.154,3.973,5.153,7.122,5.153c0.779,0,1.57-0.122,2.35-0.379l11.323-3.733
		c0.034-0.01,0.066-0.022,0.1-0.033l15.466-5.099c3.212-1.06,5.318-4.138,5.141-7.516l-6.283-119.653
		c6.428,3.049,13.608,4.763,21.183,4.763c7.575,0,14.755-1.713,21.182-4.763l-6.283,119.653c-0.177,3.378,1.929,6.457,5.141,7.516
		l15.472,5.101c0.031,0.01,0.061,0.021,0.092,0.03l11.324,3.734c0.78,0.257,1.571,0.379,2.35,0.379c3.149,0,6.082-2,7.122-5.153
		c1.297-3.934-0.841-8.174-4.774-9.472l-5.222-1.722l9.334-47.542c0.432-2.2-0.143-4.479-1.568-6.21
		c-1.424-1.731-3.549-2.735-5.792-2.735h-15.515l3.95-75.222c7.937-8.795,12.778-20.437,12.778-33.189l0-87.703
		c16.776,5.947,30.992,17.248,40.631,32.535c10.979,17.411,14.741,37.947,10.723,58.055l-27.536,27.537l-10.371,10.371l-7.071,7.071
		c-2.929,2.929-2.929,7.678,0,10.606c1.464,1.464,3.384,2.197,5.303,2.197c1.722,0,3.441-0.594,4.834-1.773l8.187,17.283
		c0.13,0.275,0.277,0.541,0.437,0.795c1.125,1.781,2.958,3.02,5.06,3.384c0.427,0.074,0.855,0.11,1.281,0.11
		c1.971,0,3.884-0.778,5.303-2.197l24.513-24.513c0.431-0.431,0.803-0.908,1.112-1.418c0.772-1.275,1.151-2.76,1.075-4.263
		c-0.015-0.3-0.049-0.602-0.101-0.902c-0.26-1.502-0.967-2.866-1.998-3.933c-0.619-0.64-1.355-1.173-2.181-1.564l-17.252-8.172
		l40.087-40.087C362.361,252.955,362.361,248.206,359.432,245.277z M227.803,297.059c-19.075,0-34.593-15.519-34.593-34.593v-22.5h8
		v2.5c0,4.142,3.358,7.5,7.5,7.5s7.5-3.358,7.5-7.5v-2.5h23.186v2.5c0,4.142,3.358,7.5,7.5,7.5s7.5-3.358,7.5-7.5v-2.5h8l0,22.5
		C262.395,281.541,246.877,297.059,227.803,297.059z M216.209,155.433h23.186v69.533h-23.186V155.433z M254.395,155.541
		c4.516,0.654,8,4.541,8,9.235l0,60.189h-8V155.541z M193.209,164.808c0-0.029,0.003-0.058,0.003-0.088
		c0.028-4.669,3.499-8.527,7.997-9.179v69.425h-8V164.808z M197.622,422.014l-1.868,0.616l-7.216-36.753h7.187L197.622,422.014z
		 M257.982,422.014l1.897-36.137h7.187l-7.216,36.753L257.982,422.014z M311.096,322.605l-5.91-12.476l2.896-2.896l12.476,5.91
		L311.096,322.605z"/>
	<polygon style="fill:#ADEBEB;" points="305.186,310.129 311.096,322.605 320.558,313.143 308.083,307.233 	"/>
</g>
<g>
</g>
<g>
</g>
<g>
</g>
<g>
</g>
<g>
</g>
<g>
</g>
<g>
</g>
<g>
</g>
<g>
</g>
<g>
</g>
<g>
</g>
<g>
</g>
<g>
</g>
<g>
</g>
<g>
</g>
</svg>
