<?xml version="1.0" encoding="iso-8859-1"?>
<!-- Generator: Adobe Illustrator 19.0.0, SVG Export Plug-In . SVG Version: 6.00 Build 0)  -->
<svg version="1.1" id="Capa_1" xmlns="http://www.w3.org/2000/svg" xmlns:xlink="http://www.w3.org/1999/xlink" x="0px" y="0px"
	 viewBox="0 0 465.305 465.305" style="enable-background:new 0 0 465.305 465.305;" xml:space="preserve">
<g>
	<path style="fill:#FF5700;" d="M292.653,389.21c-4.142,0-7.5-3.358-7.5-7.5c0-4.142,3.358-7.5,7.5-7.5
		c0.299,0,0.592,0.022,0.882,0.056v-44.783c0-0.11-0.009-0.218-0.009-0.328c-0.287,0.033-0.577,0.055-0.873,0.055
		c-4.142,0-7.5-3.358-7.5-7.5c0-3.785,2.807-6.907,6.452-7.418c-1.65-6.435-4.336-12.53-7.969-18.072
		c-1.369,1.813-3.536,2.99-5.982,2.99c-4.142,0-7.5-3.358-7.5-7.5c0-2.899,1.647-5.409,4.055-6.657
		c-0.707-0.66-1.428-1.307-2.17-1.938h-78.775c-0.741,0.63-1.461,1.277-2.168,1.936c2.409,1.248,4.058,3.759,4.058,6.659
		c0,4.142-3.358,7.5-7.5,7.5c-2.448,0-4.615-1.178-5.984-2.992c-3.633,5.543-6.318,11.638-7.968,18.074
		c3.645,0.511,6.452,3.633,6.452,7.418c0,4.142-3.358,7.5-7.5,7.5c-0.296,0-0.586-0.022-0.873-0.055c0,0.11-0.009,0.218-0.009,0.328
		v44.783c0.29-0.034,0.583-0.056,0.882-0.056c4.142,0,7.5,3.358,7.5,7.5c0,4.142-3.358,7.5-7.5,7.5
		c-0.299,0-0.592-0.022-0.882-0.056v16.509c0.04,0.03,0.082,0.062,0.121,0.092c2.911,2.228,4.514,3.455,8.504,3.455
		s5.594-1.228,8.505-3.456c3.607-2.762,8.549-6.544,17.621-6.544c9.073,0,14.015,3.783,17.622,6.545
		c2.911,2.228,4.514,3.455,8.504,3.455s5.594-1.228,8.505-3.456c3.607-2.762,8.549-6.544,17.622-6.544s14.016,3.782,17.624,6.544
		c2.911,2.228,4.515,3.456,8.507,3.456c3.991,0,5.595-1.228,8.506-3.456c0.04-0.031,0.083-0.063,0.124-0.095v-16.506
		C293.245,389.188,292.952,389.21,292.653,389.21z M262.653,314.21c4.142,0,7.5,3.358,7.5,7.5c0,4.142-3.358,7.5-7.5,7.5
		s-7.5-3.358-7.5-7.5C255.153,317.568,258.511,314.21,262.653,314.21z M247.653,284.21c4.142,0,7.5,3.358,7.5,7.5
		c0,4.142-3.358,7.5-7.5,7.5s-7.5-3.358-7.5-7.5C240.153,287.568,243.511,284.21,247.653,284.21z M232.653,314.21
		c4.142,0,7.5,3.358,7.5,7.5c0,4.142-3.358,7.5-7.5,7.5s-7.5-3.358-7.5-7.5C225.153,317.568,228.511,314.21,232.653,314.21z
		 M217.653,284.21c4.142,0,7.5,3.358,7.5,7.5c0,4.142-3.358,7.5-7.5,7.5s-7.5-3.358-7.5-7.5
		C210.153,287.568,213.511,284.21,217.653,284.21z M202.653,314.21c4.142,0,7.5,3.358,7.5,7.5c0,4.142-3.358,7.5-7.5,7.5
		s-7.5-3.358-7.5-7.5C195.153,317.568,198.511,314.21,202.653,314.21z M187.653,359.21c-4.142,0-7.5-3.358-7.5-7.5
		c0-4.142,3.358-7.5,7.5-7.5s7.5,3.358,7.5,7.5C195.153,355.852,191.795,359.21,187.653,359.21z M202.653,389.21
		c-4.142,0-7.5-3.358-7.5-7.5c0-4.142,3.358-7.5,7.5-7.5s7.5,3.358,7.5,7.5C210.153,385.852,206.795,389.21,202.653,389.21z
		 M217.653,359.21c-4.142,0-7.5-3.358-7.5-7.5c0-4.142,3.358-7.5,7.5-7.5s7.5,3.358,7.5,7.5
		C225.153,355.852,221.795,359.21,217.653,359.21z M232.653,389.21c-4.142,0-7.5-3.358-7.5-7.5c0-4.142,3.358-7.5,7.5-7.5
		s7.5,3.358,7.5,7.5C240.153,385.852,236.795,389.21,232.653,389.21z M247.653,359.21c-4.142,0-7.5-3.358-7.5-7.5
		c0-4.142,3.358-7.5,7.5-7.5s7.5,3.358,7.5,7.5C255.153,355.852,251.795,359.21,247.653,359.21z M262.653,389.21
		c-4.142,0-7.5-3.358-7.5-7.5c0-4.142,3.358-7.5,7.5-7.5s7.5,3.358,7.5,7.5C270.153,385.852,266.795,389.21,262.653,389.21z
		 M277.653,359.21c-4.142,0-7.5-3.358-7.5-7.5c0-4.142,3.358-7.5,7.5-7.5s7.5,3.358,7.5,7.5
		C285.153,355.852,281.795,359.21,277.653,359.21z"/>
	<path style="fill:#FF5700;" d="M253.692,204.085c-5.658,0-10.975,3.499-14.586,9.601c-1.351,2.28-3.804,3.679-6.454,3.679
		s-5.104-1.399-6.454-3.679c-3.611-6.102-8.932-9.601-14.596-9.601c-5.137,0-9.987,2.892-13.541,7.989l-0.001,56.041h69.181v-56.039
		C263.68,206.978,258.827,204.085,253.692,204.085z"/>
	<path style="fill:#FF5700;" d="M267.281,417.666c-2.911-2.228-4.515-3.456-8.507-3.456c-3.99,0-5.594,1.228-8.505,3.456
		c-3.607,2.762-8.549,6.544-17.622,6.544c-9.072,0-14.014-3.783-17.621-6.544c-2.911-2.228-4.515-3.456-8.505-3.456
		s-5.593,1.227-8.504,3.455c-3.607,2.762-8.549,6.545-17.622,6.545c-3.409,0-6.234-0.534-8.625-1.348v11.404
		c0.29-0.034,0.583-0.056,0.882-0.056c4.142,0,7.5,3.358,7.5,7.5c0,4.142-3.358,7.5-7.5,7.5c-0.299,0-0.592-0.022-0.882-0.056v1.151
		h121.765v-1.151c-0.29,0.034-0.583,0.056-0.882,0.056c-4.142,0-7.5-3.358-7.5-7.5c0-4.142,3.358-7.5,7.5-7.5
		c0.299,0,0.592,0.022,0.882,0.056v-11.405c-2.392,0.814-5.219,1.349-8.63,1.349C275.832,424.21,270.89,420.428,267.281,417.666z
		 M202.653,449.21c-4.142,0-7.5-3.358-7.5-7.5c0-4.142,3.358-7.5,7.5-7.5s7.5,3.358,7.5,7.5
		C210.153,445.852,206.795,449.21,202.653,449.21z M232.653,449.21c-4.142,0-7.5-3.358-7.5-7.5c0-4.142,3.358-7.5,7.5-7.5
		s7.5,3.358,7.5,7.5C240.153,445.852,236.795,449.21,232.653,449.21z M262.653,449.21c-4.142,0-7.5-3.358-7.5-7.5
		c0-4.142,3.358-7.5,7.5-7.5s7.5,3.358,7.5,7.5C270.153,445.852,266.795,449.21,262.653,449.21z"/>
	<path style="fill:#5C4853;" d="M232.652,50c9.649,0,17.5-7.851,17.5-17.5s-7.851-17.5-17.5-17.5s-17.5,7.851-17.5,17.5
		S223.003,50,232.652,50z"/>
	<path style="fill:#EDB99E;" d="M257.902,177.035h-50.5c-5.15,0-9.34,4.19-9.34,9.34v6.104c4.212-2.204,8.814-3.394,13.54-3.394
		c7.738,0,15.149,3.175,21.05,8.794c5.897-5.619,13.306-8.794,21.04-8.794c4.728,0,9.333,1.192,13.55,3.4v-6.11
		C267.242,181.225,263.053,177.035,257.902,177.035z"/>
	<path style="fill:#460929;" d="M372.246,102.375c-4.1-0.473-7.836,2.472-8.313,6.587c-4.036,34.816-29.875,62.595-64.295,69.125
		c-6.049,1.145-12.226,1.569-18.427,1.284c-3.016-10.017-12.322-17.335-23.308-17.335h-50.5c-10.986,0-20.292,7.319-23.308,17.335
		c-6.202,0.285-12.378-0.138-18.425-1.283c-34.423-6.53-60.262-34.309-64.298-69.125c-0.478-4.115-4.211-7.064-8.313-6.587
		c-4.115,0.477-7.063,4.199-6.587,8.314c2.37,20.446,11.078,39.141,25.182,54.065c13.628,14.421,31.819,24.389,51.225,28.07
		c5.767,1.092,11.626,1.639,17.517,1.639c0.889,0,1.778-0.014,2.668-0.039l-0.002,77.651c-16.754,14.465-26.29,35.183-26.29,57.408
		v69.838c-0.8-0.066-1.625-0.111-2.5-0.111c-4.143,0-7.5,3.358-7.5,7.5s3.357,7.5,7.5,7.5c0.955,0,1.768,0.075,2.5,0.212v43.383
		c0,4.142,3.357,7.5,7.5,7.5h136.765c4.143,0,7.5-3.358,7.5-7.5v-43.383c0.732-0.137,1.545-0.212,2.5-0.212
		c4.143,0,7.5-3.358,7.5-7.5s-3.357-7.5-7.5-7.5c-0.875,0-1.7,0.045-2.5,0.111v-69.838c0-22.223-9.537-42.94-26.293-57.405v-77.654
		c0.89,0.025,1.779,0.039,2.668,0.039c5.891,0,11.751-0.547,17.52-1.639c19.402-3.681,37.594-13.649,51.222-28.07
		c14.104-14.924,22.812-33.62,25.182-54.065C379.31,106.574,376.361,102.852,372.246,102.375z M293.535,434.266v14.887v1.151
		H171.771v-1.151v-14.887v-11.404c2.391,0.813,5.216,1.348,8.625,1.348c9.073,0,14.015-3.783,17.622-6.545
		c2.911-2.228,4.514-3.455,8.504-3.455s5.594,1.228,8.505,3.456c3.607,2.762,8.549,6.544,17.621,6.544
		c9.073,0,14.015-3.783,17.622-6.544c2.911-2.228,4.515-3.456,8.505-3.456c3.992,0,5.596,1.228,8.507,3.456
		c3.608,2.762,8.551,6.544,17.624,6.544c3.411,0,6.238-0.535,8.63-1.349V434.266z M293.411,405.754
		c-2.911,2.228-4.515,3.456-8.506,3.456c-3.992,0-5.596-1.228-8.507-3.456c-3.608-2.762-8.551-6.544-17.624-6.544
		s-14.015,3.783-17.622,6.544c-2.911,2.228-4.515,3.456-8.505,3.456s-5.593-1.227-8.504-3.455
		c-3.607-2.762-8.549-6.545-17.622-6.545c-9.072,0-14.014,3.783-17.621,6.544c-2.911,2.228-4.515,3.456-8.505,3.456
		s-5.593-1.227-8.504-3.455c-0.04-0.03-0.081-0.062-0.121-0.092v-16.509v-14.887v-44.783c0-0.11,0.009-0.218,0.009-0.328
		c0.027-5.086,0.691-10.066,1.921-14.864c1.65-6.436,4.335-12.531,7.968-18.074c2.653-4.048,5.812-7.793,9.426-11.167
		c0.706-0.659,1.427-1.306,2.168-1.936h78.775c0.742,0.63,1.463,1.278,2.17,1.938c3.615,3.374,6.774,7.119,9.428,11.167
		c3.633,5.542,6.319,11.637,7.969,18.072c1.23,4.797,1.895,9.777,1.921,14.864c0,0.11,0.009,0.218,0.009,0.328v44.783v14.887v16.506
		C293.494,405.691,293.451,405.724,293.411,405.754z M198.061,268.115l0.001-56.041c3.553-5.097,8.404-7.989,13.541-7.989
		c5.664,0,10.984,3.499,14.596,9.601c1.351,2.28,3.804,3.679,6.454,3.679s5.104-1.399,6.454-3.679
		c3.611-6.102,8.928-9.601,14.586-9.601c5.134,0,9.988,2.893,13.55,7.991v56.039H198.061z M253.692,189.085
		c-7.734,0-15.143,3.175-21.04,8.794c-5.9-5.619-13.312-8.794-21.05-8.794c-4.726,0-9.328,1.19-13.54,3.394v-6.104
		c0-5.15,4.189-9.34,9.34-9.34h50.5c5.15,0,9.34,4.19,9.34,9.34v6.11C263.026,190.277,258.42,189.085,253.692,189.085z"/>
	<path style="fill:#EDB99E;" d="M196.77,100.891c0,19.781,16.094,35.875,35.875,35.875c19.79,0,35.891-16.093,35.891-35.875
		c0-19.791-16.101-35.891-35.891-35.891C212.863,65,196.77,81.101,196.77,100.891z"/>
	<path style="fill:#460929;" d="M232.645,151.766c28.062,0,50.891-22.822,50.891-50.875c0-19.805-11.379-36.992-27.937-45.398
		c5.899-5.887,9.554-14.021,9.554-22.993c0-17.921-14.579-32.5-32.5-32.5s-32.5,14.579-32.5,32.5c0,8.971,3.654,17.104,9.551,22.99
		c-16.555,8.405-27.934,25.594-27.934,45.401C181.77,128.944,204.592,151.766,232.645,151.766z M232.652,15
		c9.649,0,17.5,7.851,17.5,17.5s-7.851,17.5-17.5,17.5s-17.5-7.851-17.5-17.5S223.003,15,232.652,15z M268.535,100.891
		c0,19.781-16.101,35.875-35.891,35.875c-19.781,0-35.875-16.093-35.875-35.875C196.77,81.101,212.863,65,232.645,65
		C252.435,65,268.535,81.101,268.535,100.891z"/>
	<circle style="fill:#FFFFFF;" cx="217.653" cy="291.71" r="7.5"/>
	<path style="fill:#FFFFFF;" d="M180.153,321.71c0-3.786-2.807-6.907-6.452-7.418c-1.23,4.797-1.894,9.777-1.921,14.864
		c0.287,0.033,0.577,0.055,0.873,0.055C176.795,329.21,180.153,325.852,180.153,321.71z"/>
	<path style="fill:#FFFFFF;" d="M187.653,299.21c4.142,0,7.5-3.358,7.5-7.5c0-2.9-1.649-5.411-4.058-6.659
		c-3.614,3.374-6.773,7.119-9.426,11.167C183.038,298.032,185.205,299.21,187.653,299.21z"/>
	<circle style="fill:#FFFFFF;" cx="247.653" cy="291.71" r="7.5"/>
	<circle style="fill:#FFFFFF;" cx="202.653" cy="321.71" r="7.5"/>
	<path style="fill:#FFFFFF;" d="M270.153,291.71c0,4.142,3.358,7.5,7.5,7.5c2.447,0,4.613-1.177,5.982-2.99
		c-2.654-4.048-5.813-7.793-9.428-11.167C271.8,286.301,270.153,288.811,270.153,291.71z"/>
	<circle style="fill:#FFFFFF;" cx="232.653" cy="321.71" r="7.5"/>
	<circle style="fill:#FFFFFF;" cx="262.653" cy="321.71" r="7.5"/>
	<path style="fill:#FFFFFF;" d="M285.153,321.71c0,4.142,3.358,7.5,7.5,7.5c0.296,0,0.586-0.022,0.873-0.055
		c-0.027-5.086-0.691-10.066-1.921-14.864C287.96,314.803,285.153,317.925,285.153,321.71z"/>
	<circle style="fill:#FFFFFF;" cx="217.653" cy="351.71" r="7.5"/>
	<path style="fill:#FFFFFF;" d="M180.153,381.71c0-4.142-3.358-7.5-7.5-7.5c-0.299,0-0.592,0.022-0.882,0.056v14.887
		c0.29,0.034,0.583,0.056,0.882,0.056C176.795,389.21,180.153,385.852,180.153,381.71z"/>
	<circle style="fill:#FFFFFF;" cx="187.653" cy="351.71" r="7.5"/>
	<circle style="fill:#FFFFFF;" cx="247.653" cy="351.71" r="7.5"/>
	<circle style="fill:#FFFFFF;" cx="202.653" cy="381.71" r="7.5"/>
	<circle style="fill:#FFFFFF;" cx="277.653" cy="351.71" r="7.5"/>
	<circle style="fill:#FFFFFF;" cx="232.653" cy="381.71" r="7.5"/>
	<circle style="fill:#FFFFFF;" cx="262.653" cy="381.71" r="7.5"/>
	<path style="fill:#FFFFFF;" d="M285.153,381.71c0,4.142,3.358,7.5,7.5,7.5c0.299,0,0.592-0.022,0.882-0.056v-14.887
		c-0.29-0.034-0.583-0.056-0.882-0.056C288.511,374.21,285.153,377.568,285.153,381.71z"/>
	<path style="fill:#FFFFFF;" d="M180.153,441.71c0-4.142-3.358-7.5-7.5-7.5c-0.299,0-0.592,0.022-0.882,0.056v14.887
		c0.29,0.034,0.583,0.056,0.882,0.056C176.795,449.21,180.153,445.852,180.153,441.71z"/>
	<circle style="fill:#FFFFFF;" cx="202.653" cy="441.71" r="7.5"/>
	<circle style="fill:#FFFFFF;" cx="232.653" cy="441.71" r="7.5"/>
	<circle style="fill:#FFFFFF;" cx="262.653" cy="441.71" r="7.5"/>
	<path style="fill:#FFFFFF;" d="M285.153,441.71c0,4.142,3.358,7.5,7.5,7.5c0.299,0,0.592-0.022,0.882-0.056v-14.887
		c-0.29-0.034-0.583-0.056-0.882-0.056C288.511,434.21,285.153,437.568,285.153,441.71z"/>
</g>
<g>
</g>
<g>
</g>
<g>
</g>
<g>
</g>
<g>
</g>
<g>
</g>
<g>
</g>
<g>
</g>
<g>
</g>
<g>
</g>
<g>
</g>
<g>
</g>
<g>
</g>
<g>
</g>
<g>
</g>
</svg>
