<?xml version="1.0" encoding="iso-8859-1"?>
<!-- Generator: Adobe Illustrator 19.0.0, SVG Export Plug-In . SVG Version: 6.00 Build 0)  -->
<svg version="1.1" id="Capa_1" xmlns="http://www.w3.org/2000/svg" xmlns:xlink="http://www.w3.org/1999/xlink" x="0px" y="0px"
	 viewBox="0 0 422.503 422.503" style="enable-background:new 0 0 422.503 422.503;" xml:space="preserve">
<g>
	<rect x="204.659" y="134.226" style="fill:#FFFFFF;" width="13.186" height="99.533"/>
	<path style="fill:#FFFFFF;" d="M176.659,143.569v90.189h13v-99.533h-3.657C180.85,134.226,176.659,138.417,176.659,143.569z"/>
	<path style="fill:#FFFFFF;" d="M232.844,134.226v99.533h13l0.001-90.189c0-5.152-4.191-9.343-9.344-9.343H232.844z"/>
	<path style="fill:#AB899B;" d="M245.016,248.759h-12.172v2.5c0,4.142-3.357,7.5-7.5,7.5s-7.5-3.358-7.5-7.5v-2.5h-13.186v2.5
		c0,4.142-3.357,7.5-7.5,7.5s-7.5-3.358-7.5-7.5v-2.5h-12.172c3.437,15.479,17.266,27.093,33.764,27.093
		S241.579,264.238,245.016,248.759z"/>
	<path style="fill:#460929;" d="M260.844,241.259v-1.496c25.198-3.648,44.621-25.381,44.621-51.573
		c0-26.556-19.968-48.521-45.676-51.708c-3.042-9.976-12.33-17.256-23.288-17.256h-50.5c-10.958,0-20.245,7.28-23.287,17.256
		c-25.708,3.186-45.677,25.151-45.677,51.708c0,26.192,19.423,47.925,44.621,51.573v1.477c0.011,12.795,4.849,24.422,12.778,33.208
		l6.635,126.359l-21.447,7.071c-3.934,1.297-6.071,5.538-4.774,9.472c1.04,3.154,3.973,5.153,7.122,5.153
		c0.778,0,1.57-0.122,2.35-0.379l26.889-8.865c3.213-1.06,5.318-4.138,5.141-7.516l-6.283-119.653
		c6.428,3.05,13.609,4.763,21.184,4.763c7.575,0,14.755-1.713,21.183-4.763l-6.282,119.653c-0.178,3.378,1.928,6.457,5.141,7.516
		l26.889,8.865c0.78,0.257,1.571,0.379,2.35,0.379c3.149,0,6.082-2,7.122-5.153c1.297-3.934-0.841-8.174-4.774-9.472l-21.447-7.071
		l6.634-126.358C256.003,265.653,260.844,254.012,260.844,241.259z M204.659,233.759v-99.533h13.186v99.533H204.659z
		 M245.845,143.569l-0.001,90.189h-13v-99.533h3.657C241.654,134.226,245.845,138.417,245.845,143.569z M189.659,233.759h-13
		v-90.189c0-5.152,4.191-9.343,9.343-9.343h3.657V233.759z M177.487,248.759h12.172v2.5c0,4.142,3.357,7.5,7.5,7.5
		s7.5-3.358,7.5-7.5v-2.5h13.186v2.5c0,4.142,3.357,7.5,7.5,7.5s7.5-3.358,7.5-7.5v-2.5h12.172
		c-3.437,15.479-17.266,27.093-33.764,27.093S180.924,264.238,177.487,248.759z M290.465,188.189c0,17.9-12.736,32.88-29.621,36.358
		l0.001-72.716C277.73,155.31,290.465,170.29,290.465,188.189z M132.038,188.189c0-17.9,12.736-32.88,29.621-36.358v72.717
		C144.773,221.07,132.038,206.089,132.038,188.189z"/>
	<path style="fill:#F7D0BC;" d="M211.257,61.961c12.209,0,23.365,5.5,30.718,14.633c3.273-5.411,5.159-11.751,5.159-18.524
		c0-2.909-0.351-5.776-1.04-8.57h-69.686c-0.689,2.794-1.04,5.661-1.04,8.57c0,6.773,1.887,13.112,5.161,18.523
		C187.885,67.461,199.044,61.961,211.257,61.961z"/>
	<path style="fill:#FFB13A;" d="M211.257,76.961c-8.278,0-15.77,4.077-20.262,10.712c5.771,3.963,12.75,6.288,20.264,6.288
		c7.509,0,14.483-2.324,20.251-6.286C227.021,81.039,219.532,76.961,211.257,76.961z"/>
	<polygon style="fill:#5C4853;" points="241.616,34.5 236.068,15 186.435,15 180.887,34.5 	"/>
	<path style="fill:#460929;" d="M138.751,49.5h22.354c-0.481,2.818-0.737,5.679-0.737,8.57c0,14.366,5.993,27.352,15.599,36.614
		c0.261,0.287,0.539,0.56,0.846,0.807c9.07,8.356,21.17,13.471,34.446,13.471c13.274,0,25.372-5.117,34.44-13.475
		c0.299-0.24,0.57-0.507,0.824-0.786c9.613-9.263,15.611-22.255,15.611-36.63c0-2.892-0.256-5.752-0.737-8.57h22.354
		c4.143,0,7.5-3.358,7.5-7.5s-3.357-7.5-7.5-7.5h-26.539l-8.267-29.053C248.029,2.224,245.083,0,241.732,0h-60.961
		c-3.352,0-6.297,2.224-7.214,5.447L165.291,34.5h-26.539c-4.143,0-7.5,3.358-7.5,7.5S134.609,49.5,138.751,49.5z M236.068,15
		l5.548,19.5h-60.729l5.548-19.5H236.068z M176.408,49.5h69.686c0.689,2.794,1.04,5.661,1.04,8.57
		c0,6.773-1.886,13.113-5.159,18.524c-7.353-9.133-18.509-14.633-30.718-14.633c-12.213,0-23.373,5.5-30.728,14.632
		c-3.274-5.411-5.161-11.751-5.161-18.523C175.369,55.161,175.719,52.294,176.408,49.5z M190.996,87.674
		c4.491-6.636,11.983-10.712,20.262-10.712c8.274,0,15.763,4.078,20.253,10.715c-5.768,3.961-12.742,6.286-20.251,6.286
		C203.745,93.962,196.767,91.636,190.996,87.674z"/>
</g>
<g>
</g>
<g>
</g>
<g>
</g>
<g>
</g>
<g>
</g>
<g>
</g>
<g>
</g>
<g>
</g>
<g>
</g>
<g>
</g>
<g>
</g>
<g>
</g>
<g>
</g>
<g>
</g>
<g>
</g>
</svg>
