<?xml version="1.0" encoding="iso-8859-1"?>
<!-- Generator: Adobe Illustrator 19.0.0, SVG Export Plug-In . SVG Version: 6.00 Build 0)  -->
<svg version="1.1" id="Capa_1" xmlns="http://www.w3.org/2000/svg" xmlns:xlink="http://www.w3.org/1999/xlink" x="0px" y="0px"
	 viewBox="0 0 457.788 457.788" style="enable-background:new 0 0 457.788 457.788;" xml:space="preserve">
<g>
	<path style="fill:#5C4853;" d="M228.941,38.741c5.488-0.031,9.943-4.502,9.943-9.997c0-5.514-4.486-10-10-10s-10,4.486-10,10
		c0,5.494,4.454,9.965,9.942,9.997c0.019,0,0.037-0.001,0.057-0.001C228.902,38.739,228.921,38.741,228.941,38.741z"/>
	<path style="fill:#A9603A;" d="M228.882,125.505c19.094,0,34.746-14.994,35.812-33.825c-3.762,0.62-7.539,0.935-11.297,0.935
		c-20.235,0-39.886-8.798-53.335-24.348c-4.439,5.973-7.071,13.367-7.071,21.364C192.991,109.412,209.092,125.505,228.882,125.505z"
		/>
	<path style="fill:#5C4853;" d="M211.316,58.349c12.574,14.625,32.102,21.701,51.086,18.512
		c-5.156-13.503-18.233-23.123-33.52-23.123C222.503,53.739,216.513,55.42,211.316,58.349z"/>
	<path style="fill:#460929;" d="M228.882,140.505c28.052,0,50.875-22.822,50.875-50.875c0-20.775-12.516-38.672-30.395-46.571
		c2.846-4.059,4.523-8.994,4.523-14.316c0-13.785-11.215-25-25-25c-13.785,0-25,11.215-25,25c0,5.321,1.676,10.255,4.521,14.313
		c-17.89,7.897-30.413,25.796-30.413,46.575C177.991,117.683,200.821,140.505,228.882,140.505z M218.884,28.744
		c0-5.514,4.486-10,10-10s10,4.486,10,10c0,5.495-4.456,9.966-9.943,9.997c-0.02,0-0.039-0.001-0.059-0.001
		c-0.019,0-0.038,0.001-0.057,0.001C223.338,38.709,218.884,34.238,218.884,28.744z M262.402,76.862
		c-18.984,3.189-38.512-3.888-51.086-18.512c5.197-2.93,11.187-4.61,17.566-4.61C244.169,53.739,257.245,63.359,262.402,76.862z
		 M253.397,92.615c3.758,0,7.535-0.315,11.297-0.935c-1.066,18.831-16.719,33.825-35.812,33.825
		c-19.79,0-35.891-16.093-35.891-35.875c0-7.997,2.631-15.391,7.071-21.364C213.51,83.817,233.162,92.615,253.397,92.615z"/>
	<path style="fill:#FFD089;" d="M84.077,358.225l-1.963,80.82h37.113l-6.636-273.275H88.75l-3.945,162.456
		c-0.099,4.079-3.437,7.318-7.494,7.318c-0.061,0-0.121-0.001-0.181-0.002l-0.364,15.005
		C80.905,350.647,84.178,354.085,84.077,358.225z"/>
	<path style="fill:#AB899B;" d="M67.11,439.044l1.972-81.184c0.1-4.141,3.541-7.45,7.68-7.315c0.004,0,0.368-15.004,0.368-15.004
		c-4.145-0.1-7.42-3.539-7.32-7.68l3.936-162.092H72.43c-7.499,0-9.104,7.194-9.418,9.399
		c-1.189,8.368-31.284,218.514-37.78,263.876H67.11z"/>
	<path style="fill:#AB899B;" d="M134.231,439.044h4.042c2.692-18.796,10.851-75.772,18.935-132.225
		c-11.973-83.616-18.314-127.912-18.845-131.652c-0.313-2.205-1.919-9.399-9.418-9.399h-1.35L134.231,439.044z"/>
	<polygon style="fill:#FFD089;" points="368.979,165.769 345.139,165.769 338.503,439.044 375.615,439.044 	"/>
	<path style="fill:#AB899B;" d="M385.299,165.769h-1.315l6.636,273.275h41.878c-6.497-45.363-36.592-255.508-37.781-263.876
		C394.404,172.963,392.798,165.769,385.299,165.769z"/>
	<path style="fill:#AB899B;" d="M330.134,165.769h-1.35c-7.5,0-9.105,7.194-9.418,9.398c-0.656,4.61-9.938,69.449-18.829,131.532
		c8.089,56.492,16.259,113.536,18.952,132.345h4.009L330.134,165.769z"/>
	<path style="fill:#460929;" d="M411.851,189.024c12.447,9.595,21.767,22.659,26.83,37.906c6.706,20.197,5.146,41.796-4.394,60.82
		c-1.856,3.703-0.36,8.209,3.342,10.066c1.079,0.542,2.227,0.797,3.356,0.797c2.748,0,5.395-1.516,6.71-4.14
		c11.336-22.605,13.189-48.271,5.221-72.271c-7.584-22.841-23.214-41.554-44.191-53.081c-3.097-11.122-12.095-18.354-23.426-18.354
		h-56.515c-12.621,0-22.374,8.957-24.27,22.288c-0.473,3.332-5.463,38.195-11.553,80.732c-6.184-43.191-11.089-77.455-11.554-80.731
		c-1.896-13.332-11.647-22.288-24.269-22.288h-56.515c-12.621,0-22.374,8.957-24.269,22.288c-0.466,3.28-5.379,37.602-11.571,80.849
		c-7.276-50.818-11.161-77.96-11.571-80.848c-1.895-13.331-11.647-22.288-24.269-22.288H72.43c-11.324,0-20.32,7.225-23.422,18.338
		C4.706,193.47-12.82,248.899,10.034,294.474c1.315,2.624,3.962,4.14,6.71,4.14c1.13,0,2.277-0.256,3.356-0.797
		c3.703-1.856,5.199-6.363,3.342-10.066c-17.333-34.567-7.058-75.865,22.432-98.695C37.52,247.434,9.484,443.203,9.157,445.481
		c-0.308,2.153,0.333,4.333,1.757,5.977c1.425,1.643,3.492,2.587,5.667,2.587h128.193c0.001,0,168.18,0,168.18,0
		c0.033,0,128.193,0,128.193,0c2.175,0,4.242-0.944,5.667-2.587s2.065-3.824,1.757-5.977
		C448.246,443.202,420.199,247.364,411.851,189.024z M63.012,175.168c0.313-2.205,1.919-9.399,9.418-9.399h1.316L69.81,327.861
		c-0.101,4.141,3.175,7.58,7.315,7.68c0.065,0.002,0.125,0.002,0.186,0.002c4.058,0,7.396-3.239,7.494-7.318l3.945-162.456h23.841
		l6.636,273.275H82.114l1.963-80.82c0.101-4.14-3.172-7.577-7.312-7.679c-4.143-0.135-7.583,3.175-7.684,7.315l-1.972,81.184H25.232
		C31.728,393.682,61.823,183.536,63.012,175.168z M138.363,175.168c0.531,3.74,6.873,48.036,18.845,131.652
		c-8.083,56.452-16.243,113.429-18.935,132.225h-4.042l-6.636-273.275h1.35C136.444,165.769,138.049,172.963,138.363,175.168z
		 M200.624,165.769h1.316l-6.636,273.275h-41.878c6.497-45.363,36.591-255.508,37.78-263.877
		C191.52,172.963,193.125,165.769,200.624,165.769z M266.556,175.168c1.189,8.368,31.284,218.514,37.781,263.876h-41.912
		l-4.566-188.044c-0.1-4.079-3.437-7.318-7.494-7.318c-0.063,0-0.124,0-0.186,0.002c-4.142,0.101-7.417,3.539-7.316,7.68
		l4.558,187.68h-37.112l6.636-273.275h23.84l1.35,55.595c0.1,4.079,3.437,7.318,7.494,7.318c0.063,0,0.124,0,0.186-0.002
		c4.142-0.1,7.417-3.539,7.316-7.68l-1.341-55.23h1.35C264.638,165.769,266.244,172.963,266.556,175.168z M300.538,306.699
		c8.89-62.083,18.173-126.922,18.829-131.532c0.313-2.205,1.918-9.398,9.418-9.398h1.35l-6.636,273.275h-4.009
		C316.796,420.236,308.627,363.191,300.538,306.699z M345.139,165.769h23.84l6.636,273.275h-37.111L345.139,165.769z
		 M390.62,439.044l-6.636-273.275h1.315c7.499,0,9.104,7.194,9.417,9.399c1.189,8.368,31.284,218.514,37.781,263.876H390.62z"/>
	<path style="fill:#A9603A;" d="M64.805,89.63c0,19.781,16.093,35.875,35.875,35.875c19.79,0,35.891-16.093,35.891-35.875
		c0-19.791-16.101-35.892-35.891-35.892C80.898,53.739,64.805,69.84,64.805,89.63z"/>
	<path style="fill:#460929;" d="M100.679,140.505c28.061,0,50.891-22.822,50.891-50.875c0-28.062-22.83-50.892-50.891-50.892
		c-28.052,0-50.875,22.83-50.875,50.892C49.805,117.683,72.627,140.505,100.679,140.505z M136.57,89.63
		c0,19.781-16.101,35.875-35.891,35.875c-19.781,0-35.875-16.093-35.875-35.875c0-19.791,16.093-35.892,35.875-35.892
		C120.469,53.739,136.57,69.84,136.57,89.63z"/>
	<path style="fill:#A9603A;" d="M357.05,125.505c19.79,0,35.891-16.093,35.891-35.875c0-19.791-16.101-35.892-35.891-35.892
		c-19.781,0-35.875,16.101-35.875,35.892C321.175,109.412,337.269,125.505,357.05,125.505z"/>
	<path style="fill:#460929;" d="M357.05,140.505c28.062,0,50.891-22.822,50.891-50.875c0-28.062-22.829-50.892-50.891-50.892
		c-28.053,0-50.875,22.83-50.875,50.892C306.175,117.683,328.998,140.505,357.05,140.505z M321.175,89.631
		c0-19.791,16.094-35.892,35.875-35.892c19.79,0,35.891,16.101,35.891,35.892c0,19.781-16.101,35.875-35.891,35.875
		C337.269,125.505,321.175,109.412,321.175,89.631z"/>
	<path style="fill:#733B59;" d="M153.426,439.044h41.878l6.636-273.275h-1.316c-7.499,0-9.104,7.194-9.418,9.398
		C190.017,183.536,159.923,393.682,153.426,439.044z"/>
	<path style="fill:#733B59;" d="M257.13,221c0.101,4.141-3.175,7.579-7.316,7.68l0.364,15.006c0.062-0.002,0.124-0.002,0.186-0.002
		c4.058,0,7.395,3.239,7.494,7.318l4.566,188.044h41.912c-6.497-45.363-36.592-255.508-37.781-263.876
		c-0.313-2.205-1.918-9.399-9.417-9.399h-1.35L257.13,221z"/>
	<path style="fill:#FFB13A;" d="M249.814,228.679c-0.062,0.002-0.123,0.002-0.186,0.002c-4.058,0-7.395-3.239-7.494-7.318
		l-1.35-55.595h-23.84l-6.636,273.275h37.112l-4.558-187.68c-0.101-4.141,3.175-7.579,7.316-7.68L249.814,228.679z"/>
</g>
<g>
</g>
<g>
</g>
<g>
</g>
<g>
</g>
<g>
</g>
<g>
</g>
<g>
</g>
<g>
</g>
<g>
</g>
<g>
</g>
<g>
</g>
<g>
</g>
<g>
</g>
<g>
</g>
<g>
</g>
</svg>
