<?xml version="1.0" encoding="iso-8859-1"?>
<!-- Generator: Adobe Illustrator 19.0.0, SVG Export Plug-In . SVG Version: 6.00 Build 0)  -->
<svg version="1.1" id="Capa_1" xmlns="http://www.w3.org/2000/svg" xmlns:xlink="http://www.w3.org/1999/xlink" x="0px" y="0px"
	 viewBox="0 0 440.302 440.302" style="enable-background:new 0 0 440.302 440.302;" xml:space="preserve">
<g>
	<path style="fill:#FFFFFF;" d="M245.401,152.03h-50.5c-5.15,0-9.34,4.19-9.34,9.34v6.104c4.212-2.204,8.814-3.394,13.54-3.394
		c7.738,0,15.15,3.175,21.049,8.795c5.898-5.619,13.307-8.795,21.041-8.795c4.728,0,9.333,1.192,13.55,3.4v-6.11
		C254.741,156.22,250.551,152.03,245.401,152.03z"/>
	<path style="fill:#AB899B;" d="M241.191,179.08c-5.658,0-10.974,3.499-14.586,9.601c-1.35,2.281-3.803,3.679-6.454,3.679
		s-5.104-1.399-6.454-3.679c-3.612-6.101-8.932-9.601-14.596-9.601c-5.136,0-9.986,2.891-13.54,7.988v56.042h69.18v-56.038
		C251.179,181.973,246.325,179.08,241.191,179.08z"/>
	<path style="fill:#39C8C6;" d="M170.561,169.364c-0.683,0.015-1.365,0.028-2.045,0.028c-3.113,0-6.196-0.162-9.245-0.463v81.681
		l11.082,0l0.208-0.877V169.364z"/>
	<path style="fill:#39C8C6;" d="M281.031,168.929c-3.049,0.301-6.132,0.463-9.245,0.463c-0.68,0-1.362-0.013-2.045-0.028v80.369
		l0.208,0.877h11.082V168.929z"/>
	<path style="fill:#39C8C6;" d="M220.141,15c-33.564,0-60.87,27.315-60.87,60.89v77.935c4.043,0.476,8.164,0.644,12.339,0.482
		c3.034-9.987,12.326-17.277,23.291-17.277h50.5c10.965,0,20.257,7.29,23.291,17.277c4.175,0.161,8.295-0.007,12.339-0.483V75.89
		C281.031,42.315,253.716,15,220.141,15z M220.141,126.76c-28.05,0-50.87-22.82-50.87-50.87c0-11.769,4.104-23.242,11.558-32.304
		c2.196-2.67,5.934-3.494,9.048-1.993l30.266,14.582l30.285-14.583c3.116-1.501,6.855-0.676,9.05,1.998
		c7.451,9.074,11.554,20.544,11.554,32.3C271.031,103.94,248.202,126.76,220.141,126.76z"/>
	<polygon style="fill:#733B59;" points="183.991,258.11 173.636,301.8 266.666,301.8 256.311,258.11 	"/>
	<path style="fill:#FFFFFF;" d="M256.031,75.89c0-6.346-1.694-12.574-4.844-18.015l-27.792,13.382
		c-2.056,0.991-4.452,0.99-6.509-0.001l-27.774-13.382c-3.147,5.435-4.84,11.662-4.84,18.015c0,19.779,16.091,35.87,35.87,35.87
		C239.931,111.76,256.031,95.669,256.031,75.89z"/>
	<path style="fill:#460929;" d="M250.427,41.593l-30.285,14.583l-30.266-14.582c-3.114-1.501-6.852-0.678-9.048,1.993
		c-7.453,9.062-11.558,20.535-11.558,32.304c0,28.05,22.82,50.87,50.87,50.87c28.061,0,50.89-22.82,50.89-50.87
		c0-11.755-4.103-23.226-11.554-32.3C257.282,40.917,253.543,40.091,250.427,41.593z M184.271,75.89
		c0-6.353,1.693-12.58,4.84-18.015l27.774,13.382c2.057,0.991,4.453,0.992,6.509,0.001l27.792-13.382
		c3.15,5.441,4.844,11.669,4.844,18.015c0,19.779-16.1,35.87-35.89,35.87C200.362,111.76,184.271,95.669,184.271,75.89z"/>
	<path style="fill:#460929;" d="M359.187,76.731c-4.119-0.451-7.82,2.523-8.271,6.64c-3.52,32.2-25.881,57.84-54.885,67.186V75.89
		c0-41.846-34.044-75.89-75.89-75.89c-41.835,0-75.87,34.044-75.87,75.89v74.67c-29.007-9.345-51.365-34.987-54.885-67.188
		c-0.45-4.117-4.152-7.091-8.271-6.64c-4.118,0.45-7.091,4.153-6.641,8.271c4.367,39.942,33.123,71.394,69.796,81.188v84.42
		c0,4.142,3.358,7.5,7.5,7.5c4.142,0,7.5-3.358,7.5-7.5v-81.681c3.049,0.301,6.132,0.463,9.245,0.463
		c0.68,0,1.362-0.013,2.045-0.028v80.369l-0.208,0.877l-13.5,56.96c-0.529,2.232-0.008,4.583,1.415,6.381
		c1.422,1.799,3.59,2.848,5.883,2.848h20.473l5.346,101.81l-21.447,7.067c-3.934,1.296-6.072,5.536-4.776,9.47
		c1.039,3.155,3.972,5.155,7.122,5.155c0.778,0,1.569-0.122,2.349-0.379l26.89-8.86c3.213-1.059,5.32-4.138,5.143-7.517
		L199.645,316.8h41.012l-5.606,106.747c-0.177,3.379,1.929,6.458,5.143,7.517l26.89,8.86c0.779,0.257,1.57,0.379,2.349,0.379
		c3.149,0,6.083-2,7.122-5.155c1.296-3.934-0.842-8.174-4.776-9.47l-21.447-7.067l5.346-101.81h20.473
		c2.293,0,4.461-1.049,5.883-2.848c1.422-1.799,1.943-4.15,1.415-6.381l-13.5-56.96l-0.208-0.877v-80.369
		c0.682,0.015,1.365,0.028,2.045,0.028c3.113,0,6.196-0.162,9.245-0.463v81.681c0,4.142,3.358,7.5,7.5,7.5
		c4.142,0,7.5-3.358,7.5-7.5v-84.421c36.672-9.795,65.43-41.248,69.796-81.187C366.277,80.884,363.304,77.181,359.187,76.731z
		 M173.636,301.8l10.355-43.69h72.319l10.355,43.69H173.636z M254.741,243.11h-69.18v-56.042c3.554-5.096,8.404-7.988,13.54-7.988
		c5.664,0,10.984,3.499,14.596,9.601c1.35,2.281,3.803,3.679,6.454,3.679s5.104-1.399,6.454-3.679
		c3.612-6.101,8.929-9.601,14.586-9.601c5.134,0,9.988,2.893,13.55,7.991V243.11z M241.191,164.08
		c-7.734,0-15.142,3.175-21.041,8.795c-5.899-5.619-13.311-8.795-21.049-8.795c-4.726,0-9.328,1.19-13.54,3.394v-6.104
		c0-5.15,4.19-9.34,9.34-9.34h50.5c5.15,0,9.34,4.19,9.34,9.34v6.11C250.524,165.272,245.919,164.08,241.191,164.08z
		 M268.692,154.307c-3.035-9.987-12.326-17.277-23.291-17.277h-50.5c-10.965,0-20.257,7.29-23.291,17.277
		c-4.175,0.161-8.295-0.007-12.339-0.482V75.89c0-33.575,27.306-60.89,60.87-60.89c33.575,0,60.89,27.315,60.89,60.89v77.934
		C276.987,154.3,272.867,154.468,268.692,154.307z"/>
</g>
<g>
</g>
<g>
</g>
<g>
</g>
<g>
</g>
<g>
</g>
<g>
</g>
<g>
</g>
<g>
</g>
<g>
</g>
<g>
</g>
<g>
</g>
<g>
</g>
<g>
</g>
<g>
</g>
<g>
</g>
</svg>
