<?xml version="1.0" encoding="iso-8859-1"?>
<!-- Generator: Adobe Illustrator 19.0.0, SVG Export Plug-In . SVG Version: 6.00 Build 0)  -->
<svg version="1.1" id="Capa_1" xmlns="http://www.w3.org/2000/svg" xmlns:xlink="http://www.w3.org/1999/xlink" x="0px" y="0px"
	 viewBox="0 0 449.685 449.685" style="enable-background:new 0 0 449.685 449.685;" xml:space="preserve">
<g>
	<path style="fill:#5C4853;" d="M198.764,41.762c0.407-0.364,0.855-0.693,1.352-0.97c7.53-4.196,16.077-6.413,24.719-6.413
		c13.567,0,26.288,5.169,35.835,14.555C259.651,30.051,243.969,15,224.836,15c-19.315,0-35.106,15.351-35.841,34.497
		C191.901,46.554,195.176,43.954,198.764,41.762z"/>
	<path style="fill:#F7D0BC;" d="M224.842,100.638c8.283,0,16.25,1.916,21.432,3.504l8.679-13.069
		c-19.07-3.366-39.871-13.948-53.279-32.948c-7.153,6.216-11.731,15.076-12.559,24.606l14.285,21.415
		C208.58,102.557,216.553,100.638,224.842,100.638z"/>
	<path style="fill:#E6773D;" d="M259.736,76.677c-3.612-15.821-17.651-27.298-34.901-27.298c-3.381,0-6.74,0.481-9.967,1.414
		C226.346,66.206,243.972,74.486,259.736,76.677z"/>
	<path style="fill:#FFD089;" d="M190.249,170.752v90.189h13v-99.533h-3.657C194.441,161.409,190.249,165.6,190.249,170.752z"/>
	<path style="fill:#FFD089;" d="M246.435,161.409v99.533h13l0.001-90.189c0-5.152-4.191-9.343-9.344-9.343H246.435z"/>
	<rect x="218.249" y="161.409" style="fill:#FFD089;" width="13.186" height="99.533"/>
	<path style="fill:#76DEDD;" d="M258.607,275.942h-12.172v2.5c0,4.142-3.357,7.5-7.5,7.5s-7.5-3.358-7.5-7.5v-2.5h-13.186v2.5
		c0,4.142-3.358,7.5-7.5,7.5s-7.5-3.358-7.5-7.5v-2.5h-12.172c3.437,15.479,17.266,27.093,33.765,27.093
		C241.341,303.034,255.17,291.421,258.607,275.942z"/>
	<path style="fill:#460929;" d="M274.435,268.442v-1.496c25.198-3.648,44.621-25.381,44.621-51.573
		c0-26.556-19.968-48.521-45.676-51.707c-2.159-7.08-7.466-12.796-14.281-15.522c1.592-1.453,3.104-3.006,4.516-4.665
		c7.808-9.179,12.107-20.88,12.107-32.949l0.003-59.64c0-28.061-22.829-50.89-50.889-50.89c-28.053,0-50.876,22.829-50.876,50.89
		l0.002,59.639c0,12.068,4.3,23.77,12.107,32.949c1.412,1.659,2.924,3.212,4.516,4.665c-6.816,2.725-12.122,8.441-14.281,15.521
		c-25.708,3.187-45.676,25.151-45.676,51.707c0,26.192,19.423,47.925,44.62,51.573v1.496c0,12.752,4.841,24.393,12.778,33.188
		l6.635,126.359l-21.447,7.071c-3.934,1.297-6.071,5.538-4.774,9.472c1.04,3.154,3.973,5.153,7.122,5.153
		c0.779,0,1.57-0.122,2.35-0.379l26.889-8.865c3.212-1.06,5.318-4.138,5.141-7.516l-6.283-119.653
		c6.428,3.05,13.608,4.763,21.183,4.763c7.575,0,14.755-1.713,21.183-4.762l-6.282,119.653c-0.178,3.378,1.928,6.457,5.141,7.516
		l26.889,8.865c0.78,0.257,1.571,0.379,2.35,0.379c3.149,0,6.082-2,7.122-5.153c1.297-3.934-0.841-8.174-4.774-9.472l-21.447-7.071
		l6.634-126.358C269.594,292.836,274.435,281.195,274.435,268.442z M224.836,15c19.133,0,34.815,15.051,35.834,33.934
		c-9.547-9.386-22.268-14.555-35.835-14.555c-8.642,0-17.189,2.218-24.719,6.413c-0.497,0.277-0.945,0.606-1.352,0.97
		c-3.588,2.193-6.863,4.792-9.768,7.735C189.73,30.351,205.521,15,224.836,15z M259.736,76.677
		c-15.764-2.191-33.39-10.471-44.868-25.884c3.227-0.933,6.586-1.414,9.967-1.414C242.085,49.379,256.124,60.856,259.736,76.677z
		 M201.674,58.125c13.408,19,34.209,29.582,53.279,32.948l-8.679,13.069c-5.182-1.588-13.148-3.504-21.432-3.504
		c-8.289,0-16.262,1.918-21.443,3.507l-14.285-21.415C189.943,73.201,194.521,64.341,201.674,58.125z M194.143,117.3
		c1.987,2.977,5.812,4.13,9.12,2.763c0.107-0.044,10.813-4.425,21.579-4.425s21.473,4.38,21.567,4.42
		c0.939,0.393,1.921,0.581,2.89,0.581c2.451,0,4.825-1.206,6.251-3.352l5.172-7.788v1.029c0,8.511-3.03,16.761-8.533,23.231
		c-4.508,5.3-10.387,9.15-17.005,11.136c-6.682,2.008-13.999,2.009-20.687-0.001c-6.615-1.984-12.494-5.835-17.002-11.136
		c-5.502-6.469-8.533-14.719-8.533-23.231v-0.995L194.143,117.3z M231.435,161.409v99.533h-13.186v-99.533H231.435z
		 M259.436,170.752l-0.001,90.189h-13v-99.533h3.657C255.245,161.409,259.436,165.6,259.436,170.752z M203.249,161.409v99.533h-13
		v-90.189c0-5.152,4.191-9.343,9.343-9.343H203.249z M191.078,275.942h12.172v2.5c0,4.142,3.358,7.5,7.5,7.5s7.5-3.358,7.5-7.5v-2.5
		h13.186v2.5c0,4.142,3.357,7.5,7.5,7.5s7.5-3.358,7.5-7.5v-2.5h12.172c-3.437,15.479-17.266,27.093-33.764,27.093
		C208.344,303.034,194.514,291.421,191.078,275.942z M304.056,215.372c0,17.9-12.736,32.88-29.621,36.358l0.001-72.716
		C291.321,182.492,304.056,197.473,304.056,215.372z M145.629,215.372c0-17.9,12.735-32.88,29.62-36.358v72.716
		C158.364,248.252,145.629,233.272,145.629,215.372z"/>
	<path style="fill:#E6773D;" d="M197.495,133.76c4.508,5.301,10.388,9.151,17.002,11.136c6.688,2.01,14.005,2.009,20.687,0.001
		c6.618-1.986,12.497-5.836,17.005-11.136c5.503-6.47,8.533-14.72,8.533-23.231V109.5l-5.172,7.788
		c-1.426,2.146-3.8,3.351-6.251,3.352c-0.969,0-1.95-0.188-2.89-0.581c-0.095-0.04-10.801-4.42-21.567-4.42
		s-21.472,4.38-21.579,4.425c-3.309,1.368-7.133,0.214-9.12-2.763l-5.181-7.767v0.995C188.963,119.04,191.993,127.29,197.495,133.76
		z"/>
</g>
<g>
</g>
<g>
</g>
<g>
</g>
<g>
</g>
<g>
</g>
<g>
</g>
<g>
</g>
<g>
</g>
<g>
</g>
<g>
</g>
<g>
</g>
<g>
</g>
<g>
</g>
<g>
</g>
<g>
</g>
</svg>
