<?xml version="1.0" encoding="iso-8859-1"?>
<!-- Generator: Adobe Illustrator 19.0.0, SVG Export Plug-In . SVG Version: 6.00 Build 0)  -->
<svg version="1.1" id="Capa_1" xmlns="http://www.w3.org/2000/svg" xmlns:xlink="http://www.w3.org/1999/xlink" x="0px" y="0px"
	 viewBox="0 0 455 455" style="enable-background:new 0 0 455 455;" xml:space="preserve">
<g>
	<path style="fill:#FFFFFF;" d="M67.5,65.541H45v215h131.802v-59.805c-0.719,0.016-1.438,0.03-2.156,0.03
		c-21.455,0-42.119-7.236-59.09-20.862c-19.719-15.832-32.092-38.396-34.841-63.534c-0.449-4.117,2.523-7.82,6.641-8.271
		c4.141-0.45,7.821,2.524,8.271,6.641c4.568,41.782,40.87,72.532,82.223,70.935c3.034-9.989,12.327-17.28,23.294-17.28h50.501
		c10.969,0,20.262,7.293,23.295,17.284c19.181,0.754,37.774-5.338,52.886-17.471c16.595-13.324,27.008-32.313,29.319-53.468
		c0.45-4.117,4.136-7.09,8.271-6.641c4.117,0.45,7.09,4.153,6.641,8.271c-2.748,25.139-15.121,47.702-34.84,63.534
		c-16.97,13.625-37.636,20.862-59.09,20.862c-0.713,0-1.427-0.013-2.141-0.029v59.805H410v-215H97.5c-4.143,0-7.5-3.358-7.5-7.5H75
		C75,62.183,71.643,65.541,67.5,65.541z M226.387,76.364c28.062,0,50.891,22.83,50.891,50.891c0,28.052-22.829,50.875-50.891,50.875
		c-28.052,0-50.874-22.822-50.874-50.875C175.513,99.194,198.335,76.364,226.387,76.364z"/>
	<path style="fill:#FFB13A;" d="M260.988,213.072c-0.007-0.169-0.013-0.339-0.009-0.51c-0.095-5.07-4.242-9.167-9.334-9.167h-50.501
		c-5.151,0-9.343,4.191-9.343,9.343v67.803h69.187V213.072z M243.167,232.802c-2.225,2.916-6.168,3.747-9.328,2.156v23.557
		c0,2.825-1.588,5.411-4.107,6.689l-10.751,5.453c-1.087,0.551-2.246,0.813-3.387,0.813c-2.736,0-5.372-1.502-6.694-4.109
		c-1.874-3.694-0.398-8.208,3.296-10.082l6.644-3.369v-33.942c0-2.852,1.617-5.457,4.173-6.722c2.558-1.265,5.609-0.971,7.875,0.758
		l10.864,8.286C245.045,224.802,245.679,229.508,243.167,232.802z"/>
	<path style="fill:#460929;" d="M322.442,367.528c-0.882-4.046-4.871-6.612-8.925-5.731L235,378.904v-30.863
		c0-4.142-3.357-7.5-7.5-7.5s-7.5,3.358-7.5,7.5v30.556l-78.545-16.806c-4.049-0.867-8.036,1.714-8.903,5.765
		c-0.866,4.051,1.714,8.037,5.765,8.903l65.727,14.063l-67.179,29.571c-3.791,1.668-5.512,6.095-3.843,9.886
		c1.236,2.809,3.984,4.48,6.868,4.48c1.009,0,2.035-0.205,3.018-0.638l85.36-37.574l83.779,37.553
		c0.996,0.447,2.038,0.658,3.063,0.658c2.864,0,5.601-1.651,6.848-4.434c1.694-3.78,0.004-8.218-3.776-9.912l-66.024-29.595
		l64.554-14.065C320.758,375.571,323.324,371.576,322.442,367.528z"/>
	<path style="fill:#39C8C6;" d="M437.5,35.541h-420c-1.355,0-2.5,1.145-2.5,2.5v270c0,1.355,1.145,2.5,2.5,2.5h420
		c1.355,0,2.5-1.145,2.5-2.5v-270C440,36.686,438.855,35.541,437.5,35.541z M425,288.041c0,4.142-3.357,7.5-7.5,7.5h-380
		c-4.143,0-7.5-3.358-7.5-7.5v-230c0-4.142,3.357-7.5,7.5-7.5h30c4.143,0,7.5,3.358,7.5,7.5h15c0-4.142,3.357-7.5,7.5-7.5h320
		c4.143,0,7.5,3.358,7.5,7.5V288.041z"/>
	<path style="fill:#460929;" d="M437.5,20.541h-420c-9.649,0-17.5,7.851-17.5,17.5v270c0,9.649,7.851,17.5,17.5,17.5h420
		c9.649,0,17.5-7.851,17.5-17.5v-270C455,28.392,447.149,20.541,437.5,20.541z M440,308.041c0,1.355-1.145,2.5-2.5,2.5h-420
		c-1.355,0-2.5-1.145-2.5-2.5v-270c0-1.355,1.145-2.5,2.5-2.5h420c1.355,0,2.5,1.145,2.5,2.5V308.041z"/>
	<path style="fill:#460929;" d="M417.5,50.541h-320c-4.143,0-7.5,3.358-7.5,7.5s3.357,7.5,7.5,7.5H410v215H275.988v-59.805
		c0.714,0.016,1.428,0.029,2.141,0.029c21.454,0,42.12-7.237,59.09-20.862c19.719-15.832,32.092-38.396,34.84-63.534
		c0.449-4.118-2.523-7.82-6.641-8.271c-4.136-0.45-7.821,2.524-8.271,6.641c-2.312,21.155-12.725,40.144-29.319,53.468
		c-15.112,12.134-33.706,18.225-52.886,17.471c-3.033-9.991-12.327-17.284-23.295-17.284h-50.501
		c-10.967,0-20.26,7.292-23.294,17.28c-41.353,1.597-77.656-29.153-82.223-70.935c-0.45-4.117-4.131-7.09-8.271-6.641
		c-4.117,0.45-7.09,4.153-6.641,8.271c2.749,25.139,15.122,47.702,34.841,63.534c16.971,13.626,37.635,20.862,59.09,20.862
		c0.718,0,1.437-0.013,2.156-0.03v59.805H45v-215h22.5c4.143,0,7.5-3.358,7.5-7.5s-3.357-7.5-7.5-7.5h-30
		c-4.143,0-7.5,3.358-7.5,7.5v230c0,4.142,3.357,7.5,7.5,7.5h380c4.143,0,7.5-3.358,7.5-7.5v-230
		C425,53.899,421.643,50.541,417.5,50.541z M191.802,212.738c0-5.152,4.191-9.343,9.343-9.343h50.501
		c5.092,0,9.239,4.097,9.334,9.167c-0.004,0.171,0.001,0.341,0.009,0.51v67.469h-69.187V212.738z"/>
	<path style="fill:#460929;" d="M241.751,222.29l-10.864-8.286c-2.266-1.729-5.317-2.023-7.875-0.758
		c-2.556,1.265-4.173,3.87-4.173,6.722v33.942l-6.644,3.369c-3.694,1.874-5.17,6.387-3.296,10.082
		c1.322,2.607,3.958,4.109,6.694,4.109c1.141,0,2.3-0.261,3.387-0.813l10.751-5.453c2.52-1.278,4.107-3.864,4.107-6.689v-23.557
		c3.16,1.59,7.104,0.759,9.328-2.156C245.679,229.508,245.045,224.802,241.751,222.29z"/>
	<path style="fill:#F7D0BC;" d="M226.387,163.13c19.79,0,35.891-16.093,35.891-35.875c0-19.791-16.101-35.891-35.891-35.891
		c-19.781,0-35.874,16.101-35.874,35.891C190.513,147.037,206.605,163.13,226.387,163.13z"/>
	<path style="fill:#460929;" d="M226.387,178.13c28.062,0,50.891-22.822,50.891-50.875c0-28.062-22.829-50.891-50.891-50.891
		c-28.052,0-50.874,22.83-50.874,50.891C175.513,155.308,198.335,178.13,226.387,178.13z M226.387,91.364
		c19.79,0,35.891,16.101,35.891,35.891c0,19.781-16.101,35.875-35.891,35.875c-19.781,0-35.874-16.093-35.874-35.875
		C190.513,107.465,206.605,91.364,226.387,91.364z"/>
</g>
<g>
</g>
<g>
</g>
<g>
</g>
<g>
</g>
<g>
</g>
<g>
</g>
<g>
</g>
<g>
</g>
<g>
</g>
<g>
</g>
<g>
</g>
<g>
</g>
<g>
</g>
<g>
</g>
<g>
</g>
</svg>
