<?xml version="1.0" encoding="iso-8859-1"?>
<!-- Generator: Adobe Illustrator 19.0.0, SVG Export Plug-In . SVG Version: 6.00 Build 0)  -->
<svg version="1.1" id="Capa_1" xmlns="http://www.w3.org/2000/svg" xmlns:xlink="http://www.w3.org/1999/xlink" x="0px" y="0px"
	 viewBox="0 0 440.303 440.303" style="enable-background:new 0 0 440.303 440.303;" xml:space="preserve">
<g>
	<path style="fill:#FFB13A;" d="M112.813,198.384c0.729,0.052,1.462,0.088,2.204,0.088c4.143,0,7.5,3.358,7.5,7.5
		c3.754,0,8.283,0,12.037,0v-31.314C125.576,181.12,118.265,189.246,112.813,198.384z"/>
	<path style="fill:#FFB13A;" d="M253.261,198.472c9.702,0,18.362-4.523,23.999-11.567c-15.283-0.308-30.142-4.299-43.519-11.693
		l0,30.76c3.749,0,8.271,0,12.021,0C245.761,201.83,249.118,198.472,253.261,198.472z"/>
	<path style="fill:#FFB13A;" d="M262.258,138.346c-2.406-0.735-4.283-2.629-4.998-5.042c-0.716-2.413-0.173-5.023,1.444-6.951
		c3.307-3.942,5.128-8.948,5.128-14.096c0-9.13-5.503-17.165-14.02-20.47c-2.885-1.12-4.786-3.897-4.786-6.992V75.89
		c0-33.575-27.315-60.89-60.89-60.89c-33.563,0-60.87,27.315-60.87,60.89v8.899c0,3.097-1.903,5.875-4.79,6.994
		c-8.523,3.302-14.03,11.338-14.03,20.474c0,5.148,1.821,10.154,5.128,14.096c1.618,1.928,2.161,4.539,1.446,6.952
		c-0.715,2.413-2.593,4.306-4.999,5.042c-13.002,3.974-21.737,15.786-21.737,29.393c0,10.786,5.59,20.286,14.02,25.771
		c8.296-15.059,20.749-28.004,36.719-36.898c2.219-11.153,12.078-19.586,23.873-19.586h50.501c12.04,0,22.06,8.789,23.998,20.286
		c14.766,10.455,32.335,15.491,50.323,14.478c0.176-1.327,0.275-2.677,0.275-4.051C283.994,154.131,275.259,142.319,262.258,138.346
		z M235.014,119.262c0,4.142-3.357,7.5-7.5,7.5s-7.5-3.358-7.5-7.5v-7.329c-9.208,9.159-21.89,14.829-35.874,14.829
		c-13.986,0-26.669-5.674-35.875-14.839v7.339c0,4.142-3.357,7.5-7.5,7.5s-7.5-3.358-7.5-7.5V75.887
		c0-28.062,22.822-50.891,50.875-50.891c4.143,0,7.5,3.358,7.5,7.5c0,19.791,16.1,35.891,35.89,35.891c4.143,0,7.5,3.358,7.5,7.5
		c0,0.207-0.013,0.41-0.016,0.616V119.262z"/>
	<path style="fill:#F7D0BC;" d="M177.293,40.652c-16.518,3.207-29.028,17.787-29.028,35.235c0,19.781,16.094,35.875,35.875,35.875
		c17.447,0,32.027-12.51,35.233-29.027C197.832,79.249,180.776,62.194,177.293,40.652z"/>
	<path style="fill:#460929;" d="M227.529,68.387c-19.79,0-35.89-16.101-35.89-35.891c0-4.142-3.357-7.5-7.5-7.5
		c-28.053,0-50.875,22.83-50.875,50.891v43.375c0,4.142,3.357,7.5,7.5,7.5s7.5-3.358,7.5-7.5v-7.339
		c9.206,9.165,21.889,14.839,35.875,14.839c13.984,0,26.667-5.67,35.874-14.829v7.329c0,4.142,3.357,7.5,7.5,7.5s7.5-3.358,7.5-7.5
		V76.503c0.002-0.206,0.016-0.409,0.016-0.616C235.029,71.745,231.672,68.387,227.529,68.387z M184.14,111.762
		c-19.781,0-35.875-16.093-35.875-35.875c0-17.448,12.511-32.029,29.028-35.235c3.483,21.542,20.539,38.597,42.08,42.083
		C216.167,99.251,201.587,111.762,184.14,111.762z"/>
	<path style="fill:#FFD089;" d="M355.546,105.074h-14.131c1.146,9.245,4.193,17.51,7.065,23.627
		C351.353,122.584,354.399,114.319,355.546,105.074z"/>
	<path style="fill:#460929;" d="M356.48,175.58h-0.5v-29.389c4.02-6.245,15.038-25.471,15.038-48.616c0-4.142-3.357-7.5-7.5-7.5
		h-30.076c-4.143,0-7.5,3.358-7.5,7.5c0,21.083,9.143,38.913,13.811,46.644c-10.755,12.53-24.908,21.255-40.803,25.253
		c0.021-0.576,0.044-1.152,0.044-1.733c0-16.998-9.163-32.114-23.554-40.027c2.216-4.815,3.392-10.089,3.392-15.455
		c0-13.581-7.232-25.722-18.806-32.201V75.89c0-41.846-34.044-75.89-75.89-75.89c-41.835,0-75.87,34.044-75.87,75.89v4.177
		c-11.437,6.481-18.82,18.833-18.82,32.19c0,5.366,1.175,10.641,3.392,15.455c-14.392,7.913-23.554,23.029-23.554,40.027
		c0,16.862,9.18,31.611,22.797,39.541c-8.459,23.546-7.654,50.375,4.42,74.452c1.315,2.624,3.962,4.14,6.71,4.14
		c1.13,0,2.277-0.256,3.356-0.797c3.702-1.856,5.198-6.363,3.342-10.066c-10.12-20.181-10.812-42.652-3.784-62.41
		c2.878,0.569,5.849,0.875,8.891,0.875c4.143,0,7.5-3.358,7.5-7.5c0-4.142-3.357-7.5-7.5-7.5c-0.742,0-1.475-0.036-2.204-0.088
		c5.452-9.138,12.763-17.264,21.741-23.726v31.314v53.087c0,12.753,4.842,24.394,12.779,33.19l6.634,126.358l-21.447,7.071
		c-3.934,1.297-6.071,5.538-4.774,9.472c1.04,3.154,3.973,5.153,7.122,5.153c0.778,0,1.57-0.122,2.35-0.379l26.889-8.865
		c3.213-1.06,5.318-4.138,5.141-7.516l-6.282-119.653c6.428,3.05,13.608,4.763,21.183,4.763c7.575,0,14.755-1.713,21.184-4.763
		l-6.283,119.653c-0.178,3.378,1.928,6.457,5.141,7.516l26.889,8.865c0.78,0.257,1.571,0.379,2.35,0.379
		c3.149,0,6.082-2,7.122-5.153c1.297-3.934-0.841-8.174-4.774-9.472l-21.447-7.071l6.635-126.359
		c7.937-8.796,12.778-20.437,12.778-33.189l0-53.087l0-30.76c13.377,7.395,28.237,11.385,43.519,11.693
		c-5.636,7.043-14.297,11.567-23.999,11.567c-4.143,0-7.5,3.358-7.5,7.5c0,4.142,3.357,7.5,7.5,7.5
		c18.904,0,35.166-11.529,42.123-27.925c17.06-2.913,32.702-10.299,45.596-21.394v11.428h-0.5c-4.143,0-7.5,3.358-7.5,7.5
		s3.357,7.5,7.5,7.5h16c4.143,0,7.5-3.358,7.5-7.5S360.623,175.58,356.48,175.58z M218.74,179.081l0,18.386h-69.186v-18.386h13.543
		c5.664,0,10.984,3.5,14.598,9.602c1.35,2.28,3.804,3.679,6.453,3.679c2.65,0,5.104-1.399,6.454-3.679
		c3.612-6.102,8.928-9.601,14.585-9.601H218.74z M218.74,164.081h-13.554c-7.734,0-15.142,3.175-21.04,8.795
		c-5.9-5.62-13.312-8.795-21.05-8.795h-13.543v-2.711c0-5.152,4.191-9.343,9.343-9.343h50.501c5.151,0,9.343,4.191,9.343,9.343
		V164.081z M149.554,251.559v-39.092h69.186l0,39.092H149.554z M150.382,266.559h67.529c-3.437,15.479-17.266,27.093-33.764,27.093
		S153.819,282.038,150.382,266.559z M233.396,157.312c-1.938-11.497-11.958-20.286-23.998-20.286h-50.501
		c-11.795,0-21.654,8.433-23.873,19.586c-15.97,8.894-28.423,21.839-36.719,36.898c-8.43-5.486-14.02-14.985-14.02-25.771
		c0-13.607,8.735-25.419,21.737-29.393c2.406-0.735,4.284-2.629,4.999-5.042c0.715-2.413,0.172-5.024-1.446-6.952
		c-3.307-3.941-5.128-8.947-5.128-14.096c0-9.136,5.507-17.172,14.03-20.474c2.887-1.119,4.79-3.897,4.79-6.994V75.89
		c0-33.575,27.307-60.89,60.87-60.89c33.574,0,60.89,27.315,60.89,60.89v8.905c0,3.095,1.901,5.872,4.786,6.992
		c8.517,3.306,14.02,11.34,14.02,20.47c0,5.148-1.821,10.154-5.128,14.096c-1.617,1.928-2.16,4.539-1.444,6.951
		c0.715,2.413,2.592,4.306,4.998,5.042c13.001,3.974,21.736,15.786,21.736,29.393c0,1.374-0.1,2.725-0.275,4.051
		C265.731,172.802,248.161,167.766,233.396,157.312z M355.546,105.074c-1.146,9.245-4.193,17.51-7.065,23.627
		c-2.872-6.117-5.919-14.382-7.065-23.627H355.546z"/>
	<path style="fill:#FF5700;" d="M217.911,266.559h-67.529c3.437,15.479,17.266,27.093,33.764,27.093
		S214.474,282.038,217.911,266.559z"/>
	<path style="fill:#FF5700;" d="M190.602,188.682c-1.351,2.28-3.804,3.679-6.454,3.679c-2.649,0-5.104-1.398-6.453-3.679
		c-3.613-6.102-8.934-9.602-14.598-9.602h-13.543v18.386h69.186l0-18.386h-13.553C199.529,179.081,194.214,182.58,190.602,188.682z"
		/>
	<rect x="149.554" y="212.466" style="fill:#F7D0BC;" width="69.186" height="39.092"/>
	<path style="fill:#F7D0BC;" d="M209.397,152.026h-50.501c-5.151,0-9.343,4.191-9.343,9.343v2.711h13.543
		c7.738,0,15.149,3.175,21.05,8.795c5.898-5.62,13.306-8.795,21.04-8.795h13.554v-2.711
		C218.74,156.217,214.549,152.026,209.397,152.026z"/>
</g>
<g>
</g>
<g>
</g>
<g>
</g>
<g>
</g>
<g>
</g>
<g>
</g>
<g>
</g>
<g>
</g>
<g>
</g>
<g>
</g>
<g>
</g>
<g>
</g>
<g>
</g>
<g>
</g>
<g>
</g>
</svg>
