<?xml version="1.0" encoding="iso-8859-1"?>
<!-- Generator: Adobe Illustrator 19.0.0, SVG Export Plug-In . SVG Version: 6.00 Build 0)  -->
<svg version="1.1" id="Capa_1" xmlns="http://www.w3.org/2000/svg" xmlns:xlink="http://www.w3.org/1999/xlink" x="0px" y="0px"
	 viewBox="0 0 471.303 471.303" style="enable-background:new 0 0 471.303 471.303;" xml:space="preserve">
<g>
	<path style="fill:#FFD089;" d="M229.822,168.026h8.193c0.563-1.587,1.64-2.969,3.114-3.88c2.212-1.367,4.973-1.491,7.298-0.328
		l6.646,3.323l6.646-3.323c2.324-1.162,5.085-1.039,7.298,0.328c1.474,0.911,2.551,2.293,3.114,3.88h8.193
		c10.823,0,20.014,7.101,23.171,16.887c26.7-16.637,43.459-46.2,43.459-78.024c0-50.668-41.222-91.89-91.89-91.89
		c-50.657,0-91.87,41.222-91.87,91.89c0,31.819,16.757,61.385,43.457,78.03C209.804,175.13,218.997,168.026,229.822,168.026z
		 M255.064,55.996c28.062,0,50.891,22.83,50.891,50.892c0,28.052-22.829,50.875-50.891,50.875
		c-28.053,0-50.875-22.822-50.875-50.875C204.189,78.826,227.012,55.996,255.064,55.996z"/>
	<path style="fill:#E6773D;" d="M255.064,142.762c19.79,0,35.891-16.093,35.891-35.875c0-19.791-16.101-35.892-35.891-35.892
		c-19.781,0-35.875,16.101-35.875,35.892C219.189,126.668,235.283,142.762,255.064,142.762z M240.072,113.077
		c3.49,0,6.747-1.892,8.499-4.938c1.338-2.326,3.817-3.76,6.501-3.76c2.684,0,5.163,1.434,6.501,3.76
		c1.752,3.045,5.009,4.938,8.499,4.938c4.143,0,7.5,3.358,7.5,7.5s-3.357,7.5-7.5,7.5c-5.489,0-10.745-1.839-15-5.073
		c-4.255,3.234-9.511,5.073-15,5.073c-4.143,0-7.5-3.358-7.5-7.5S235.93,113.077,240.072,113.077z"/>
	<path style="fill:#460929;" d="M255.064,157.762c28.062,0,50.891-22.822,50.891-50.875c0-28.062-22.829-50.892-50.891-50.892
		c-28.053,0-50.875,22.83-50.875,50.892C204.189,134.939,227.012,157.762,255.064,157.762z M219.189,106.887
		c0-19.791,16.094-35.892,35.875-35.892c19.79,0,35.891,16.101,35.891,35.892c0,19.781-16.101,35.875-35.891,35.875
		C235.283,142.762,219.189,126.668,219.189,106.887z"/>
	<path style="fill:#460929;" d="M240.072,128.077c5.489,0,10.745-1.839,15-5.073c4.255,3.234,9.511,5.073,15,5.073
		c4.143,0,7.5-3.358,7.5-7.5s-3.357-7.5-7.5-7.5c-3.49,0-6.747-1.892-8.499-4.938c-1.338-2.326-3.817-3.76-6.501-3.76
		c-2.684,0-5.163,1.434-6.501,3.76c-1.752,3.045-5.009,4.938-8.499,4.938c-4.143,0-7.5,3.358-7.5,7.5
		S235.93,128.077,240.072,128.077z"/>
	<path style="fill:#460929;" d="M321.192,190.76c25.305-20.033,40.76-50.906,40.76-83.871C361.952,47.951,314.002,0,255.062,0
		c-58.929,0-106.87,47.951-106.87,106.89c0,28.153,11.273,54.786,30.328,74.446c-28.669-9.527-50.72-35.016-54.213-66.963
		c-0.449-4.117-4.132-7.092-8.271-6.641c-4.117,0.45-7.09,4.153-6.641,8.271c2.749,25.139,15.122,47.702,34.841,63.534
		c16.971,13.626,37.635,20.862,59.09,20.862c0.017,0,0.035-0.001,0.052-0.001c0.694,0.385,1.396,0.759,2.101,1.129v88.531
		c0,12.753,4.842,24.394,12.779,33.19l6.635,126.358l-21.447,7.071c-3.934,1.297-6.071,5.538-4.774,9.472
		c1.04,3.154,3.973,5.153,7.122,5.153c0.778,0,1.57-0.122,2.35-0.379l26.889-8.865c3.213-1.06,5.318-4.138,5.141-7.516
		l-6.283-119.653c6.428,3.05,13.609,4.763,21.183,4.763c7.575,0,14.755-1.713,21.183-4.763l-6.283,119.653
		c-0.178,3.378,1.928,6.457,5.141,7.516l26.889,8.865c0.78,0.257,1.571,0.379,2.35,0.379c3.149,0,6.082-2,7.122-5.153
		c1.297-3.934-0.841-8.174-4.774-9.472l-21.447-7.071l6.635-126.359c7.937-8.796,12.778-20.437,12.778-33.189v-1.496
		c25.198-3.648,44.621-25.381,44.621-51.573C349.286,216.912,337.869,199.463,321.192,190.76z M163.192,106.89
		c0-50.668,41.213-91.89,91.87-91.89c50.668,0,91.89,41.222,91.89,91.89c0,31.824-16.758,61.387-43.459,78.024
		c-3.157-9.786-12.349-16.887-23.171-16.887h-8.193c0.281,0.793,0.443,1.634,0.443,2.5v10c0,2.599-1.346,5.013-3.557,6.38
		c-1.205,0.744-2.572,1.12-3.943,1.12c-1.146,0-2.296-0.263-3.354-0.792l-0.052-0.026v34.928c0,19.123,11.057,36.438,27.999,44.641
		l0,15.782h-69.187v-15.781c16.943-8.203,28-25.519,28-44.641v-34.928l-0.052,0.026c-2.325,1.162-5.085,1.039-7.298-0.328
		c-2.211-1.367-3.557-3.781-3.557-6.38v-10c0-0.866,0.162-1.707,0.443-2.5h-8.193c-10.825,0-20.019,7.104-23.173,16.894
		C179.949,168.274,163.192,138.709,163.192,106.89z M220.479,249.13v-56.699c0-0.043,0.004-0.086,0.003-0.129
		c0.037-5.121,4.211-9.276,9.34-9.276h3.656v39.11C233.479,232.819,228.519,242.681,220.479,249.13z M276.666,183.026h3.656
		c5.152,0,9.344,4.191,9.344,9.343l0,56.76c-8.04-6.449-13-16.31-13-26.994V183.026z M221.307,297.559h67.53
		c-3.437,15.479-17.266,27.093-33.764,27.093C238.573,324.652,224.743,313.038,221.307,297.559z M304.665,273.347l0.001-71.828
		c0.387-0.204,0.771-0.413,1.155-0.621c16.306,3.911,28.465,18.603,28.465,36.091C334.286,254.889,321.551,269.87,304.665,273.347z"
		/>
	<path style="fill:#5C4853;" d="M289.666,249.129l0-56.76c0-5.152-4.191-9.343-9.344-9.343h-3.656v39.11
		C276.666,232.819,281.625,242.68,289.666,249.129z"/>
	<path style="fill:#5C4853;" d="M229.822,183.026c-5.129,0-9.303,4.155-9.34,9.276c0,0.043-0.003,0.086-0.003,0.129v56.699
		c8.04-6.449,13-16.311,13-26.994v-39.11H229.822z"/>
	<path style="fill:#5C4853;" d="M288.837,297.559h-67.53c3.437,15.479,17.266,27.093,33.765,27.093
		C271.571,324.652,285.4,313.038,288.837,297.559z"/>
	<path style="fill:#FFFFFF;" d="M248.479,187.208v34.928c0,19.123-11.057,36.438-28,44.641v15.781h69.187l0-15.782
		c-16.943-8.203-27.999-25.518-27.999-44.641v-34.928l-6.594-3.297L248.479,187.208z"/>
	<path style="fill:#FF5700;" d="M269.016,164.146c-2.213-1.367-4.974-1.49-7.298-0.328l-6.646,3.323l-6.646-3.323
		c-2.325-1.163-5.086-1.039-7.298,0.328c-1.474,0.911-2.551,2.293-3.114,3.88c-0.281,0.793-0.443,1.634-0.443,2.5v10
		c0,2.599,1.346,5.013,3.557,6.38c2.213,1.367,4.973,1.49,7.298,0.328l0.052-0.026l6.594-3.297l6.594,3.297l0.052,0.026
		c1.059,0.529,2.208,0.792,3.354,0.792c1.371,0,2.738-0.376,3.943-1.12c2.211-1.367,3.557-3.781,3.557-6.38v-10
		c0-0.866-0.162-1.707-0.443-2.5C271.567,166.439,270.49,165.057,269.016,164.146z"/>
</g>
<g>
</g>
<g>
</g>
<g>
</g>
<g>
</g>
<g>
</g>
<g>
</g>
<g>
</g>
<g>
</g>
<g>
</g>
<g>
</g>
<g>
</g>
<g>
</g>
<g>
</g>
<g>
</g>
<g>
</g>
</svg>
