<?xml version="1.0" encoding="iso-8859-1"?>
<!-- Generator: Adobe Illustrator 19.0.0, SVG Export Plug-In . SVG Version: 6.00 Build 0)  -->
<svg version="1.1" id="Capa_1" xmlns="http://www.w3.org/2000/svg" xmlns:xlink="http://www.w3.org/1999/xlink" x="0px" y="0px"
	 viewBox="0 0 437 437" style="enable-background:new 0 0 437 437;" xml:space="preserve">
<g>
	<path style="fill:#F7D0BC;" d="M168.91,158.07v5.051c3.74-1.505,7.818-2.341,12.09-2.341c15.339,0,28.221,10.685,31.617,25h11.766
		c3.396-14.315,16.278-25,31.617-25c4.272,0,8.35,0.837,12.09,2.341v-5.051c0-5.15-4.19-9.34-9.34-9.34h-1.636h-77.228h-1.636
		C173.1,148.73,168.91,152.92,168.91,158.07z"/>
	<path style="fill:#AB899B;" d="M224.383,200.78h-11.766c-3.396,14.315-16.278,25-31.617,25c-4.272,0-8.35-0.837-12.09-2.341v16.878
		h99.18v-16.878c-3.74,1.505-7.818,2.341-12.09,2.341C240.661,225.78,227.779,215.095,224.383,200.78z"/>
	<path style="fill:#FFB13A;" d="M273.581,255.316h-110.16c-19.618,16.389-30.802,40.213-30.802,65.876V422h171.764V321.192
		C304.383,295.529,293.199,271.705,273.581,255.316z"/>
	<path style="fill:#FFD089;" d="M145.045,7.5c0-4.142-3.358-7.5-7.5-7.5s-7.5,3.358-7.5,7.5c0,24.307,17.135,44.677,39.957,49.695
		c1.61-5.064,3.998-9.78,7.013-14.022C159.063,41.212,145.045,25.964,145.045,7.5z"/>
	<path style="fill:#FFD089;" d="M306.955,7.5c0-4.142-3.358-7.5-7.5-7.5s-7.5,3.358-7.5,7.5c0,18.465-14.019,33.713-31.973,35.673
		c3.016,4.242,5.405,8.959,7.015,14.022C289.82,52.177,306.955,31.807,306.955,7.5z"/>
	<path style="fill:#F7D0BC;" d="M218.492,108.461c17.217,0,31.635-12.182,35.096-28.375h-70.175
		C186.871,96.279,201.283,108.461,218.492,108.461z"/>
	<path style="fill:#5C4853;" d="M218.492,36.695c-17.21,0-31.623,12.19-35.081,28.392h70.177
		C250.13,48.885,235.71,36.695,218.492,36.695z"/>
	<path style="fill:#460929;" d="M373.094,74.07c-4.121-0.472-7.837,2.472-8.314,6.586c-3.792,32.718-26.841,59.217-58.17,67.711
		c-4.136-13.196-16.478-22.798-31.02-22.798c-2.098,0-4.175,0.214-6.207,0.611V72.586c0-5.364-0.84-10.533-2.385-15.392
		c-1.61-5.063-3.999-9.78-7.015-14.022c-9.231-12.983-24.383-21.478-41.49-21.478c-17.102,0-32.249,8.494-41.477,21.478
		c-3.015,4.242-5.403,8.959-7.013,14.022c-1.545,4.858-2.384,10.028-2.384,15.392v53.595c-2.032-0.397-4.109-0.612-6.208-0.612
		c-14.542,0-26.884,9.602-31.02,22.798c-31.33-8.495-54.378-34.994-58.17-67.711c-0.477-4.114-4.196-7.062-8.314-6.586
		c-4.114,0.477-7.063,4.199-6.586,8.314c2.37,20.445,11.078,39.141,25.182,54.065c12.607,13.34,29.121,22.859,46.885,27.126
		c1.9,11.087,9.429,20.274,19.537,24.497c-0.275,1.697-0.423,3.436-0.423,5.208c0,6.622,1.995,12.785,5.41,17.928v32.519
		c-23.109,19.25-36.292,47.27-36.292,77.466V429.5c0,4.142,3.358,7.5,7.5,7.5h186.764c4.142,0,7.5-3.358,7.5-7.5V321.192
		c0-30.197-13.183-58.218-36.293-77.467v-32.518c3.415-5.143,5.41-11.305,5.41-17.928c0-1.773-0.148-3.512-0.423-5.208
		c10.107-4.223,17.636-13.41,19.537-24.497c17.763-4.267,34.278-13.786,46.885-27.126c14.104-14.924,22.812-33.62,25.182-54.065
		C380.157,78.269,377.208,74.547,373.094,74.07z M304.383,422H132.619V321.192c0-25.663,11.184-49.487,30.802-65.876h110.16
		c19.619,16.389,30.802,40.212,30.802,65.876V422z M143.91,158.07c0-9.631,7.822-17.468,17.446-17.497
		c-4.586,4.429-7.446,10.634-7.446,17.497v15.787C148.008,171.042,143.91,165.033,143.91,158.07z M273.5,193.28
		c0,9.649-7.851,17.5-17.5,17.5s-17.5-7.851-17.5-17.5s7.851-17.5,17.5-17.5S273.5,183.63,273.5,193.28z M181,175.78
		c9.649,0,17.5,7.851,17.5,17.5s-7.851,17.5-17.5,17.5s-17.5-7.851-17.5-17.5S171.351,175.78,181,175.78z M257.114,148.73h1.636
		c5.15,0,9.34,4.19,9.34,9.34v5.051c-3.74-1.505-7.818-2.341-12.09-2.341c-15.339,0-28.221,10.685-31.617,25h-11.766
		c-3.396-14.315-16.278-25-31.617-25c-4.272,0-8.35,0.837-12.09,2.341v-5.051c0-5.15,4.19-9.34,9.34-9.34h1.636H257.114z
		 M268.09,240.316h-99.18v-16.878c3.74,1.505,7.818,2.341,12.09,2.341c15.339,0,28.221-10.685,31.617-25h11.766
		c3.396,14.315,16.278,25,31.617,25c4.272,0,8.35-0.837,12.09-2.341V240.316z M275.644,140.573
		c9.624,0.03,17.446,7.866,17.446,17.497c0,6.963-4.098,12.972-10,15.787V158.07C283.09,151.206,280.23,145.001,275.644,140.573z
		 M218.492,36.695c17.218,0,31.638,12.19,35.096,28.392h-70.177C186.869,48.885,201.282,36.695,218.492,36.695z M253.588,80.086
		c-3.46,16.192-17.879,28.375-35.096,28.375c-17.209,0-31.621-12.182-35.08-28.375H253.588z M182.618,133.069v-24.448
		c9.206,9.165,21.889,14.839,35.875,14.839c13.992,0,26.682-5.676,35.891-14.844v24.452c0,0.126,0.013,0.249,0.019,0.374
		c-0.113,0.097-0.229,0.188-0.341,0.287h-71.121c-0.111-0.098-0.228-0.19-0.34-0.287
		C182.605,133.318,182.618,133.196,182.618,133.069z"/>
	<path style="fill:#FFD089;" d="M293.09,158.07c0-9.631-7.822-17.468-17.446-17.497c4.586,4.429,7.446,10.634,7.446,17.497v15.787
		C288.992,171.042,293.09,165.033,293.09,158.07z"/>
	<path style="fill:#FFD089;" d="M153.91,158.07c0-6.864,2.86-13.068,7.446-17.497c-9.624,0.03-17.446,7.866-17.446,17.497
		c0,6.963,4.098,12.972,10,15.787V158.07z"/>
	<path style="fill:#5C4853;" d="M181,210.78c9.649,0,17.5-7.851,17.5-17.5s-7.851-17.5-17.5-17.5s-17.5,7.851-17.5,17.5
		S171.351,210.78,181,210.78z"/>
	<path style="fill:#5C4853;" d="M256,175.78c-9.649,0-17.5,7.851-17.5,17.5s7.851,17.5,17.5,17.5s17.5-7.851,17.5-17.5
		S265.649,175.78,256,175.78z"/>
</g>
<g>
</g>
<g>
</g>
<g>
</g>
<g>
</g>
<g>
</g>
<g>
</g>
<g>
</g>
<g>
</g>
<g>
</g>
<g>
</g>
<g>
</g>
<g>
</g>
<g>
</g>
<g>
</g>
<g>
</g>
</svg>
