<?xml version="1.0" encoding="iso-8859-1"?>
<!-- Generator: Adobe Illustrator 19.0.0, SVG Export Plug-In . SVG Version: 6.00 Build 0)  -->
<svg version="1.1" id="Capa_1" xmlns="http://www.w3.org/2000/svg" xmlns:xlink="http://www.w3.org/1999/xlink" x="0px" y="0px"
	 viewBox="0 0 415.307 415.307" style="enable-background:new 0 0 415.307 415.307;" xml:space="preserve">
<g>
	<path style="fill:#76DEDD;" d="M187.572,254.78h-14.511v14.512C179.861,266.968,185.249,261.58,187.572,254.78z"/>
	<path style="fill:#76DEDD;" d="M212.23,254.78h-9.152c-3.012,15.091-14.926,27.005-30.017,30.017v106.642h12.075
		c0.008,0,3.018,0,3.018,0l-0.002-77.02c0-2.367,1.118-4.595,3.015-6.011c1.897-1.416,4.352-1.853,6.621-1.179
		c6.37,1.892,13.361,1.892,19.732,0c2.27-0.673,4.724-0.236,6.62,1.179c1.897,1.416,3.015,3.644,3.015,6.011v77.019h3.003
		c0.017,0,12.091,0,12.091,0V284.797C227.156,281.785,215.241,269.871,212.23,254.78z"/>
	<path style="fill:#76DEDD;" d="M242.247,269.292V254.78h-14.512C230.058,261.58,235.446,266.969,242.247,269.292z"/>
	<rect x="173.061" y="228.78" style="fill:#FFFFFF;" width="69.187" height="11"/>
	<path style="fill:#A9603A;" d="M199.127,171.277c0,4.702,3.825,8.527,8.526,8.527s8.527-3.825,8.527-8.527V127.03h-17.053V171.277z
		"/>
	<path style="fill:#A9603A;" d="M207.653,194.804c-12.973,0-23.526-10.554-23.526-23.527V127.03h-1.724
		c-5.152,0-9.343,4.191-9.343,9.343v77.407h69.187v-77.407c0-5.152-4.191-9.343-9.343-9.343h-1.724v44.247
		C231.18,184.25,220.626,194.804,207.653,194.804z"/>
	<path style="fill:#FFFFFF;" d="M176.945,32.342h61.415C232.064,21.956,220.652,15,207.646,15
		C194.645,15,183.238,21.956,176.945,32.342z"/>
	<path style="fill:#A9603A;" d="M171.771,50.891c0,19.781,16.093,35.875,35.875,35.875c19.79,0,35.891-16.093,35.891-35.875
		c0-1.198-0.062-2.381-0.177-3.549h-71.411C171.833,48.51,171.771,49.693,171.771,50.891z"/>
	<path style="fill:#460929;" d="M199.127,127.03h17.053v-10.5c0-1.691,0.566-3.246,1.51-4.5h-20.074
		c0.944,1.254,1.51,2.809,1.51,4.5V127.03z"/>
	<path style="fill:#460929;" d="M256.777,131.617c-2.218-11.153-12.078-19.587-23.874-19.587h-3.234
		c0.944,1.254,1.51,2.809,1.51,4.5v10.5h1.724c5.152,0,9.343,4.191,9.343,9.343v77.407h-69.187v-77.407
		c0-5.152,4.191-9.343,9.343-9.343h1.724v-10.5c0-1.691,0.566-3.246,1.51-4.5h-3.234c-11.795,0-21.654,8.433-23.873,19.586
		c-43.971,24.49-61.3,79.699-38.524,125.119c1.315,2.624,3.961,4.14,6.71,4.14c1.13,0,2.277-0.256,3.356-0.797
		c3.703-1.856,5.199-6.363,3.342-10.066c-17.761-35.419-6.537-77.906,24.646-100.349V278.03c0,0.02,0,120.909,0,120.909
		c0,0.355,0.033,0.702,0.081,1.045l-2.116,0.698c-3.934,1.297-6.071,5.538-4.774,9.472c1.04,3.154,3.973,5.153,7.122,5.153
		c0.779,0,1.57-0.122,2.35-0.379l25.745-8.488h9.185c4.162,0,7.52-3.358,7.52-7.5c0-0.186-0.007-0.37-0.02-0.552l-0.002-74.934
		c2.986,0.27,6.018,0.27,9.002,0v75.486c0,4.142,3.358,7.5,7.5,7.5h9.184l25.745,8.488c0.78,0.257,1.571,0.379,2.35,0.379
		c3.149,0,6.082-2,7.122-5.153c1.297-3.934-0.841-8.174-4.774-9.472l-2.114-0.697c0.048-0.342,0.081-0.689,0.081-1.045V149.662
		c31.182,22.444,42.405,64.931,24.645,100.349c-1.857,3.703-0.36,8.209,3.342,10.066c1.079,0.541,2.226,0.797,3.356,0.797
		c2.748,0,5.395-1.516,6.71-4.14C318.076,211.315,300.748,156.106,256.777,131.617z M230.173,391.439c-0.017,0-3.02,0-3.02,0V314.42
		c0-2.367-1.117-4.595-3.015-6.011c-1.896-1.416-4.35-1.852-6.62-1.179c-6.372,1.892-13.362,1.892-19.732,0
		c-2.269-0.674-4.724-0.237-6.621,1.179c-1.897,1.416-3.015,3.644-3.015,6.011l0.002,77.02h-3.01c-0.008,0-12.083,0-12.083,0
		V284.797c15.091-3.012,27.005-14.927,30.017-30.017h9.152c3.012,15.091,14.927,27.006,30.018,30.018v106.642H230.173z
		 M242.247,239.78h-69.187v-11h69.187V239.78z M173.061,254.78h14.511c-2.323,6.801-7.711,12.188-14.511,14.512V254.78z
		 M242.247,254.78v14.512c-6.801-2.324-12.189-7.712-14.512-14.512H242.247z"/>
	<path style="fill:#460929;" d="M207.646,101.766c28.061,0,50.891-22.822,50.891-50.875c0-1.194-0.056-2.375-0.138-3.549h30.197
		c4.142,0,7.5-3.358,7.5-7.5s-3.358-7.5-7.5-7.5h-33.575C247.59,13.43,229.162,0,207.646,0c-28.052,0-50.875,22.83-50.875,50.891
		C156.771,78.943,179.593,101.766,207.646,101.766z M238.36,32.342h-61.415C183.238,21.956,194.645,15,207.646,15
		C220.652,15,232.064,21.956,238.36,32.342z M243.536,50.891c0,19.781-16.101,35.875-35.891,35.875
		c-19.781,0-35.875-16.093-35.875-35.875c0-1.198,0.062-2.381,0.177-3.549h71.411C243.475,48.51,243.536,49.693,243.536,50.891z"/>
	<path style="fill:#FFB13A;" d="M184.127,127.03v44.247c0,12.973,10.554,23.527,23.526,23.527s23.527-10.554,23.527-23.527V127.03
		v-10.5c0-1.691-0.566-3.246-1.51-4.5c-1.369-1.819-3.538-3-5.99-3s-4.621,1.181-5.99,3c-0.944,1.254-1.51,2.809-1.51,4.5v10.5
		v44.247c0,4.702-3.825,8.527-8.527,8.527s-8.526-3.825-8.526-8.527V127.03v-10.5c0-1.691-0.566-3.246-1.51-4.5
		c-1.369-1.819-3.538-3-5.99-3s-4.621,1.181-5.99,3c-0.944,1.254-1.51,2.809-1.51,4.5V127.03z"/>
</g>
<g>
</g>
<g>
</g>
<g>
</g>
<g>
</g>
<g>
</g>
<g>
</g>
<g>
</g>
<g>
</g>
<g>
</g>
<g>
</g>
<g>
</g>
<g>
</g>
<g>
</g>
<g>
</g>
<g>
</g>
</svg>
