<?xml version="1.0" encoding="iso-8859-1"?>
<!-- Generator: Adobe Illustrator 19.0.0, SVG Export Plug-In . SVG Version: 6.00 Build 0)  -->
<svg version="1.1" id="Capa_1" xmlns="http://www.w3.org/2000/svg" xmlns:xlink="http://www.w3.org/1999/xlink" x="0px" y="0px"
	 viewBox="0 0 447.5 447.5" style="enable-background:new 0 0 447.5 447.5;" xml:space="preserve">
<g>
	<path style="fill:#F7D0BC;" d="M198.5,159.23c-5.15,0-9.34,4.19-9.34,9.34v6.104c4.212-2.204,8.814-3.394,13.54-3.394
		c7.738,0,15.15,3.175,21.049,8.795c5.898-5.619,13.307-8.795,21.041-8.795c4.728,0,9.333,1.192,13.55,3.4v-6.11
		c0-5.15-4.19-9.34-9.34-9.34H198.5z"/>
	<path style="fill:#733B59;" d="M244.79,186.28c-5.136,0-9.986,2.891-13.54,7.988v13.731h27.09v-13.727
		C254.778,189.173,249.924,186.28,244.79,186.28z"/>
	<path style="fill:#733B59;" d="M202.7,186.28c-5.136,0-9.986,2.891-13.54,7.988v13.731h27.09v-13.731
		C212.696,189.172,207.842,186.28,202.7,186.28z"/>
	<path style="fill:#5C4853;" d="M137.635,94.999c0,10.885,8.855,19.741,19.741,19.741c0.584,0,1.186-0.029,1.84-0.09
		c3.05-0.282,5.978,1.329,7.371,4.066c1.892,3.716,5.643,6.024,9.789,6.024c4.568,0,8.584-2.877,10.214-6.947
		c-8.507-9.097-13.73-21.3-13.73-34.706c0-13.594,5.293-26.374,14.905-35.986c1.61-1.61,3.865-2.404,6.129-2.151
		c2.263,0.25,4.291,1.516,5.509,3.44c5.432,8.571,14.534,13.688,24.349,13.688c9.813,0,18.914-5.117,24.345-13.688
		c1.219-1.924,3.246-3.189,5.509-3.44c2.265-0.251,4.519,0.541,6.129,2.151c9.612,9.612,14.905,22.392,14.905,35.986
		c0,13.406-5.223,25.61-13.73,34.707c1.631,4.069,5.647,6.946,10.214,6.946c4.146,0,7.897-2.308,9.789-6.024
		c1.393-2.737,4.316-4.348,7.371-4.066c0.654,0.06,1.256,0.09,1.84,0.09c10.885,0,19.741-8.856,19.741-19.741
		c0-10.779-8.769-19.631-19.548-19.734c-3.468-0.033-6.461-2.44-7.238-5.82c-2.176-9.47-6.684-18.405-13.035-25.84
		c-1.406-1.646-2.032-3.819-1.718-5.961c0.142-0.969,0.214-1.946,0.214-2.903C268.541,23.856,259.685,15,248.8,15h-50.084
		c-10.885,0-19.741,8.856-19.741,19.741c0,0.956,0.072,1.932,0.214,2.899c0.314,2.142-0.312,4.315-1.718,5.961
		c-6.351,7.436-10.859,16.372-13.035,25.843c-0.777,3.382-3.772,5.789-7.242,5.82C146.409,75.361,137.635,84.214,137.635,94.999z"/>
	<path style="fill:#460929;" d="M317.964,213.188c0-26.557-19.97-48.523-45.68-51.708c-3.043-9.974-12.328-17.251-23.284-17.251
		h-50.5c-10.956,0-20.241,7.277-23.284,17.251c-25.709,3.185-45.68,25.151-45.68,51.708c0,18.081,9.451,34.582,24.171,43.984
		c-11.375,19.325-23.458,44.603-23.458,79.328c0,2.902,1.674,5.544,4.299,6.783c0.994,0.469,19.856,9.18,55.384,12.975l3.325,63.317
		l-20.134,14.313c-3.376,2.4-4.167,7.082-1.767,10.458c1.463,2.058,3.773,3.155,6.119,3.155c1.503,0,3.021-0.45,4.339-1.388
		l12.375-8.797l0.162,3.078c0.21,4.003,3.521,7.107,7.483,7.107c0.132,0,0.266-0.004,0.4-0.01c4.136-0.217,7.313-3.747,7.096-7.883
		l-4.313-82.133c5.892,0.332,12.125,0.527,18.732,0.527s12.84-0.194,18.732-0.527l-4.313,82.133
		c-0.217,4.136,2.96,7.666,7.096,7.883c0.134,0.007,0.267,0.01,0.4,0.01c3.961,0,7.273-3.104,7.483-7.107l0.162-3.078l12.375,8.797
		c1.319,0.937,2.836,1.388,4.339,1.388c2.346,0,4.656-1.097,6.119-3.155c2.4-3.376,1.609-8.058-1.767-10.458l-20.134-14.313
		l3.325-63.317c35.529-3.795,54.39-12.505,55.384-12.975c2.625-1.239,4.299-3.88,4.299-6.783c0-34.725-12.082-60.003-23.458-79.328
		C308.512,247.77,317.964,231.269,317.964,213.188z M223.75,343c-41.701,0-68.438-7.95-78.405-11.549
		c1.31-34.603,15.904-58.166,27.738-77.269c6.918-11.168,13.08-21.116,15.249-31.182h70.836
		c2.169,10.066,8.331,20.014,15.249,31.182c11.835,19.107,26.434,42.672,27.739,77.286C292.244,335.075,265.692,343,223.75,343z
		 M231.25,207.999v-13.731c3.554-5.096,8.404-7.988,13.54-7.988c5.134,0,9.988,2.893,13.55,7.992v13.727H231.25z M189.16,207.999
		v-13.731c3.554-5.096,8.404-7.988,13.54-7.988c5.142,0,9.995,2.892,13.55,7.988v13.731H189.16z M258.34,168.57v6.11
		c-4.216-2.208-8.822-3.4-13.55-3.4c-7.734,0-15.142,3.175-21.041,8.795c-5.899-5.619-13.311-8.795-21.049-8.795
		c-4.726,0-9.328,1.19-13.54,3.394v-6.104c0-5.15,4.19-9.34,9.34-9.34H249C254.15,159.23,258.34,163.42,258.34,168.57z
		 M174.16,176.83v38.669c0,8.019-5.488,17.295-12.642,28.866c-10.349-6.72-16.982-18.392-16.982-31.176
		C144.537,195.288,157.273,180.307,174.16,176.83z M285.982,244.365c-7.154-11.57-12.642-20.846-12.642-28.866V176.83
		c16.887,3.477,29.624,18.458,29.624,36.359C302.964,225.973,296.331,237.645,285.982,244.365z"/>
	<path style="fill:#FF5700;" d="M274.417,254.181c-6.918-11.168-13.08-21.116-15.249-31.182h-70.836
		c-2.169,10.066-8.331,20.014-15.249,31.182c-11.833,19.104-26.428,42.666-27.738,77.269c9.967,3.6,36.704,11.549,78.405,11.549
		c41.942,0,68.494-7.925,78.406-11.532C300.851,296.854,286.253,273.289,274.417,254.181z"/>
	<path style="fill:#460929;" d="M155.871,129.708c4.867,6.283,12.361,10.032,20.505,10.032c9.431,0,17.677-4.918,22.233-12.449
		c7.423,4.236,16.002,6.67,25.144,6.67c9.141,0,17.719-2.434,25.141-6.67c4.557,7.53,12.803,12.449,22.232,12.449
		c8.144,0,15.638-3.749,20.505-10.032c18.461-0.79,33.236-16.056,33.236-34.708c0-16.988-12.375-31.257-28.584-34.185
		c-2.72-8.818-7.069-17.143-12.779-24.441c0.026-0.545,0.039-1.09,0.039-1.632C283.541,15.585,267.956,0,248.8,0h-50.084
		c-19.156,0-34.741,15.585-34.741,34.741c0,0.541,0.013,1.084,0.039,1.629c-5.709,7.298-10.058,15.622-12.778,24.44
		c-16.218,2.921-28.601,17.192-28.601,34.189C122.635,113.651,137.41,128.917,155.871,129.708z M164.437,69.444
		c2.176-9.471,6.684-18.407,13.035-25.843c1.406-1.646,2.032-3.82,1.718-5.961c-0.142-0.968-0.214-1.943-0.214-2.899
		c0-10.885,8.855-19.741,19.741-19.741H248.8c10.885,0,19.741,8.856,19.741,19.741c0,0.958-0.072,1.935-0.214,2.903
		c-0.314,2.142,0.312,4.315,1.718,5.961c6.351,7.435,10.859,16.37,13.035,25.84c0.777,3.38,3.77,5.787,7.238,5.82
		c10.779,0.103,19.548,8.956,19.548,19.734c0,10.885-8.855,19.741-19.741,19.741c-0.584,0-1.186-0.029-1.84-0.09
		c-3.055-0.283-5.978,1.329-7.371,4.066c-1.892,3.716-5.643,6.024-9.789,6.024c-4.567,0-8.583-2.877-10.214-6.946
		c8.507-9.097,13.73-21.301,13.73-34.707c0-13.594-5.293-26.374-14.905-35.986c-1.61-1.611-3.864-2.402-6.129-2.151
		c-2.263,0.25-4.291,1.516-5.509,3.44c-5.432,8.571-14.533,13.688-24.345,13.688c-9.815,0-18.917-5.117-24.349-13.688
		c-1.219-1.924-3.246-3.189-5.509-3.44c-2.264-0.253-4.519,0.541-6.129,2.151c-9.612,9.612-14.905,22.392-14.905,35.986
		c0,13.406,5.223,25.609,13.73,34.706c-1.63,4.07-5.646,6.947-10.214,6.947c-4.146,0-7.897-2.308-9.789-6.024
		c-1.394-2.737-4.321-4.348-7.371-4.066c-0.654,0.06-1.256,0.09-1.84,0.09c-10.885,0-19.741-8.856-19.741-19.741
		c0-10.785,8.774-19.638,19.56-19.735C160.664,75.233,163.659,72.826,164.437,69.444z M187.86,83.086
		c0-6.711,1.829-13.139,5.25-18.718c8.14,8.086,19.048,12.709,30.642,12.709c11.592,0,22.499-4.624,30.638-12.709
		c3.421,5.578,5.25,12.008,5.25,18.718c0,19.781-16.1,35.875-35.889,35.875C203.961,118.961,187.86,102.868,187.86,83.086z"/>
	<path style="fill:#F7D0BC;" d="M259.641,83.086c0-6.71-1.829-13.14-5.25-18.718c-8.14,8.086-19.046,12.709-30.638,12.709
		c-11.594,0-22.502-4.624-30.642-12.709c-3.422,5.579-5.25,12.007-5.25,18.718c0,19.781,16.102,35.875,35.893,35.875
		C243.541,118.961,259.641,102.868,259.641,83.086z"/>
</g>
<g>
</g>
<g>
</g>
<g>
</g>
<g>
</g>
<g>
</g>
<g>
</g>
<g>
</g>
<g>
</g>
<g>
</g>
<g>
</g>
<g>
</g>
<g>
</g>
<g>
</g>
<g>
</g>
<g>
</g>
</svg>
