<?xml version="1.0" encoding="iso-8859-1"?>
<!-- Generator: Adobe Illustrator 19.0.0, SVG Export Plug-In . SVG Version: 6.00 Build 0)  -->
<svg version="1.1" id="Capa_1" xmlns="http://www.w3.org/2000/svg" xmlns:xlink="http://www.w3.org/1999/xlink" x="0px" y="0px"
	 viewBox="0 0 426.613 426.613" style="enable-background:new 0 0 426.613 426.613;" xml:space="preserve">
<g>
	<path style="fill:#39C8C6;" d="M247.071,252.869h-67.529c3.437,15.479,17.266,27.093,33.765,27.093
		C229.805,279.962,243.634,268.348,247.071,252.869z"/>
	<polygon style="fill:#39C8C6;" points="243.6,402.746 269.624,402.746 246.55,346.552 	"/>
	<polygon style="fill:#39C8C6;" points="156.989,402.746 183.012,402.746 180.062,346.554 	"/>
	<path style="fill:#A9603A;" d="M161.56,155.709c-3.065,0-6.111-0.165-9.135-0.458v27.179h11.289v-26.75
		C162.995,155.696,162.277,155.709,161.56,155.709z"/>
	<path style="fill:#A9603A;" d="M265.053,155.709c-0.717,0-1.434-0.013-2.152-0.029l0,26.75h11.274v-27.177
		C271.154,155.545,268.113,155.709,265.053,155.709z"/>
	<path style="fill:#A9603A;" d="M220.799,15.479v2.174c0.001,19.81,16.102,35.911,35.892,35.911c1.989,0,3.897,0.791,5.304,2.197
		s2.196,3.314,2.196,5.304l-0.004,26.394c0,12.067-4.3,23.769-12.106,32.948c-1.412,1.66-2.924,3.213-4.517,4.666
		c6.824,2.729,12.135,8.456,14.289,15.547c4.169,0.161,8.283-0.007,12.322-0.482V75.892
		C274.174,44.857,250.837,19.189,220.799,15.479z"/>
	<path style="fill:#A9603A;" d="M179.05,125.071c-1.593-1.453-3.104-3.005-4.516-4.665c-7.807-9.179-12.107-20.881-12.107-32.949
		l-0.019-26.388c-0.001-1.99,0.788-3.899,2.195-5.307s3.315-2.199,5.305-2.199c19.791,0,35.892-16.101,35.892-35.891v-2.193
		c-30.038,3.711-53.375,29.379-53.375,60.413v64.265c4.066,0.471,8.186,0.628,12.336,0.465
		C166.914,133.528,172.225,127.8,179.05,125.071z"/>
	<path style="fill:#F7D0BC;" d="M213.299,44.24c-6.802,11.068-17.72,19.341-30.604,22.688l9.225,14.127
		c5.183-1.585,13.127-3.49,21.386-3.49c8.258,0,16.201,1.904,21.384,3.489l9.217-14.126
		C231.023,63.583,220.101,55.308,213.299,44.24z"/>
	<path style="fill:#D3500C;" d="M249.187,86.288l-5.139,7.876c-1.977,3.03-5.837,4.218-9.174,2.821
		c-0.096-0.039-10.801-4.419-21.567-4.419c-10.696,0-21.461,4.375-21.567,4.419c-0.94,0.393-1.921,0.582-2.89,0.582
		c-2.471,0-4.862-1.225-6.283-3.4l-5.141-7.873l0.001,1.158c0,8.517,3.03,16.767,8.533,23.236
		c4.508,5.301,10.388,9.151,17.002,11.136c6.688,2.01,14.005,2.009,20.687,0.001c6.617-1.986,12.497-5.836,17.006-11.137
		c5.502-6.469,8.532-14.719,8.532-23.23L249.187,86.288z"/>
	<path style="fill:#460929;" d="M352.343,63.042c-4.131-0.451-7.821,2.524-8.271,6.641c-3.52,32.205-25.888,57.846-54.897,67.189
		V75.892C289.174,34.045,255.137,0,213.299,0s-75.875,34.045-75.875,75.892v61.024c-9.172-2.943-17.827-7.553-25.563-13.765
		c-16.595-13.324-27.007-32.313-29.32-53.468c-0.45-4.118-4.157-7.092-8.271-6.641c-4.118,0.45-7.091,4.153-6.641,8.271
		c2.749,25.139,15.122,47.702,34.84,63.534c10.472,8.408,22.352,14.374,34.954,17.717v29.866c0,4.142,3.358,7.5,7.5,7.5
		s7.5-3.358,7.5-7.5v-27.179c3.024,0.293,6.07,0.458,9.135,0.458c0.717,0,1.435-0.013,2.153-0.029v26.75v62.938
		c0,12.752,4.841,24.393,12.778,33.188l1.732,32.983l-39.36,95.856c-0.95,2.313-0.684,4.948,0.708,7.025s3.729,3.323,6.229,3.323
		h10.852c-0.223,1.201-0.158,2.472,0.251,3.714c1.04,3.154,3.973,5.153,7.122,5.153c0.779,0,1.57-0.122,2.35-0.379l26.889-8.865
		c3.212-1.06,5.318-4.139,5.141-7.517l-6.283-119.653c6.428,3.05,13.608,4.763,21.183,4.763c7.575,0,14.755-1.713,21.183-4.763
		l-6.282,119.653c-0.178,3.379,1.928,6.457,5.141,7.517l26.889,8.865c0.78,0.257,1.571,0.379,2.35,0.379
		c3.149,0,6.082-2,7.122-5.153c0.409-1.242,0.475-2.513,0.251-3.714h10.852c2.501,0,4.837-1.246,6.229-3.323
		s1.658-4.712,0.708-7.025l-39.36-95.858l1.731-32.98c7.938-8.796,12.779-20.437,12.779-33.19l0.001-62.938l0-26.75
		c0.718,0.016,1.436,0.029,2.152,0.029c3.06,0,6.101-0.164,9.121-0.456v27.177c0,4.142,3.357,7.5,7.5,7.5s7.5-3.358,7.5-7.5v-29.863
		c12.608-3.342,24.494-9.31,34.969-17.721c19.719-15.832,32.092-38.396,34.841-63.534C359.432,67.195,356.46,63.493,352.343,63.042z
		 M179.542,252.869h67.529c-3.437,15.479-17.266,27.093-33.764,27.093C196.808,279.962,182.978,268.348,179.542,252.869z
		 M247.899,237.869h-27.093v-77.033c0-4.142-3.357-7.5-7.5-7.5c-4.142,0-7.5,3.358-7.5,7.5v77.033h-27.093V147.68
		c0-5.152,4.191-9.343,9.343-9.343h50.5c5.152,0,9.344,4.191,9.344,9.343L247.899,237.869z M240.654,110.687
		c-4.509,5.3-10.389,9.151-17.006,11.137c-6.682,2.008-13.999,2.009-20.687-0.001c-6.615-1.984-12.494-5.835-17.002-11.136
		c-5.502-6.469-8.533-14.719-8.533-23.236l-0.001-1.158l5.141,7.873c1.421,2.176,3.812,3.4,6.283,3.4c0.969,0,1.95-0.188,2.89-0.582
		c0.105-0.044,10.871-4.419,21.567-4.419c10.767,0,21.472,4.38,21.567,4.419c3.337,1.396,7.197,0.209,9.174-2.821l5.139-7.876
		l0,1.168C249.186,95.968,246.156,104.218,240.654,110.687z M234.69,81.055c-5.183-1.585-13.126-3.489-21.384-3.489
		c-8.259,0-16.204,1.905-21.386,3.49l-9.225-14.127c12.884-3.347,23.802-11.62,30.604-22.688
		c6.802,11.068,17.723,19.342,30.608,22.689L234.69,81.055z M152.425,140.156V75.892c0-31.034,23.336-56.702,53.375-60.413v2.193
		c0,19.791-16.101,35.891-35.892,35.891c-1.99,0-3.898,0.791-5.305,2.199s-2.196,3.316-2.195,5.307l0.019,26.388
		c0,12.068,4.3,23.77,12.107,32.949c1.412,1.66,2.924,3.212,4.516,4.665c-6.825,2.729-12.136,8.457-14.289,15.55
		C160.611,140.785,156.49,140.627,152.425,140.156z M156.989,402.746l23.073-56.192l2.95,56.192H156.989z M243.6,402.746
		l2.95-56.194l23.073,56.194H243.6z M261.852,140.618c-2.154-7.092-7.465-12.819-14.289-15.547c1.593-1.453,3.105-3.006,4.517-4.666
		c7.807-9.179,12.106-20.88,12.106-32.948l0.004-26.394c0-1.989-0.79-3.897-2.196-5.304s-3.314-2.197-5.304-2.197
		c-19.79,0-35.891-16.101-35.891-35.891c-0.001-0.02-0.001-2.193-0.001-2.193c30.038,3.711,53.375,29.379,53.375,60.413v64.245
		C270.136,140.611,266.021,140.779,261.852,140.618z"/>
	<path style="fill:#ADEBEB;" d="M247.9,147.68c0-5.152-4.191-9.343-9.344-9.343h-50.5c-5.152,0-9.343,4.191-9.343,9.343v90.189
		h27.093v-77.033c0-4.142,3.358-7.5,7.5-7.5c4.143,0,7.5,3.358,7.5,7.5v77.033h27.093L247.9,147.68z"/>
</g>
<g>
</g>
<g>
</g>
<g>
</g>
<g>
</g>
<g>
</g>
<g>
</g>
<g>
</g>
<g>
</g>
<g>
</g>
<g>
</g>
<g>
</g>
<g>
</g>
<g>
</g>
<g>
</g>
<g>
</g>
</svg>
