<?xml version="1.0" encoding="iso-8859-1"?>
<!-- Generator: Adobe Illustrator 19.0.0, SVG Export Plug-In . SVG Version: 6.00 Build 0)  -->
<svg version="1.1" id="Capa_1" xmlns="http://www.w3.org/2000/svg" xmlns:xlink="http://www.w3.org/1999/xlink" x="0px" y="0px"
	 viewBox="0 0 440.301 440.301" style="enable-background:new 0 0 440.301 440.301;" xml:space="preserve">
<g>
	<path style="fill:#A9603A;" d="M223.791,100.956c7.815,0,14.174-6.358,14.174-14.174c0-5.084-2.763-9.809-7.209-12.329
		c-2.081-1.18-3.475-3.281-3.751-5.657C223.431,38.127,197.438,15,166.543,15c-30.88,0-56.864,23.124-60.441,53.788
		c-0.277,2.377-1.673,4.48-3.757,5.659c-4.453,2.519-7.22,7.245-7.22,12.334c0,7.815,6.358,14.174,14.174,14.174
		c4.142,0,7.5,3.358,7.5,7.5h10.699c-7.378-8.831-11.828-20.188-11.828-32.568c0-28.062,22.822-50.891,50.875-50.891
		c4.142,0,7.5,3.358,7.5,7.5c0,19.791,16.101,35.891,35.891,35.891c4.142,0,7.5,3.358,7.5,7.5c0,12.38-4.451,23.738-11.832,32.568
		h10.688C216.291,104.313,219.649,100.956,223.791,100.956z"/>
	<polygon style="fill:#39C8C6;" points="131.963,276.127 131.963,334.702 190.537,334.702 	"/>
	<path style="fill:#39C8C6;" d="M197.461,259.358l3.682,3.682l0-81.959h-13.55c-5.657,0-10.974,3.5-14.586,9.601
		c-1.35,2.281-3.804,3.679-6.454,3.679c-2.65,0-5.104-1.399-6.454-3.679c-3.612-6.102-8.933-9.601-14.596-9.601h-13.54v12.779
		l44.288,44.288c2.929,2.929,2.929,7.678,0,10.606c-1.464,1.464-3.384,2.197-5.303,2.197s-3.839-0.732-5.303-2.197l-33.681-33.681
		v39.841l69.179,69.179l0-39.841l-14.288-14.288c-2.929-2.929-2.929-7.678,0-10.606
		C189.783,256.429,194.532,256.429,197.461,259.358z"/>
	<path style="fill:#F7D0BC;" d="M141.302,152.031c-5.15,0-9.34,4.19-9.34,9.34v4.71h13.54c7.739,0,15.149,3.175,21.049,8.795
		c5.899-5.62,13.307-8.795,21.041-8.795h13.55v-4.71c0-5.15-4.19-9.34-9.34-9.34H141.302z"/>
	<path style="fill:#F7D0BC;" d="M201.78,82.734c-21.542-3.486-38.598-20.54-42.082-42.083
		c-16.517,3.207-29.027,17.787-29.027,35.235c0,19.781,16.093,35.875,35.875,35.875C183.993,111.762,198.573,99.251,201.78,82.734z"
		/>
	<path style="fill:#460929;" d="M209.935,68.387c-19.79,0-35.891-16.101-35.891-35.891c0-4.142-3.358-7.5-7.5-7.5
		c-28.052,0-50.875,22.83-50.875,50.891c0,12.38,4.45,23.738,11.828,32.568c9.34,11.179,23.375,18.306,39.047,18.306
		c15.677,0,29.716-7.127,39.059-18.306c7.38-8.831,11.832-20.188,11.832-32.568C217.435,71.745,214.077,68.387,209.935,68.387z
		 M130.67,75.887c0-17.448,12.51-32.029,29.027-35.235c3.484,21.542,20.541,38.597,42.082,42.083
		c-3.207,16.517-17.787,29.027-35.235,29.027C146.763,111.762,130.67,95.668,130.67,75.887z"/>
	<path style="fill:#460929;" d="M109.299,115.956c4.142,0,7.5-3.358,7.5-7.5s-3.358-7.5-7.5-7.5
		c-7.815,0-14.174-6.358-14.174-14.174c0-5.089,2.767-9.816,7.22-12.334c2.084-1.179,3.48-3.282,3.757-5.659
		C109.678,38.124,135.662,15,166.543,15c30.895,0,56.888,23.127,60.462,53.796c0.276,2.376,1.67,4.477,3.751,5.657
		c4.446,2.521,7.209,7.245,7.209,12.329c0,7.815-6.358,14.174-14.174,14.174c-4.142,0-7.5,3.358-7.5,7.5s3.358,7.5,7.5,7.5
		c16.087,0,29.174-13.087,29.174-29.174c0-9.166-4.345-17.757-11.553-23.23C235.446,27.079,203.864,0,166.543,0
		c-37.304,0-68.875,27.075-74.848,63.538c-7.218,5.473-11.57,14.068-11.57,23.244C80.125,102.868,93.212,115.956,109.299,115.956z"
		/>
	<path style="fill:#460929;" d="M367.962,120.534v-9.235c0-4.142-3.357-7.5-7.5-7.5s-7.5,3.358-7.5,7.5v9.235
		c0,15.654-10.938,28.793-25.569,32.201v-10.39c9.049-3.121,15.569-11.716,15.569-21.811v-18.47
		c0-12.721-10.349-23.069-23.069-23.069s-23.069,10.349-23.069,23.069v18.47c0,10.095,6.521,18.69,15.569,21.811v10.39
		c-14.632-3.408-25.568-16.546-25.568-32.201v-9.235c0-4.142-3.357-7.5-7.5-7.5s-7.5,3.358-7.5,7.5v9.235
		c0,23.954,17.614,43.868,40.568,47.48v40.978c-18.62,5.263-38.275,3.627-55.895-4.787c-18.887-9.02-33.191-24.751-40.408-44.354
		c-0.788-12.715-11.378-22.819-24.288-22.819h-50.5c-10.956,0-20.241,7.277-23.284,17.25c-25.709,3.185-45.68,25.151-45.68,51.708
		c0,26.193,19.425,47.927,44.624,51.573v0.456c0,0.005,0,84.184,0,84.184c0,4.142,3.358,7.5,7.5,7.5h8.307l3.291,62.673
		l-20.134,14.313c-3.376,2.4-4.167,7.083-1.767,10.458c1.463,2.058,3.773,3.155,6.119,3.155c1.503,0,3.021-0.451,4.339-1.388
		l12.375-8.797l0.162,3.078c0.21,4.002,3.521,7.106,7.483,7.106c0.132,0,0.266-0.003,0.4-0.01c4.136-0.217,7.313-3.747,7.096-7.883
		l-4.343-82.706h37.523l-4.343,82.706c-0.217,4.136,2.96,7.666,7.097,7.883c0.134,0.007,0.267,0.01,0.399,0.01
		c3.961,0,7.273-3.104,7.483-7.107l0.162-3.077l12.375,8.797c1.319,0.938,2.836,1.388,4.339,1.388c2.346,0,4.657-1.098,6.119-3.155
		c2.4-3.376,1.609-8.059-1.767-10.458l-20.134-14.313l3.291-62.673h8.307c4.142,0,7.5-3.358,7.5-7.5l0.001-151.685
		c8.912,11.458,20.412,20.786,33.892,27.223c12.939,6.179,26.803,9.291,40.729,9.291c7.233,0,14.482-0.861,21.629-2.547v167.249
		l-38.182,35.581c-3.03,2.824-3.197,7.57-0.374,10.6c2.824,3.029,7.568,3.198,10.601,0.374l27.955-26.051v20.564
		c0,4.142,3.357,7.5,7.5,7.5s7.5-3.358,7.5-7.5v-20.564l27.955,26.051c1.445,1.347,3.28,2.013,5.111,2.013
		c2.009,0,4.012-0.802,5.489-2.387c2.823-3.03,2.656-7.776-0.374-10.6l-38.182-35.581V168.014
		C350.348,164.402,367.962,144.488,367.962,120.534z M131.963,334.702v-58.575l58.575,58.575H131.963z M186.854,269.964
		l14.288,14.288l0,39.841l-69.179-69.179v-39.841l33.681,33.681c1.464,1.464,3.384,2.197,5.303,2.197s3.839-0.732,5.303-2.197
		c2.929-2.929,2.929-7.678,0-10.606l-44.288-44.288v-12.779h13.54c5.664,0,10.984,3.5,14.596,9.601
		c1.35,2.28,3.803,3.679,6.454,3.679c2.65,0,5.104-1.398,6.454-3.679c3.613-6.102,8.929-9.601,14.586-9.601h13.55l0,81.959
		l-3.682-3.682c-2.929-2.929-7.678-2.929-10.606,0C183.925,262.287,183.925,267.036,186.854,269.964z M201.143,161.371v4.71h-13.55
		c-7.734,0-15.142,3.175-21.041,8.795c-5.9-5.62-13.311-8.795-21.049-8.795h-13.54v-4.71c0-5.15,4.19-9.34,9.34-9.34h50.5
		C196.953,152.031,201.143,156.221,201.143,161.371z M87.339,205.989c0-17.901,12.737-32.882,29.624-36.359v27.333
		c0,0.005,0,45.384,0,45.384C100.076,238.871,87.339,223.89,87.339,205.989z M311.823,102.064c0-4.449,3.62-8.069,8.069-8.069
		s8.069,3.62,8.069,8.069v18.47c0,4.449-3.62,8.069-8.069,8.069s-8.069-3.62-8.069-8.069V102.064z"/>
	<path style="fill:#AB899B;" d="M319.893,128.603c4.449,0,8.069-3.62,8.069-8.069v-18.47c0-4.449-3.62-8.069-8.069-8.069
		s-8.069,3.62-8.069,8.069v18.47C311.823,124.983,315.444,128.603,319.893,128.603z"/>
</g>
<g>
</g>
<g>
</g>
<g>
</g>
<g>
</g>
<g>
</g>
<g>
</g>
<g>
</g>
<g>
</g>
<g>
</g>
<g>
</g>
<g>
</g>
<g>
</g>
<g>
</g>
<g>
</g>
<g>
</g>
</svg>
